<ttFont>
          <CharString index="0">
            453 423 rmoveto
            -95 callgsubr
            434 vlineto
            9 53 5 51 1 52 -49 7 rcurveline
            -28 -83 -5 -11 -4 -27 callgsubr
            -30 -3 -30 hhcurveto
            -100 215 hlineto
            170 -4 rlineto
            62 vlineto
            -170 -6 rlineto
            206 81 vlineto
            29 27 -3 -5 15 hvcurveto
            12 -5 6 -6 3 -11 18 -69 rcurveline
            return
          </CharString>
          <CharString index="1">
            379 568 rmoveto
            -43 vlineto
            63 -12 rlineto
            12 -2 5 -7 -13 vvcurveto
            -286 vlineto
            -105 -36 -63 -97 -85 -46 51 120 10 callsubr
            7 9 11 2 vhcurveto
            63 12 rlineto
            43 -241 -43 vlineto
            40 -11 rlineto
            11 -3 12 callsubr
            -275 vlineto
            -154 69 -71 148 135 82 63 155 vhcurveto
            -71 callsubr
            vlineto
            return
          </CharString>
          <CharString index="2">
            -254 vlineto
            -19 -26 -29 -10 -30 hhcurveto
            -55 -18 30 76 hvcurveto
            254 3 callgsubr
            -44 -56 -6 -12 -44 hvcurveto
            -42 vlineto
            43 -8 rlineto
            13 -3 5 -8 -12 vvcurveto
            -191 vlineto
            -101 40 -48 90 58 40 20 33 32 vhcurveto
            -32 10 23 -20 40 hhcurveto
            26 34 9 5 17 hvcurveto
            return
          </CharString>
          <CharString index="3">
            289 568 rmoveto
            -252 -106 callgsubr
            252 38 callgsubr
            13 6 7 13 2 vhcurveto
            57 12 rlineto
            return
          </CharString>
          <CharString index="4">
            58 -101 callgsubr
            return
          </CharString>
          <CharString index="5">
            433 155 rmoveto
            91 -75 44 -80 40 vhcurveto
            -82 40 -48 23 63 vvcurveto
            49 31 30 57 30 28 -10 -12 15 vhcurveto
            9 -8 4 -8 2 -12 15 -77 rcurveline
            56 hlineto
            7 44 3 48 -3 48 rrcurveto
            19 -41 -59 11 -55 hhcurveto
            -128 -65 -66 -89 -98 80 -39 72 -35 hvcurveto
            73 -35 53 -26 -68 vvcurveto
            -55 -34 -34 -64 -41 -35 17 18 -17 vhcurveto
            -10 8 -3 9 -2 9 -13 88 rcurveline
            -58 hlineto
            return
          </CharString>
          <CharString index="6">
            39 vlineto
            -40 5 rlineto
            -13 1 -7 6 16 vvcurveto
            197 vlineto
            102 -49 50 -104 -84 -64 -33 -58 -21 vhcurveto
            22 -21 rlineto
            31 34 40 14 46 hhcurveto
            58 28 -23 -70 hvcurveto
            -47 vlineto
            -80 -6 rlineto
            -78 -5 -82 -30 -82 vvcurveto
            return
          </CharString>
          <CharString index="7">
            68 13 17 46 hvcurveto
            7 47 3 49 -2 42 -58 5 rcurveline
            -25 -78 -5 -13 -5 -7 -8 -7 rlinecurve
            -14 -19 -30 -8 -30 hhcurveto
            -106 -44 98 154 174 57 71 91 32 30 -8 -10 15 hvcurveto
            12 -6 4 -10 3 -10 19 -86 rcurveline
            58 hlineto
            8 52 3 51 -3 44 rrcurveto
            20 -51 -63 9 -51 hhcurveto
            -168 -108 -100 -204 return
          </CharString>
          <CharString index="8">
            -3 -10 -7 -6 -10 -3 rlinecurve
            -47 -11 rlineto
            -42 197 42 vlineto
            -70 13 37 116 rlineto
            207 hlineto
            39 -116 -71 -13 rlineto
            -42 234 42 vlineto
            -43 11 -10 3 -7 6 -4 10 rlinecurve
            return
          </CharString>
          <CharString index="9">
            39 vlineto
            -40 5 rlineto
            -13 1 -8 5 17 vvcurveto
            336 3 callgsubr
            -45 -60 -6 -11 -45 hvcurveto
            -42 vlineto
            50 -9 rlineto
            11 -2 7 -8 -12 vvcurveto
            return
          </CharString>
          <CharString index="10">
            3 callsubr
            -8 -12 vvcurveto
            return
          </CharString>
          <CharString index="11">
            vstem
            400 81 rmoveto
            -4 -12 -7 -6 -10 -4 rrcurveto
            -6 -16 -27 -3 -33 hhcurveto
            -90 441 hlineto
            12 7 8 12 2 vhcurveto
            75 12 rlineto
            43 -270 -43 vlineto
            58 -11 rlineto
            12 -3 12 callsubr
            -418 vlineto
            -12 -6 -7 -32 callgsubr
            431 vlineto
            12 59 3 65 55 vvcurveto
            -50 7 rlineto
            return
          </CharString>
          <CharString index="12">
            rmoveto
            31 70 callgsubr
            -21 -21 -31 -32 21 26 callsubr
            32 vhcurveto
            185 hmoveto
            31 -21 25 callsubr
            -31 -32 64 callsubr
            21 21 32 vhcurveto
            return
          </CharString>
          <CharString index="13">
            1 13 24 3 25 hhcurveto
            87 30 -37 -75 -88 -40 -38 -57 -1 hvcurveto
            -3 -290 rmoveto
            42 vlineto
            -60 11 43 callsubr
            6 13 vvcurveto
            173 84 vlineto
            16 -17 15 -29 15 -34 37 -84 rcurveline
            -50 23 16 -33 22 hhcurveto
            126 42 hlineto
            -38 9 -15 4 -7 4 -8 18 rlinecurve
            -50 99 -21 43 -21 26 -32 18 rlinecurve
            54 14 69 33 112 vvcurveto
            105 -59 46 -151 vhcurveto
            return
          </CharString>
          <CharString index="14">
            -42 vlineto
            48 -7 -97 callsubr
            return
          </CharString>
          <CharString index="15">
            25 -1 22 -10 -25 vvcurveto
            -26 -27 -22 -49 -4 vhcurveto
            5 -35 rlineto
            -1 6 4 0 8 hhcurveto
            76 58 37 55 38 -26 24 -37 3 hvcurveto
            1 -6 -5 0 -4 hhcurveto
            return
          </CharString>
          <CharString index="16">
            49 vlineto
            71 28 19 58 vhcurveto
            19 1 32 -5 27 -6 20 58 rcurveline
            19 -30 -33 14 -34 hhcurveto
            -88 -89 -91 -108 -2 hvcurveto
            -1 -21 -69 -10 -82 callsubr
            vlineto
            return
          </CharString>
          <CharString index="17">
            20 callgsubr
            157 96 -44 96 hintmask 1110101001010000
            -69 callsubr
            hintmask 1111001010100000
            -28 callgsubr
            hintmask 1110011010100000
            69 vlineto
            hintmask 1111001010100000
            -16 callsubr
            hintmask 1110101010100000
            -33 callsubr
            hintmask 1110101001100000
            -17 callsubr
            hintmask 1110101100100000
            -19 callgsubr
            hintmask 1110101001010000
            -9 callgsubr
            hintmask 1110101100010000
            -55 callsubr
            hintmask 1110101001010000
            -63 -48 -31 -74 vhcurveto
            hintmask 1110101010100000
            -47 callsubr
            return
          </CharString>
          <CharString index="18">
            -20 hstemhm
            8 213 74 160 hintmask 01101111
            17 -129 rmoveto
            -51 vlineto
            hintmask 10101111
            -5 29 32 -3 29 hhcurveto
            85 48 55 120 42 hvcurveto
            122 357 4 12 7 5 11 3 rlinecurve
            29 9 rlineto
            41 -160 -42 vlineto
            hintmask 01110111
            56 -11 -90 -283 -100 283 rlineto
            hintmask 01101111
            60 11 rlineto
            41 vlineto
            -213 1 rlineto
            -41 vlineto
            30 -9 11 -3 7 -6 4 -10 rlinecurve
            131 -345 rlineto
            43 hlineto
            -44 -98 -59 -19 -114 -12 rrcurveto
            return
          </CharString>
          <CharString index="19">
            -14 13 -45 -1 -63 -7 -45 -14 rlinecurve
            -39 vlineto
            52 -7 52 callgsubr
            -7 -13 vvcurveto
            -494 -7 callsubr
            -50 -7 rlineto
            -42 233 42 vlineto
            -50 7 68 callgsubr
            7 13 vvcurveto
            return
          </CharString>
          <CharString index="20">
            -20 hstemhm
            8 192 304 155 hintmask 01011110
            167 -6 rmoveto
            80 hlineto
            87 311 93 -311 rlineto
            79 hlineto
            107 352 3 11 7 5 11 3 rlinecurve
            25 8 rlineto
            41 -155 -42 vlineto
            hintmask 10101110
            55 -11 -75 -271 rlineto
            hintmask 10011110
            -89 324 rlineto
            -83 hlineto
            -89 -325 rlineto
            hintmask 01101110
            -77 272 rlineto
            hintmask 01011110
            54 11 rlineto
            42 -192 -41 vlineto
            25 -8 10 -3 6 -4 4 -11 rlinecurve
            return
          </CharString>
          <CharString index="21">
            69 callgsubr
            vstem
            -104 callsubr
            return
          </CharString>
          <CharString index="22">
            rmoveto
            -45 -18 callgsubr
            -93 callsubr
            -293 vlineto
            -100 -22 -41 -87 -51 vhcurveto
            20 -42 46 15 46 17 34 28 rlinecurve
            42 35 16 42 99 vvcurveto
            369 vlineto
            return
          </CharString>
          <CharString index="23">
            58 -31 30 -38 -33 -24 -24 -32 -26 15 -15 14 -9 vhcurveto
            12 -7 9 -3 -19 vvcurveto
            -33 -28 -34 -34 -28 vhcurveto
            20 -26 rlineto
            65 34 53 62 72 vvcurveto
            return
          </CharString>
          <CharString index="24">
            -66 callgsubr
            -2 vhcurveto
            return
          </CharString>
          <CharString index="25">
            rlineto
            -40 vlineto
            68 -9 rlineto
            -284 vlineto
            -12 -66 callsubr
            return
          </CharString>
          <CharString index="26">
            177 410 rmoveto
            -15 13 -41 -1 -51 -7 -41 -12 47 callsubr
            13 -2 5 -8 -14 vvcurveto
            -259 vlineto
            -13 -6 -7 34 callgsubr
            246 42 vlineto
            -69 7 rlineto
            -13 53 callsubr
            return
          </CharString>
          <CharString index="27">
            -8 59 -58 55.5 329.5 47 -7 -20 243 42 callsubr
            38 102 178 95 hintmask 10100111
            236 51 rmoveto
            -55 -41 38 120 130 48 39 63 26 25 -7 -8 16 hvcurveto
            -285 vlineto
            -16 -22 -30 -11 -30 hhcurveto
            -35 -59 rmoveto
            54 40 22 32 28 hvcurveto
            -32 11 23 -21 40 hhcurveto
            26 34 9 5 16 hvcurveto
            hintmask 01101011
            39 vlineto
            -40 5 rlineto
            -12 1 -8 5 17 vvcurveto
            567 vlineto
            hintmask 10010111
            -13 13 -45 -1 -63 -7 -46 -14 rlinecurve
            -39 vlineto
            53 -7 52 callgsubr
            -7 -13 vvcurveto
            -146 vlineto
            hintmask 10100111
            4 -19 -24 3 -24 hhcurveto
            -131 -82 -76 -153 -144 72 -60 91 hvcurveto
            return
          </CharString>
          <CharString index="28">
            -12 -2 vhcurveto
            -43 -7 rlineto
            -42 return
          </CharString>
          <CharString index="29">
            rmoveto
            50 -34 38 -64 -56 -50 -34 -52 vhcurveto
            -54 -1 36 -36 66 hhcurveto
            56 47 34 54 hvcurveto
            -146 1 rmoveto
            28 16 17 29 30 13 -22 -26 -29 -15 -16 -28 -31 -14 23 25 vhcurveto
            endchar
          </CharString>
          <CharString index="30">
            274 hmoveto
            42 vlineto
            -64 8 rlineto
            -13 -47 callgsubr
            203 -286 vlineto
            -12 -66 callsubr
            242 42 vlineto
            -67 8 rlineto
            -12 -47 callgsubr
            124 57 -124 69 vlineto
            68 45 23 58 31 35 -5 -12 34 vhcurveto
            return
          </CharString>
          <CharString index="31">
            hhcurveto
            57 17 -34 -76 hvcurveto
            -180 vlineto
            -13 -7 -6 -11 -3 vhcurveto
            -35 -7 rlineto
            -42 return
          </CharString>
          <CharString index="32">
            39 -8 58 -57 55.5 374.5 -20 return
          </CharString>
          <CharString index="33">
            450 hmoveto
            9 51 5 73 -1 50 -54 6 rcurveline
            -32 -99 -4 -12 -6 -27 callgsubr
            -27 -2 -32 hhcurveto
            -132 hlineto
            315 482 -18 37 rlineto
            -376 hlineto
            return
          </CharString>
          <CharString index="34">
            vlineto
            -12 -6 -8 return
          </CharString>
          <CharString index="35">
            124 rmoveto
            -85 79 -49 110 116 80 55 87 72 -54 37 -64 32 vhcurveto
            hintmask 11011000
            55 21 40 45 54 vvcurveto
            70 -68 48 -97 -102 -69 -54 -80 -57 36 -37 43 -28 vhcurveto
            hintmask 11100100
            -65 -21 -40 -50 -60 vvcurveto
            hintmask 11011000
            114 275 rmoveto
            39 29 28 49 49 34 -29 -52 -33 -16 -33 -37 -24 vhcurveto
            -60 29 -48 25 50 vvcurveto
            hintmask 11100100
            81 -362 rmoveto
            -56 -49 31 64 40 19 36 38 24 hvcurveto
            7 -4 7 -3 6 -3 rrcurveto
            63 -30 55 -23 -56 vvcurveto
            -44 -34 -32 -56 vhcurveto
            endchar
          </CharString>
          <CharString index="36">
            282 vlineto
            12 5 7 12 3 vhcurveto
            43 11 rlineto
            43 return
          </CharString>
          <CharString index="37">
            521 -3 rmoveto
            92 hlineto
            143 497 4 12 6 5 11 2 rlinecurve
            47 12 rlineto
            43 -194 -43 vlineto
            70 -14 rlineto
            return
          </CharString>
          <CharString index="38">
            443 -41 rmoveto
            70 -48 37 -92 vhcurveto
            -85 hlineto
            -57 -23 10 28 14 6 13 11 10 hvcurveto
            -4 17 19 -2 21 hhcurveto
            return
          </CharString>
          <CharString index="39">
            rmoveto
            -59 -53 32 -42 67 -56 64 -39 rlinecurve
            29 32 rlineto
            endchar
          </CharString>
          <CharString index="40">
            -199 0 -77 callgsubr
            377.5 -20 return
          </CharString>
          <CharString index="41">
            -7 -7 -79 callsubr
            return
          </CharString>
          <CharString index="42">
            -15 13 -22 -4 -29 -9 -28 -12 rlinecurve
            15 -30 -33 10 -28 hhcurveto
            -97 -109 -95 -109 hvcurveto
            -36 vlineto
            -69 -11 -19 callsubr
          </CharString>
          <CharString index="43">
            30 0 50 348 171 -47 47 hstemhm
            23 441 hintmask 10110000
            -74 callsubr
            hintmask 11010000
            -9 -54 -4 -62 3 -55 rrcurveto
            55 hlineto
            hintmask 10110000
            -49 callgsubr
            return
          </CharString>
          <CharString index="44">
            -50 -34 -5 -42 hhcurveto
            -125 -43 hlineto
            58 -12 rlineto
            12 -2 12 callsubr
            -417 vlineto
            -13 -6 -7 -32 callgsubr
            vlineto
            return
          </CharString>
          <CharString index="45">
            -37 -33 50 -55 hhcurveto
            -53 -38 -48 -48 -13 hvcurveto
            31 -17 rlineto
            22 15 19 24 26 hhcurveto
            return
          </CharString>
          <CharString index="46">
            7 rlineto
            -12 53 callsubr
            return
          </CharString>
          <CharString index="47">
            -31 -25 11 8 -12 hvcurveto
            -10 6 -3 7 -5 16 -14 55 rcurveline
            -50 hlineto
            -5 -34 -2 -41 5 -39 rrcurveto
            return
          </CharString>
          <CharString index="48">
            -58 -11 rlineto
            -42 return
          </CharString>
          <CharString index="49">
            26 110 3 12 5 6 11 4 rlinecurve
            4 13 26 3 28 hhcurveto
            39 -445 hlineto
            -13 -7 -6 -12 -2 vhcurveto
            -86 -14 rlineto
            -42 vlineto
            return
          </CharString>
          <CharString index="50">
            7 -54 callgsubr
            return
          </CharString>
          <CharString index="51">
            22 callgsubr
            -25 -23 46 callgsubr
            37 5 callgsubr
          </CharString>
          <CharString index="52">
            -78 -24 35 48 30 10 22 14 17 hvcurveto
            -1 12 13 -1 14 hhcurveto
            88 hlineto
            57 16 -20 -36 hvcurveto
            return
          </CharString>
          <CharString index="53">
            74 14 rlineto
            43 -228 -43 vlineto
            36 -12 10 -3 6 -6 4 -10 rlinecurve
            15 -44 -103 -359 rlineto
            return
          </CharString>
          <CharString index="54">
            271 -2 callsubr
            hvcurveto
            hintmask 11010100
            55 -49 31 -58 vhcurveto
            hintmask 11011000
            -52 callsubr
            hvcurveto
            hintmask 10111000
            -35 -30 -24 -59 vhcurveto
            -12 -41 hlineto
            hintmask 10110100
            -23 callsubr
            endchar
          </CharString>
          <CharString index="55">
            42 7 41 31 47 vvcurveto
            53 -53 35 -69 -50 -52 -19 -45 -19 vhcurveto
            18 -20 rlineto
            23 25 28 9 28 hhcurveto
            38 29 -17 -35 return
          </CharString>
          <CharString index="56">
            82 110 rmoveto
            -92 49 -25 66 59 50 24 48 23 vhcurveto
            -23 23 rlineto
            -19 -19 -26 -9 -27 hhcurveto
            -36 -20 16 60 hvcurveto
            222 128 56 -129 vlineto
            -2 127 rlineto
            -54 hlineto
            return
          </CharString>
          <CharString index="57">
            -10 rmoveto
            115 73 77 103 90 -58 65 -94 -48 -48 -16 -29 -27 hvcurveto
            106 13 59 68 90 hhcurveto
            20 25 -4 -10 25 hvcurveto
            15 43 rlineto
            19 -29 -40 9 -41 hhcurveto
            -146 -98 -119 -171 -149 77 -82 117 hvcurveto
            6 48 rmoveto
            -63 -33 67 101 hvcurveto
            28 vlineto
            6 vlineto
            18 24 38 9 27 hhcurveto
            56 35 -43 -71 -68 -31 -47 -53 hvcurveto
            endchar
          </CharString>
          <CharString index="58">
            292 hmoveto
            42 vlineto
            -60 11 43 callsubr
            6 13 vvcurveto
            116 vlineto
            72 81 14 -22 15 -25 19 -37 rlinecurve
            58 -109 rlineto
            -48 25 19 -30 18 hhcurveto
            130 42 hlineto
            -38 10 -17 4 -6 8 -10 15 rlinecurve
            -87 150 -30 52 -20 33 -26 29 rlinecurve
            141 158 7 7 7 3 10 2 rlinecurve
            53 12 rlineto
            43 -206 vlineto
            1 -43 rlineto
            return
          </CharString>
          <CharString index="59">
            rmoveto
            -49 -64 45 -35 88 -36 68 -26 rlinecurve
            20 37 rlineto
            return
          </CharString>
          <CharString index="60">
            -84 436 rmoveto
            76 32 23 44 54 24 -30 -72 -70 -24 -30 -50 -55 -25 34 69 vhcurveto
            return
          </CharString>
          <CharString index="61">
            0 -77 callgsubr
            315.5 62 return
          </CharString>
          <CharString index="62">
            67 62 54 vlineto
            -62 -3 rlineto
            87 -55 vlineto
            -13 -91 -118 -6 43 38 41 55 74 140 rlinecurve
            -12 14 rlineto
            -67 hlineto
            -41 -85 -47 -87 -57 -85 rrcurveto
            endchar
          </CharString>
          <CharString index="63">
            228 rmoveto
            -58 callgsubr
            hintmask 11110000
            59 -45 50 -82 -72 -43 -39 -39 -12 vhcurveto
            hintmask 11010000
            19 -18 rlineto
            hintmask 11110000
            22 20 30 20 35 hhcurveto
            44 24 -26 -41 -62 -60 -53 -118 -87 hvcurveto
            endchar
          </CharString>
          <CharString index="64">
            44 22 rmoveto
            -15 35 53 -17 59 hhcurveto
            99 70 44 80 77 -63 31 -68 27 hvcurveto
            return
          </CharString>
          <CharString index="65">
            41 callsubr
            -24 -23 -35 -34 24 -23 36 37 5 callgsubr
          </CharString>
          <CharString index="66">
            436 rmoveto
            -105 -100 -88 -159 -15 -159 15 -18 rcurveline
            89 hlineto
            hintmask 10011000
            14 193 65 139 90 115 rrcurveto
            hintmask 10101000
            -24 54 rlineto
            -330 hlineto
            hintmask 11001000
            -8 -52 -4 -62 3 -59 rrcurveto
            51 hlineto
            hintmask 10101000
            27 81 4 14 7 4 14 3 rlinecurve
            4 18 31 2 37 hhcurveto
            endchar
          </CharString>
          <CharString index="67">
            509 7 rmoveto
            229 vlineto
            42 6 rlineto
            48 -228 -48 vlineto
            89 -7 rlineto
            return
          </CharString>
          <CharString index="68">
            95 0 42 129 50 265 84 0 -20 return
          </CharString>
          <CharString index="69">
            rmoveto
            20 74 8 81 rlineto
            -82 hlineto
            9 -81 19 -74 -54 54 -66 48 -41 -71 75 -33 73 -20 -73 -20 -75 -33 41 -71 66 48 54 54 -19 -74 -9 -82 rlineto
            82 hlineto
            -8 82 -20 74 55 -54 65 -48 41 71 -75 33 -73 20 73 20 75 33 -41 71 -65 -48 rlineto
            endchar
          </CharString>
          <CharString index="70">
            hmoveto
            -58 callgsubr
            59 -45 50 -82 -72 -43 -39 -39 -12 vhcurveto
            19 -18 rlineto
            22 20 30 20 35 hhcurveto
            44 24 -26 -41 -62 -60 -53 -118 -87 hvcurveto
            endchar
          </CharString>
          <CharString index="71">
            413 hmoveto
            42 vlineto
            -70 14 43 callsubr
            6 13 vvcurveto
            141 vlineto
            return
          </CharString>
          <CharString index="72">
            4 51 0 47 -5 47 rrcurveto
            return
          </CharString>
          <CharString index="73">
            94 rmoveto
            218 hlineto
            hintmask 10110000
            -94 91 vlineto
            hintmask 01110000
            94 79 63 vlineto
            -79 -3 rlineto
            118 vlineto
            -80 -4 -10 -118 -165 -6 70 65 58 103 94 172 rlinecurve
            -13 22 rlineto
            -88 hlineto
            -61 -129 -67 -121 -72 -115 rrcurveto
            endchar
          </CharString>
          <CharString index="74">
            24 -29 -42 13 -52 hhcurveto
            -106 -75 -51 -99 -57 25 -43 50 -23 hvcurveto
            return
          </CharString>
          <CharString index="75">
            -3 -201 48 150 69 69 45 170 76 -44 43 -6 -20 return
          </CharString>
          <CharString index="76">
            rmoveto
            24 61 20 76 8 65 -79 9 rcurveline
            -16 -202 rlineto
            endchar
          </CharString>
          <CharString index="77">
            -45 -9 63 175 42 109 45 return
          </CharString>
          <CharString index="78">
            36 32 -51 52 hhcurveto
            54 34 50 49 13 hvcurveto
            endchar
          </CharString>
          <CharString index="79">
            0 -77 callgsubr
            310.5 57 return
          </CharString>
          <CharString index="80">
            rmoveto
            -174 hlineto
            85 265 rlineto
            endchar
          </CharString>
          <CharString index="81">
            -161 rmoveto
            -16 34 callsubr
            -14 hhcurveto
            -29 -22 13 27 39 45 39 58 19 hvcurveto
            -42 8 -31 -12 rlineto
            -61 -24 -48 -42 -51 vvcurveto
            -49 41 -23 58 callgsubr
            endchar
          </CharString>
          <CharString index="82">
            -2 vhcurveto
            -59 callsubr
            return
          </CharString>
          <CharString index="83">
            42 42 hlineto
            -15 callsubr
            8 13 vvcurveto
            338 vlineto
            -5 callsubr
            return
          </CharString>
          <CharString index="84">
            38 hlineto
            53 29 -15 -36 -39 -33 -20 -46 -38 -37 13 17 -23 hvcurveto
            return
          </CharString>
          <CharString index="85">
            rmoveto
            207 -162 32 35 -136 154 134 157 -30 35 -207 -166 rlineto
            return
          </CharString>
          <CharString index="86">
            229 vlineto
            13 6 7 12 2 vhcurveto
            58 39 callgsubr
            -7 -13 vvcurveto
            -416 vlineto
            -13 -6 -7 -32 callgsubr
            vlineto
            return
          </CharString>
          <CharString index="87">
            573 rmoveto
            47 -28 27 -32 -28 -25 -21 -31 -18 9 -13 13 -11 vhcurveto
            8 -6 6 -4 -13 vvcurveto
            -24 -21 -30 -29 -21 vhcurveto
            19 -26 rlineto
            67 32 41 53 59 vvcurveto
            endchar
          </CharString>
          <CharString index="88">
            -82 callsubr
            vlineto
            endchar
          </CharString>
          <CharString index="89">
            348 568 rlineto
            -70 hlineto
            -348 -568 rlineto
            return
          </CharString>
          <CharString index="90">
            -31 -15 -23 -23 -39 vvcurveto
            -29 13 -22 27 -13 vhcurveto
            return
          </CharString>
          <CharString index="91">
            3 -12 -15 4 -13 hhcurveto
            -24 -24 -14 -24 -21 hvcurveto
            return
          </CharString>
          <CharString index="92">
            -43 -57 callsubr
            return
          </CharString>
          <CharString index="93">
            -45 -48 49 -57 hhcurveto
            -50 -44 -37 -54 -24 hvcurveto
            30 -23 rlineto
            24 19 26 20 29 hhcurveto
            return
          </CharString>
          <CharString index="94">
            193 -6 95 -74 -21 367 53 -41 41 return
          </CharString>
          <CharString index="95">
            -13 12 -46 -1 -61 -8 -45 -13 rlinecurve
            -39 vlineto
            51 -7 rlineto
            13 -2 6 -7 -13 vvcurveto
            -493 vlineto
            -12 -7 -8 -79 callsubr
            vlineto
            return
          </CharString>
          <CharString index="96">
            hmoveto
            19 50 -199 520 rlineto
            -95 hlineto
            -194 -520 19 -50 rlineto
            52 67 rmoveto
            hintmask 11010000
            150 423 157 -423 rlineto
            endchar
          </CharString>
          <CharString index="97">
            rmoveto
            -37 19 rlineto
            -46 -24 -34 -19 -38 hhcurveto
            -40 -32 21 44 -21 hvcurveto
            -42 -19 rlineto
            -62 13 48 -52 70 hhcurveto
            71 49 49 65 17 hvcurveto
            endchar
          </CharString>
          <CharString index="98">
            rmoveto
            93 98 102 -98 33 29 -101 145 -68 -6 -90 -141 rlineto
            endchar
          </CharString>
          <CharString index="99">
            6 66 1 56 -7 63 rrcurveto
            -501 hlineto
            return
          </CharString>
          <CharString index="100">
            vlineto
            -12 26 callgsubr
            return
          </CharString>
          <CharString index="101">
            -269 -329 rmoveto
            -38 -17 19 34 40 25 23 56 3 hvcurveto
            60 5 2 -30 6 -28 11 -24 rlinecurve
            -28 -31 -41 -14 -33 hhcurveto
            return
          </CharString>
          <CharString index="102">
            -13 13 rlineto
            -46 -18 callgsubr
            -93 callsubr
            -261 -73 callsubr
            -13 -2 vhcurveto
            return
          </CharString>
          <CharString index="103">
            -335 21 -21 568 -20 hstem
            -139 418 vstem
            -69 hmoveto
            -18 callsubr
            endchar
          </CharString>
          <CharString index="104">
            18 callsubr
            -6 6 13 vvcurveto
            return
          </CharString>
          <CharString index="105">
            rmoveto
            -29 27 48 -20 58 hhcurveto
            90 56 47 58 return
          </CharString>
          <CharString index="106">
            -114 -415 -117 415 rlineto
            return
          </CharString>
          <CharString index="107">
            42 110 278 111 return
          </CharString>
          <CharString index="108">
            -3 -9 46 342 46 return
          </CharString>
          <CharString index="109">
            10 -16 9 -18 10 -20 rlinecurve
            39 -76 rlineto
            -38 18 14 -28 22 hhcurveto
            124 42 hlineto
            -44 11 -11 2 -8 6 return
          </CharString>
          <CharString index="110">
            rlineto
            12 -2 6 return
          </CharString>
          <CharString index="111">
            81 -60 81 -13 -20 hstemhm
            96 94 203 94 203 94 return
          </CharString>
          <CharString index="112">
            hstemhm
            -2 234 83 228 87 194 return
          </CharString>
          <CharString index="113">
            185 -46 46 hstemhm
            26 55 151 99 return
          </CharString>
          <CharString index="114">
            -6 -14 -45 hvcurveto
            return
          </CharString>
          <CharString index="115">
            42 205 43 239 39 -39 44 28 callsubr
            return
          </CharString>
          <CharString index="116">
            64 0 42 469 -20 34 43 return
          </CharString>
          <CharString index="117">
            vhcurveto
            282 vlineto
            12 return
          </CharString>
          <CharString index="118">
            185 -9 63 -62 58 121.5 41.5 16 42 85 67 -44 46 return
          </CharString>
          <CharString index="119">
            6 -7 -12 vvcurveto
            return
          </CharString>
          <CharString index="120">
            -64 49 -37 69 vhcurveto
            return
          </CharString>
          <CharString index="121">
            hstem
            78 85 vstem
            275 -139 rmoveto
            42 vlineto
            -92 9 rlineto
            -13 1 -7 8 13 vvcurveto
            return
          </CharString>
          <CharString index="122">
            vvcurveto
            -59 -24 -24 -55 -12 vhcurveto
            -49 -9 6 -45 rlineto
            23 28 1 3 28 hvcurveto
            endchar
          </CharString>
          <CharString index="123">
            rmoveto
            54 -37 35 -58 -57 -37 -35 -54 -54 37 -35 57 58 37 35 54 vhcurveto
            endchar
          </CharString>
          <CharString index="124">
            -42 -7 rlineto
            -42 108 -2 vlineto
            -52 -21 -49 -41 -52 vvcurveto
            -49 42 -23 53 vhcurveto
            return
          </CharString>
          <CharString index="125">
            60 callgsubr
            -12 3 return
          </CharString>
          <CharString index="126">
            -171 -21 192 return
          </CharString>
          <CharString index="127">
            -199 -188 56 132 -77 callgsubr
            377.5 -20 return
          </CharString>
          <CharString index="128">
            -49 -5 143 143 -45 45 -217 -217 217 -217 45 46 return
          </CharString>
          <CharString index="129">
            hstemhm
            41 55 -50 89 132 93 return
          </CharString>
          <CharString index="130">
            103 141 rlineto
            endchar
          </CharString>
          <CharString index="131">
            66 hstem
            94 97 vstem
            312 -105 rmoveto
            -49 10 rlineto
            -55 11 -25 24 59 return
          </CharString>
          <CharString index="132">
            21 -31 -31 -20 -21 return
          </CharString>
          <CharString index="133">
            -21 31 31 20 21 return
          </CharString>
          <CharString index="134">
            9 31 31 46 hhcurveto
            return
          </CharString>
          <CharString index="135">
            hstemhm
            113 100 return
          </CharString>
          <CharString index="136">
            66 hstem
            134 85 vstem
            99 -146 rmoveto
            92 6 41 45 77 return
          </CharString>
          <CharString index="137">
            vvcurveto
            -77 41 -44 92 -7 vhcurveto
            -3 28 29 -1 22 hhcurveto
            endchar
          </CharString>
          <CharString index="138">
            -4 -1 -6 hvcurveto
            -160 hlineto
            77 9 return
          </CharString>
          <CharString index="139">
            45 callgsubr
            94 return
          </CharString>
          <CharString index="140">
            51 -11 46 497 46 return
          </CharString>
          <CharString index="141">
            39 39 callsubr
            return
          </CharString>
          <CharString index="142">
            64 0 -20 hstemhm
            return
          </CharString>
          <CharString index="143">
            87 180.5 84.5 hintmask 01100111
            return
          </CharString>
          <CharString index="144">
            -11 72 -46 -21 51 35 150 47 188 46 hstemhm
            return
          </CharString>
          <CharString index="145">
            -190 36 88 34 return
          </CharString>
          <CharString index="146">
            rlineto
            -7 -15 -17 -3 return
          </CharString>
          <CharString index="147">
            68 -4 callgsubr
            return
          </CharString>
          <CharString index="148">
            35 -24 23 -37 -36 return
          </CharString>
          <CharString index="149">
            -20 33 -20 hstemhm
            return
          </CharString>
          <CharString index="150">
            rlineto
            -13 2 -6 return
          </CharString>
          <CharString index="151">
            -76 142 -61 61 324 45 -45 123 hstemhm
            return
          </CharString>
          <CharString index="152">
            222 50 110 31 -31 41 111 52 hstemhm
            return
          </CharString>
          <CharString index="153">
            vlineto
            13 -13 52 -1 75 4 57 7 rlinecurve
            endchar
          </CharString>
          <CharString index="154">
            rlinecurve
            -42 vlineto
            48 -7 rlineto
            return
          </CharString>
          <CharString index="155">
            -20 21 -20 hstemhm
            return
          </CharString>
          <CharString index="156">
            135 -6 47 -41 41 487 40 -40 45 return
          </CharString>
          <CharString index="157">
            7 9 -16 hvcurveto
            285 vlineto
            17 22 26 10 return
          </CharString>
          <CharString index="158">
            330 291 hstem
            58 74.5 return
          </CharString>
          <CharString index="159">
            hstemhm
            42 115 255 97 return
          </CharString>
          <CharString index="160">
            2 -7 7 13 vvcurveto
            return
          </CharString>
          <CharString index="161">
            32 hhcurveto
            57 17 return
          </CharString>
          <CharString index="162">
            -10 15 -71 rcurveline
            54 hlineto
            7 43 3 44 return
          </CharString>
          <CharString index="163">
            -8 43 137 45 59 44 145 43 return
          </CharString>
          <CharString index="164">
            0 41 158 45 86 42 87 42 hstemhm
            return
          </CharString>
          <CharString index="165">
            rmoveto
            -27 17 rlineto
            -34 -24 -44 -20 -43 hhcurveto
            return
          </CharString>
          <CharString index="166">
            vlineto
            3 16 2 22 15 vvcurveto
            90 -59 53 return
          </CharString>
          <CharString index="167">
            -35 -34 24 -23 36 37 23 23 34 vhcurveto
            return
          </CharString>
          <CharString index="168">
            196 0 42 222 53 208 43 return
          </CharString>
          <CharString index="169">
            -114 rmoveto
            63 -328 -63 vlineto
            endchar
          </CharString>
          <CharString index="170">
            hstemhm
            -2 197 return
          </CharString>
          <CharString index="171">
            20 -21 31 31 return
          </CharString>
        <CharString name=".notdef">
          169 0 92 329 94 hstem
          64 96 325 94 vstem
          160 141 rmoveto
          125 115 -125 123 41 42 121 -128 119 128 44 -42 -127 -122 127 -124 -41 -41 -123 128 -118 -128 rlineto
          -139 -92 rmoveto
          515 515 -515 hlineto
          endchar
        </CharString>
        <CharString name="A">
          -39 callsubr
          -20 callgsubr
          hintmask 11010100
          -7 callgsubr
          hintmask 11101010
          -171 -498 -99 callsubr
          -155 149 -27 callsubr
        </CharString>
        <CharString name="AE">
          -81 callgsubr
          endchar
        </CharString>
        <CharString name="Aacute">
          -39 callsubr
          -20 callgsubr
          hintmask 11010100
          -7 callgsubr
          hintmask 11101010
          -171 -498 -99 callsubr
          -80 624 -92 callgsubr
          -75 -475 -27 callsubr
        </CharString>
        <CharString name="Abreve">
          -39 callsubr
          63 70 -20 callgsubr
          hintmask 11011010
          -7 callgsubr
          hintmask 11101101
          -171 -498 -99 callsubr
          -79 652 -85 callgsubr
          -76 -503 -27 callsubr
        </CharString>
        <CharString name="Acircumflex">
          -39 callsubr
          86 -20 23 -20 -20 callgsubr
          hintmask 1101010100000000
          -7 callgsubr
          hintmask 1101011010000000
          -171 -498 -99 callsubr
          -342 532 -83 callgsubr
          rlineto
          hintmask 1110101000000000
          -109 -114 rlineto
          215 -415 -27 callsubr
        </CharString>
        <CharString name="Adieresis">
          -39 callsubr
          68 105 63 callsubr
          -54 103 82 103 -92 234 hintmask 1101101100000000
          -7 callgsubr
          hintmask 1101110010000000
          -171 -498 -99 callsubr
          hintmask 1110101100000000
          -263 599 -95 callsubr
          -77 -450 -27 callsubr
        </CharString>
        <CharString name="Agrave">
          -39 callsubr
          92 -20 -20 callgsubr
          hintmask 11011010
          -7 callgsubr
          hintmask 11101101
          -171 -498 -99 callsubr
          -308 694 -48 callsubr
          -19 -421 -27 callsubr
        </CharString>
        <CharString name="Amacron">
          -39 callsubr
          88 60 -3 callgsubr
          -415 258 -77 234 hintmask 1101101000000000
          -7 callgsubr
          hintmask 1101110010000000
          -171 -498 -99 callsubr
          hintmask 1110100100000000
          -351 566 19 callgsubr
          196 -477 -27 callsubr
        </CharString>
        <CharString name="Aogonek">
          95 -188 56 132 42 129 50 265 84 0 -20 63 callsubr
          142 234 -214 80 hintmask 11101101
          550 -161 rmoveto
          -16 39 rlineto
          -7 -16 -16 -3 -15 hhcurveto
          -29 -21 13 27 36 38 36 52 20 hvcurveto
          hintmask 11101110
          44 42 hlineto
          -43 11 -10 3 -7 6 -4 10 rlinecurve
          -176 498 rlineto
          -95 hlineto
          -171 -498 -3 -10 -7 -6 -10 -3 rlinecurve
          -47 -11 rlineto
          -42 197 42 vlineto
          -70 13 37 116 rlineto
          207 hlineto
          39 -116 -71 -13 rlineto
          -42 122 -2 vlineto
          hintmask 11101101
          -53 -21 -49 -41 -52 vvcurveto
          -49 42 -23 52 35 38 10 17 26 vhcurveto
          -198 382 rmoveto
          -174 hlineto
          hintmask 11110101
          85 265 rlineto
          endchar
        </CharString>
        <CharString name="Aring">
          95 0 42 129 50 347 32 -31 -20 150 42 63 callsubr
          -15 57 95 58 -53 234 hintmask 1101101100000000
          390 43 callgsubr
          hintmask 1110101100000000
          -40 19 -30 36 -14 vhcurveto
          hintmask 1101110010000000
          -170 -496 -99 callsubr
          hintmask 1101101100000000
          -176 497 34 14 24 28 1 39 rlinecurve
          hintmask 1110101100000000
          7 callgsubr
          115 -431 -27 callsubr
        </CharString>
        <CharString name="Atilde">
          -39 callsubr
          66 67 -46 -20 49 67 -20 callgsubr
          hintmask 1101010010000000
          -7 callgsubr
          hintmask 1101100101000000
          -171 -498 -99 callsubr
          -62 640 -17 callgsubr
          hintmask 1101011010000000
          -62 callsubr
          hintmask 1101100010000000
          37 33 -50 55 hhcurveto
          hintmask 1101100101000000
          53 38 48 48 13 hvcurveto
          -93 -491 rmoveto
          -174 hlineto
          hintmask 1110010010000000
          85 265 rlineto
          endchar
        </CharString>
        <CharString name="B">
          83 -4 44 -40 40 230 48 213 37 -37 42 hstemhm
          113 99 172 98 -70 109 hintmask 10101110
          482 440 rmoveto
          87 -48 46 -144 vhcurveto
          hintmask 01110101
          -46 -35 -5 -46 hhcurveto
          -126 -43 hlineto
          61 -12 rlineto
          9 -2 6 -8 -9 vvcurveto
          -421 vlineto
          -10 -6 -8 -10 -2 vhcurveto
          -60 -11 rlineto
          -42 125 vlineto
          52 27 -4 45 hhcurveto
          hintmask 10101101
          180 55 74 98 82 -56 49 -82 4 hvcurveto
          hintmask 10101110
          63 17 36 50 70 vvcurveto
          -270 87 rmoveto
          1 12 29 3 22 hhcurveto
          78 31 -32 -69 -75 -33 -37 -65 -16 -29 -1 1 -29 hvcurveto
          hintmask 10101101
          70 -278 rmoveto
          -22 -30 3 3 -18 hvcurveto
          222 vlineto
          1 30 34 1 20 hhcurveto
          79 37 -30 -80 -79 -37 -41 -93 hvcurveto
          endchar
        </CharString>
        <CharString name="C">
          33 callsubr
          hstem
          42 112 vstem
          301 -11 rmoveto
          61 -100 callsubr
          -180 84 -105 175 hvcurveto
          endchar
        </CharString>
        <CharString name="Cacute">
          33 callsubr
          hstem
          42 112 vstem
          301 -11 rmoveto
          61 -100 callsubr
          -180 84 -105 175 hvcurveto
          146 707 -92 callgsubr
          endchar
        </CharString>
        <CharString name="Ccaron">
          33 callsubr
          170 -21 hstem
          42 112 vstem
          301 -11 rmoveto
          61 -100 callsubr
          -180 84 -105 175 hvcurveto
          123 770 -79 callgsubr
        </CharString>
        <CharString name="Ccedilla">
          51 38 callsubr
          21 46 497 46 hstemhm
          42 112 141 81 vstemhm
          376 -98 rmoveto
          38 -26 24 -37 3 vhcurveto
          1 -6 -5 0 -4 hhcurveto
          hintmask 10111100
          7 21 rlineto
          57 -100 callsubr
          -168 73 -102 152 -14 hvcurveto
          hintmask 11111100
          -19 -56 rlineto
          25 -1 22 -10 -25 vvcurveto
          -26 -27 -22 -49 -4 vhcurveto
          5 -35 rlineto
          -1 6 4 0 8 hhcurveto
          76 58 37 55 hvcurveto
          endchar
        </CharString>
        <CharString name="Ccircumflex">
          33 callsubr
          58 -4 callgsubr
          42 112 hintmask 11011000
          301 -11 rmoveto
          61 -100 callsubr
          -180 84 -105 175 hvcurveto
          -116 615 -83 callgsubr
          rlineto
          hintmask 11101000
          -23 callgsubr
        </CharString>
        <CharString name="Cdotaccent">
          33 callsubr
          43 115 hstem
          42 112 90 122 vstem
          301 -11 rmoveto
          61 -100 callsubr
          -180 84 -105 175 hvcurveto
          65 689 -56 callsubr
        </CharString>
        <CharString name="D">
          49 callsubr
          28 callsubr
          247 108 hintmask 10011100
          162 568 rmoveto
          hintmask 01101100
          -11 callgsubr
          hintmask 10011100
          -41 callgsubr
          endchar
        </CharString>
        <CharString name="Dcaron">
          49 callsubr
          175 -21 28 callsubr
          247 108 hintmask 10011110
          162 568 rmoveto
          hintmask 01101110
          -11 callgsubr
          hintmask 10011110
          -41 callgsubr
          201 711 -79 callgsubr
        </CharString>
        <CharString name="Dcroat">
          -78 callgsubr
        </CharString>
        <CharString name="E">
          -38 callgsubr
          69 callgsubr
          191 49 vstem
          -107 callsubr
          endchar
        </CharString>
        <CharString name="Eacute">
          -38 callgsubr
          69 callgsubr
          191 49 vstem
          -107 callsubr
          6 273 -92 callgsubr
          endchar
        </CharString>
        <CharString name="Ebreve">
          -38 callgsubr
          45 70 69 callgsubr
          191 49 vstem
          -107 callsubr
          7 301 -85 callgsubr
          endchar
        </CharString>
        <CharString name="Ecaron">
          -38 callgsubr
          180 -21 69 callgsubr
          191 49 vstem
          -107 callsubr
          -17 336 -79 callgsubr
        </CharString>
        <CharString name="Ecircumflex">
          -38 callgsubr
          40 callsubr
          113 100 191 49 hintmask 11101110
          -107 callsubr
          -256 181 -83 callgsubr
          rlineto
          hintmask 11110110
          -23 callgsubr
        </CharString>
        <CharString name="Edieresis">
          -38 callgsubr
          50 105 28 callsubr
          -89 103 82 103 -8 49 hintmask 11101001
          -107 callsubr
          hintmask 11110110
          -177 248 -95 callsubr
          endchar
        </CharString>
        <CharString name="Edotaccent">
          -38 callgsubr
          53 115 28 callsubr
          -6 122 75 49 hintmask 11101010
          -107 callsubr
          hintmask 11110110
          -75 255 -56 callsubr
        </CharString>
        <CharString name="Egrave">
          -38 callgsubr
          74 -20 69 callgsubr
          191 49 vstem
          -107 callsubr
          -222 343 -48 callsubr
          endchar
        </CharString>
        <CharString name="Emacron">
          -38 callgsubr
          70 60 28 callsubr
          -74 258 7 49 hintmask 11111010
          -107 callsubr
          -265 215 rmoveto
          hintmask 11110100
          258 60 hlineto
          hintmask 11111010
          -258 hlineto
          endchar
        </CharString>
        <CharString name="Eng">
          176 -186 52 -31 -21 27 -21 180 42 -27 -21 531 43 hstemhm
          113 61 314 60 hintmask 01010111
          548 29 rmoveto
          462 vlineto
          13 7 7 11 2 vhcurveto
          53 12 rlineto
          43 -211 -43 vlineto
          61 -12 52 callgsubr
          -8 -12 vvcurveto
          -340 vlineto
          -273 417 -89 callgsubr
          376 vlineto
          hintmask 10001111
          303 -457 -10 -50 -21 -31 -31 -19 rlinecurve
          -25 -15 -36 -9 -29 -4 rrcurveto
          hintmask 00110111
          3 -46 rlineto
          hintmask 01010111
          -3 19 17 -3 21 hhcurveto
          127 36 88 127 hvcurveto
          endchar
        </CharString>
        <CharString name="Eogonek">
          42 -188 56 132 49 213 57 203 46 69 callgsubr
          73 81 37 49 vstem
          479 -161 rmoveto
          -16 34 callsubr
          -14 hhcurveto
          -29 -21 13 27 38 47 39 57 15 hvcurveto
          9 53 5 51 1 52 -49 7 rcurveline
          -28 -83 -5 -11 -4 -27 callgsubr
          -30 -3 -30 hhcurveto
          -100 215 hlineto
          170 -4 rlineto
          62 vlineto
          -170 -6 rlineto
          206 81 vlineto
          29 27 -3 -5 15 hvcurveto
          12 -5 6 -6 3 -11 18 -69 rcurveline
          49 hlineto
          -95 callgsubr
          354 -2 vlineto
          -56 -21 -49 -41 -52 vvcurveto
          -48 42 -24 58 callgsubr
          endchar
        </CharString>
        <CharString name="Eth">
          -78 callgsubr
        </CharString>
        <CharString name="Euro">
          71 56 callsubr
          hstem
          113 104 vstem
          485 20 rmoveto
          8 43 2 44 -2 37 -55 5 rcurveline
          -24 -69 -4 -11 -5 -7 -8 -6 rlinecurve
          -11 -13 -24 -10 -27 hhcurveto
          -65 -35 48 89 -12 hvcurveto
          149 45 -152 hlineto
          -1 10 0 10 10 vvcurveto
          10 0 10 1 9 vhcurveto
          158 44 -155 hlineto
          101 13 41 44 60 hhcurveto
          24 24 -6 -9 13 hvcurveto
          10 -7 5 -7 3 -15 16 -72 rcurveline
          54 hlineto
          6 47 4 46 -3 40 rrcurveto
          17 -43 -54 9 -44 hhcurveto
          -119 -85 -62 -126 -25 hvcurveto
          -82 -44 76 hlineto
          -1 -12 -1 -13 -14 -7 0 -6 -7 vvcurveto
          -80 -45 85 hlineto
          -118 18 72 -62 126 hhcurveto
          52 61 11 17 38 hvcurveto
          endchar
        </CharString>
        <CharString name="Euro.tf">
          -30 56 callsubr
          hstemhm
          2 168 -106 102 hintmask 11110100
          -1 172 rmoveto
          69 hlineto
          -121 16 67 -59 122 hhcurveto
          48 56 10 17 39 hvcurveto
          7 43 2 46 -3 39 -55 4 rcurveline
          -21 -68 -3 -13 -6 -9 -9 -7 rlinecurve
          -11 -13 -21 -8 -26 hhcurveto
          -57 -31 47 90 -10 hvcurveto
          134 45 -138 hlineto
          9 0 9 10 vvcurveto
          11 0 10 1 10 vhcurveto
          140 44 -137 hlineto
          102 11 38 43 54 hhcurveto
          21 20 -6 -10 12 hvcurveto
          7 -7 4 -7 3 -14 16 -72 rcurveline
          54 hlineto
          7 47 3 46 -2 40 rrcurveto
          18 -41 -51 8 -41 hhcurveto
          hintmask 11111000
          -112 -80 -59 -129 -22 hvcurveto
          -69 -44 hlineto
          hintmask 11110100
          63 hlineto
          -1 -12 0 -13 -14 -7 0 -7 -6 vvcurveto
          -65 hlineto
          endchar
        </CharString>
        <CharString name="F">
          2 0 42 212 57 211 46 69 callgsubr
          191 49 vstem
          383 252 rmoveto
          62 vlineto
          -170 -6 rlineto
          214 81 vlineto
          29 27 -3 -5 15 hvcurveto
          12 -5 6 -6 3 -11 18 -69 rcurveline
          49 hlineto
          -35 callsubr
          -415 -43 hlineto
          58 -82 callgsubr
          -417 vlineto
          -11 -6 -8 -11 -2 vhcurveto
          -59 -11 rlineto
          -42 286 42 vlineto
          -92 12 rlineto
          -10 1 -8 8 10 vvcurveto
          183 vlineto
          endchar
        </CharString>
        <CharString name="G">
          105 -10 -40 callgsubr
          52 callsubr
          hintmask 01111100
          -40 callsubr
          hintmask 10111100
          -94 callgsubr
          hintmask 01111100
          55 -51 rlineto
          endchar
        </CharString>
        <CharString name="Gbreve">
          105 -10 -40 callgsubr
          35 70 52 callsubr
          hintmask 01111110
          -40 callsubr
          hintmask 10111110
          -94 callgsubr
          hintmask 01111110
          55 -51 rlineto
          -28 729 -85 callgsubr
          endchar
        </CharString>
        <CharString name="Gcircumflex">
          105 -10 -40 callgsubr
          58 -20 23 -20 52 callsubr
          hintmask 01110111
          -40 callsubr
          hintmask 10110111
          -94 callgsubr
          hintmask 01110111
          55 -51 rlineto
          -291 609 -83 callgsubr
          rlineto
          hintmask 01111011
          -23 callgsubr
        </CharString>
        <CharString name="Gcommaaccent">
          105 -171 -21 182 -40 callgsubr
          hstemhm
          42 115 126 70 59 97 hintmask 10111101
          -40 callsubr
          hintmask 11011101
          -94 callgsubr
          hintmask 10111111
          55 -51 rlineto
          -135 -104 -104 callgsubr
        </CharString>
        <CharString name="Gdotaccent">
          105 -10 -40 callgsubr
          43 115 hstemhm
          42 115 99 122 34 97 hintmask 01110101
          -40 callsubr
          hintmask 10110101
          -94 callgsubr
          hintmask 01111111
          55 -51 rlineto
          -110 683 -56 callsubr
        </CharString>
        <CharString name="H">
          61 callsubr
          69 callgsubr
          245 100 vstem
          -71 callgsubr
          endchar
        </CharString>
        <CharString name="Hbar">
          197 0 42 204 53 77 44 105 43 hstem
          114 100 244 100 vstem
          41 376 rmoveto
          73 -301 hlineto
          -12 -6 -8 -13 -2 vhcurveto
          -57 -11 rlineto
          -42 245 42 vlineto
          -51 -44 callgsubr
          171 244 -171 -73 callsubr
          -11 -2 vhcurveto
          -48 -11 rlineto
          -42 241 42 vlineto
          -57 11 -54 callgsubr
          8 12 vvcurveto
          301 73 44 -73 71 vlineto
          12 7 8 12 2 vhcurveto
          57 12 rlineto
          43 -240 -43 vlineto
          47 -12 rlineto
          11 -3 12 callsubr
          -71 -244 71 vlineto
          13 5 7 12 2 vhcurveto
          51 12 rlineto
          43 -244 -43 vlineto
          58 -82 callgsubr
          -71 -73 vlineto
          173 -121 rmoveto
          77 244 -77 vlineto
          endchar
        </CharString>
        <CharString name="Hcircumflex">
          61 callsubr
          40 callsubr
          113 100 245 100 hintmask 11101110
          -71 callgsubr
          -417 79 -83 callgsubr
          rlineto
          hintmask 11110110
          -23 callgsubr
        </CharString>
        <CharString name="I">
          -148 -6 callgsubr
          -86 callsubr
          endchar
        </CharString>
        <CharString name="IJ">
          147 -6 callgsubr
          69 callgsubr
          208 100 vstem
          -104 callsubr
          250 -12 -88 callgsubr
          endchar
        </CharString>
        <CharString name="Iacute">
          -148 -6 callgsubr
          -86 callsubr
          16 171 -92 callgsubr
          endchar
        </CharString>
        <CharString name="Iacute_J.NLD">
          157 -6 callgsubr
          69 callgsubr
          219 100 vstem
          -104 callsubr
          16 171 -92 callgsubr
          245 -183 -88 callgsubr
          69 183 -92 callgsubr
          endchar
        </CharString>
        <CharString name="Ibreve">
          -148 -6 callgsubr
          45 70 -86 callsubr
          17 199 -85 callgsubr
          endchar
        </CharString>
        <CharString name="Icircumflex">
          -148 -6 callgsubr
          40 callsubr
          113 100 hintmask 11011000
          -104 callsubr
          -246 79 -83 callgsubr
          rlineto
          hintmask 11101000
          -23 callgsubr
        </CharString>
        <CharString name="Idieresis">
          -148 -6 callgsubr
          50 105 hstemhm
          19 103 -9 100 -9 103 hintmask 11110100
          289 568 rmoveto
          -252 -43 hlineto
          hintmask 11101000
          -103 callsubr
          hintmask 11110100
          -59 callsubr
          252 42 vlineto
          hintmask 11101000
          -57 11 43 callsubr
          8 12 vvcurveto
          416 vlineto
          13 6 7 13 2 vhcurveto
          hintmask 11110100
          57 12 rlineto
          -167 146 -95 callsubr
          endchar
        </CharString>
        <CharString name="Idotaccent">
          -148 -6 callgsubr
          53 115 hstemhm
          102 122 -111 100 hintmask 11101000
          -104 callsubr
          hintmask 11110000
          -65 153 -56 callsubr
        </CharString>
        <CharString name="Igrave">
          -148 -6 callgsubr
          74 -20 -86 callsubr
          -212 241 -48 callsubr
          endchar
        </CharString>
        <CharString name="Imacron">
          -148 -6 callgsubr
          70 60 -86 callsubr
          -255 113 19 callgsubr
          endchar
        </CharString>
        <CharString name="Iogonek">
          -148 -188 56 132 42 483 43 hstemhm
          63 80 -30 100 hintmask 11101000
          256 -161 rmoveto
          hintmask 11110000
          -16 34 callsubr
          -15 hhcurveto
          -28 -22 13 27 36 36 36 51 20 hvcurveto
          hintmask 11101000
          59 42 hlineto
          -57 11 43 callsubr
          8 12 vvcurveto
          416 vlineto
          13 6 7 13 2 vhcurveto
          57 12 rlineto
          43 -252 -43 vlineto
          -103 callsubr
          hintmask 11110000
          -59 callsubr
          125 -2 vlineto
          -51 -21 -48 -41 -52 vvcurveto
          -49 42 -23 53 vhcurveto
          hintmask 11101000
          34 38 10 17 26 hvcurveto
          endchar
        </CharString>
        <CharString name="Itilde">
          -148 -6 callgsubr
          48 36 callgsubr
          113 100 hintmask 11010100
          -104 callsubr
          hintmask 11100100
          34 187 -17 callgsubr
          hintmask 11011100
          -62 callsubr
          hintmask 11100100
          37 33 -50 55 hhcurveto
          53 38 48 48 13 hvcurveto
          endchar
        </CharString>
        <CharString name="J">
          -169 525 43 hstem
          105 100 vstem
          223 513 -88 callgsubr
          endchar
        </CharString>
        <CharString name="Jacute">
          -169 525 43 hstem
          105 100 vstem
          223 513 -88 callgsubr
          71 183 -92 callgsubr
          endchar
        </CharString>
        <CharString name="Jcircumflex">
          -169 525 43 40 callsubr
          105 100 hintmask 10110000
          223 513 -88 callgsubr
          -191 91 -83 callgsubr
          rlineto
          hintmask 11010000
          -23 callgsubr
        </CharString>
        <CharString name="K">
          113 0 42 470 -20 33 43 28 callsubr
          148.5 205.5 hintmask 10111000
          -49 callsubr
          hintmask 11111000
          65 -13 -214 -250 rlineto
          hintmask 10111000
          -21 callsubr
          endchar
        </CharString>
        <CharString name="Kcommaaccent">
          113 19 callsubr
          42 470 -20 33 43 28 callsubr
          101 70 -22.5 205.5 hintmask 11011010
          -49 callsubr
          hintmask 11111010
          65 -13 -214 -250 rlineto
          hintmask 11011100
          -21 callsubr
          347 -109 -104 callgsubr
        </CharString>
        <CharString name="L">
          28 0 50 475 43 69 callgsubr
          -96 callsubr
          endchar
        </CharString>
        <CharString name="Lacute">
          28 0 50 475 43 69 callgsubr
          -96 callsubr
          -91 510 -92 callgsubr
          endchar
        </CharString>
        <CharString name="Lcaron">
          29 0 50 475 43 69 callgsubr
          -96 callsubr
          -48 207 -31 callsubr
        </CharString>
        <CharString name="Lcommaaccent">
          28 19 callsubr
          50 475 43 69 callgsubr
          52 70 -96 callsubr
          -98 -295 -104 callgsubr
        </CharString>
        <CharString name="Ldot">
          31 0 50 212 115 148 43 69 callgsubr
          133 121 -96 callsubr
          34 133 rmoveto
          -42 callsubr
        </CharString>
        <CharString name="Lslash">
          29 0 50 475 43 hstem
          114 100 vstem
          37 193 rmoveto
          77 31 rlineto
          -150 vlineto
          -12 -6 -7 -32 callgsubr
          431 vlineto
          12 59 2 65 1 55 -50 7 rcurveline
          -33 -105 -4 -12 -7 -6 -11 -4 rlinecurve
          -6 -15 -27 -3 -33 hhcurveto
          -90 210 hlineto
          154 63 rlineto
          57 vlineto
          -154 -66 rlineto
          177 vlineto
          12 7 8 12 2 vhcurveto
          75 12 rlineto
          43 -270 -43 vlineto
          58 -11 rlineto
          12 -3 12 callsubr
          -214 vlineto
          -77 -31 rlineto
          endchar
        </CharString>
        <CharString name="M">
          332 0 42 450 76 -43 43 hstemhm
          20 211 -211 773 -239 239 hintmask 10101000
          654 490 rmoveto
          -2 13 6 8 13 2 66 12 rcurveline
          43 -220 vlineto
          -110 -412 -124 412 rlineto
          -220 -43 hlineto
          65 -12 12 -2 6 -8 -1 -13 rlinecurve
          hintmask 11010100
          -51 -415 -1 -12 -6 -7 -11 -3 rlinecurve
          -56 -11 rlineto
          -42 211 42 vlineto
          -76 12 49 437 150 -468 rlineto
          75 hlineto
          126 469 66 -438 -67 -12 rlineto
          -42 239 42 vlineto
          -54 11 -11 3 -7 7 -2 11 rlinecurve
          endchar
        </CharString>
        <CharString name="N">
          176 -6 callgsubr
          hstem
          113 61 314 60 vstem
          -98 callgsubr
          endchar
        </CharString>
        <CharString name="Nacute">
          176 -6 callgsubr
          hstem
          113 61 314 60 vstem
          -98 callgsubr
          -99 183 -92 callgsubr
          endchar
        </CharString>
        <CharString name="Ncaron">
          176 -6 callgsubr
          180 -21 hstem
          113 61 314 60 vstem
          -98 callgsubr
          -122 246 -79 callgsubr
        </CharString>
        <CharString name="Ncommaaccent">
          176 19 callsubr
          42 483 43 hstem
          113 61 157 70 87 60 vstem
          -98 callgsubr
          -165 -622 -104 callgsubr
        </CharString>
        <CharString name="Ntilde">
          176 -6 callgsubr
          48 36 callgsubr
          113 61 314 60 hintmask 11010110
          -98 callgsubr
          hintmask 11100110
          -81 199 -61 callgsubr
        </CharString>
        <CharString name="O">
          1 callgsubr
          hstem
          0 callsubr
          vstem
          -103 callgsubr
          endchar
        </CharString>
        <CharString name="OE">
          305 -8 44 -36 49 213 57 203 46 -37 43 hstemhm
          42 109 226 100 190 48 hintmask 10101110
          298 36 rmoveto
          -98 -49 78 168 173 51 76 99 26 26 -6 -15 24 hvcurveto
          -451 vlineto
          -17 -24 -27 -6 -28 hhcurveto
          hintmask 01110111
          436 -36 rmoveto
          9 53 5 51 1 52 -49 7 rcurveline
          -28 -83 -4 -11 -5 -7 -11 -4 rlinecurve
          -6 -15 -31 -3 -29 hhcurveto
          -100 215 hlineto
          170 -4 rlineto
          62 vlineto
          -170 -6 rlineto
          206 80 vlineto
          29 27 -3 -5 15 hvcurveto
          11 -4 7 -6 3 -12 18 -69 rcurveline
          48 hlineto
          5 51 0 47 -5 47 rrcurveto
          -338 hlineto
          hintmask 10101110
          4 -25 -25 2 -23 hhcurveto
          -164 -98 -106 -195 -182 82 -99 166 30 29 3 6 28 hvcurveto
          -1 vlineto
          endchar
        </CharString>
        <CharString name="Oacute">
          1 callgsubr
          hstem
          0 callsubr
          vstem
          -103 callgsubr
          142 165 -92 callgsubr
          endchar
        </CharString>
        <CharString name="Obreve">
          1 callgsubr
          35 70 hstem
          0 callsubr
          vstem
          -103 callgsubr
          143 193 -85 callgsubr
          endchar
        </CharString>
        <CharString name="Ocircumflex">
          1 callgsubr
          58 -4 callgsubr
          0 callsubr
          hintmask 11011100
          -103 callgsubr
          -120 73 -83 callgsubr
          rlineto
          hintmask 11101100
          -23 callgsubr
        </CharString>
        <CharString name="Odieresis">
          1 callgsubr
          40 105 hstemhm
          42 110 -4 103 82 103 -6 111 hintmask 11010010
          -103 callgsubr
          hintmask 11101100
          -41 140 -95 callsubr
          endchar
        </CharString>
        <CharString name="Ograve">
          1 callgsubr
          64 -20 hstem
          0 callsubr
          vstem
          -103 callgsubr
          -86 235 -48 callsubr
          endchar
        </CharString>
        <CharString name="Ohungarumlaut">
          1 callgsubr
          hstem
          0 callsubr
          vstem
          -103 callgsubr
          -100 68 -48 callgsubr
        </CharString>
        <CharString name="Omacron">
          1 callgsubr
          60 60 hstemhm
          42 110 11 258 9 111 hintmask 11110100
          -103 callgsubr
          hintmask 11111100
          -129 107 19 callgsubr
          endchar
        </CharString>
        <CharString name="Oslash">
          107 -10 46 496 46 hstem
          40 105 289 105 vstem
          539 294 rmoveto
          111 -31 84 -64 47 vhcurveto
          34 67 -47 25 -34 -67 rlineto
          11 -28 -33 6 -37 hhcurveto
          -161 -98 -109 -195 -112 32 -85 66 -46 hvcurveto
          -41 -80 48 -25 40 80 rlineto
          -11 28 31 -5 36 hhcurveto
          162 97 111 193 hvcurveto
          -394 -12 rmoveto
          175 52 75 94 33 27 -9 -18 21 vhcurveto
          -194 -405 rlineto
          -22 40 -11 60 82 vvcurveto
          143 -246 rmoveto
          -32 -26 9 17 -21 hvcurveto
          193 403 rlineto
          22 -40 10 -59 -79 vvcurveto
          -174 -53 -77 -93 vhcurveto
          endchar
        </CharString>
        <CharString name="Otilde">
          1 callgsubr
          38 36 callgsubr
          0 callsubr
          hintmask 11010110
          -103 callgsubr
          hintmask 11100110
          160 181 -61 callgsubr
        </CharString>
        <CharString name="P">
          45 0 42 170 45 272 39 -39 44 28 callsubr
          179 103 hintmask 11101100
          213 525 rmoveto
          16 15 4 31 hhcurveto
          78 39 -34 -87 -116 -54 -35 -63 -25 -17 1 2 -20 hvcurveto
          107 -218 rmoveto
          -89 12 rlineto
          -10 1 -8 8 10 vvcurveto
          142 vlineto
          -2 21 21 -1 22 hhcurveto
          133 85 73 125 hvcurveto
          hintmask 11011100
          104 -47 58 -156 1 vhcurveto
          hintmask 11101100
          -60 -27 -5 -41 hhcurveto
          -127 -43 hlineto
          61 -12 rlineto
          9 -3 6 -8 -9 vvcurveto
          -420 vlineto
          -10 -6 -8 -11 -2 vhcurveto
          -59 -11 rlineto
          -42 283 vlineto
          endchar
        </CharString>
        <CharString name="Q">
          107 -152 71 83 36 -15 -21 529 47 hstemhm
          42 109 280 110 hintmask 10111100
          500 -152 rmoveto
          43 40 20 17 17 hvcurveto
          -10 37 rlineto
          -2 -10 -13 -1 -14 hhcurveto
          -44 -33 19 25 -37 hvcurveto
          -24 16 -21 13 -27 10 rrcurveto
          109 34 65 104 154 vvcurveto
          174 -78 110 -162 -161 -98 -111 -193 -172 76 -109 158 -3 vhcurveto
          -39 83 34 -103 107 hhcurveto
          -208 683 rmoveto
          93 46 -78 -166 hvcurveto
          hintmask 11011100
          -173 -51 -76 -91 -92 -46 78 166 vhcurveto
          hintmask 10111100
          173 51 76 90 vhcurveto
          endchar
        </CharString>
        <CharString name="R">
          104 0 8 callsubr
          179 106 hintmask 11011100
          -2 callgsubr
          hintmask 11101100
          233 vlineto
          hintmask 11011100
          -94 callsubr
          hintmask 11101100
          -63 callsubr
          endchar
        </CharString>
        <CharString name="Racute">
          104 0 8 callsubr
          179 106 hintmask 11011100
          -2 callgsubr
          hintmask 11101100
          233 vlineto
          hintmask 11011100
          -94 callsubr
          hintmask 11101100
          -63 callsubr
          382 696 -92 callgsubr
          endchar
        </CharString>
        <CharString name="Rcaron">
          104 0 42 205 43 239 39 -39 44 175 -21 28 callsubr
          179 106 hintmask 11011110
          -2 callgsubr
          hintmask 11101110
          233 vlineto
          hintmask 11011110
          -94 callsubr
          hintmask 11101110
          -63 callsubr
          359 759 -79 callgsubr
        </CharString>
        <CharString name="Rcommaaccent">
          104 19 callsubr
          8 callsubr
          95 70 14 106 hintmask 11101101
          -2 callgsubr
          hintmask 11110101
          233 vlineto
          hintmask 11101101
          -94 callsubr
          hintmask 11110111
          -63 callsubr
          341 -109 -104 callgsubr
        </CharString>
        <CharString name="S">
          -4 -12 45 502 43 hstem
          54 94 184 101 vstem
          -102 callsubr
          -7 -45 -4 -54 3 -49 rrcurveto
          -23 41 65 -23 76 hhcurveto
          145 59 85 82 hvcurveto
          endchar
        </CharString>
        <CharString name="Sacute">
          -4 -12 45 502 43 hstem
          54 94 184 101 vstem
          -102 callsubr
          -7 -45 -4 -54 3 -49 rrcurveto
          -23 41 65 -23 76 hhcurveto
          145 59 85 82 hvcurveto
          -50 541 -92 callgsubr
          endchar
        </CharString>
        <CharString name="Scaron">
          -4 -12 45 502 43 170 -21 hstem
          54 94 184 101 vstem
          -102 callsubr
          -7 -45 -4 -54 3 -49 rrcurveto
          -23 41 65 -23 76 hhcurveto
          145 59 85 82 hvcurveto
          -73 604 -79 callgsubr
        </CharString>
        <CharString name="Scedilla">
          -4 38 callsubr
          20 45 502 43 hstemhm
          54 94 76 81 27 101 hintmask 10111010
          -102 callsubr
          hintmask 11111110
          -7 -45 -4 -54 3 -49 35 -20 52 -19 61 -5 -18 -56 rcurveline
          -92 callsubr
          hintmask 10111110
          6 20 rlineto
          hintmask 10111010
          141 59 85 82 hvcurveto
          endchar
        </CharString>
        <CharString name="Scircumflex">
          -4 -12 45 502 43 58 -4 callgsubr
          54 94 184 101 hintmask 11011100
          -102 callsubr
          -7 -45 -4 -54 3 -49 rrcurveto
          -23 41 65 -23 76 hhcurveto
          145 59 85 82 hvcurveto
          -312 449 -83 callgsubr
          rlineto
          hintmask 11101100
          -23 callgsubr
        </CharString>
        <CharString name="Scommaaccent">
          -4 -171 -21 180 45 502 43 hstem
          54 94 63 70 51 101 vstem
          -102 callsubr
          -7 -45 -4 -54 3 -49 rrcurveto
          -23 41 65 -23 76 hhcurveto
          145 59 85 82 hvcurveto
          -152 -264 -104 callgsubr
        </CharString>
        <CharString name="T">
          87 0 42 341 6 callsubr
          150 51 hintmask 10101100
          -60 callgsubr
          hintmask 11001100
          37 callgsubr
          hintmask 10111100
          -8 callsubr
          hintmask 11011100
          -1 callgsubr
          hintmask 10101100
          -58 callsubr
          endchar
        </CharString>
        <CharString name="Tbar">
          87 0 42 192 50 99 6 callsubr
          150 51 hintmask 11010110
          138 234 rmoveto
          94 -157 hlineto
          -13 -7 -6 -12 -2 vhcurveto
          -86 -14 rlineto
          -42 308 42 vlineto
          -85 14 -54 callgsubr
          6 13 vvcurveto
          157 93 50 -93 238 39 vlineto
          29 24 -3 -4 13 hvcurveto
          10 -4 6 -6 2 -11 rrcurveto
          hintmask 11100110
          37 callgsubr
          hintmask 11011110
          -8 callsubr
          hintmask 11101110
          -1 callgsubr
          hintmask 11010110
          26 110 3 12 5 6 11 4 rlinecurve
          4 13 26 3 28 hhcurveto
          39 -238 -94 hlineto
          endchar
        </CharString>
        <CharString name="Tcaron">
          87 0 42 341 185 -46 46 180 -21 hstemhm
          26 55 151 99 150 51 hintmask 10110110
          -60 callgsubr
          hintmask 11010110
          37 callgsubr
          hintmask 10111110
          -8 callsubr
          hintmask 11011110
          -1 callgsubr
          hintmask 10110110
          -58 callsubr
          274 759 -79 callgsubr
        </CharString>
        <CharString name="Thorn">
          43 0 42 78 43 238 47 77 43 hstem
          110 99 174 106 vstem
          288 hmoveto
          42 vlineto
          -61 -44 callgsubr
          49 vlineto
          -3 26 24 -1 36 hhcurveto
          124 70 54 119 106 -59 49 -114 -35 -35 -3 -4 -37 hvcurveto
          50 vlineto
          13 6 7 12 2 vhcurveto
          61 12 rlineto
          43 -247 -43 vlineto
          51 -101 callgsubr
          -51 -11 rlineto
          -42 vlineto
          240 163 rmoveto
          -23 -23 2 3 -26 hvcurveto
          229 vlineto
          3 22 23 1 23 hhcurveto
          79 1 27 -44 -69 vvcurveto
          -92 -40 -34 -62 vhcurveto
          endchar
        </CharString>
        <CharString name="U">
          145 -8 45 488 43 hstem
          92 103 264 67 vstem
          -106 callsubr
          endchar
        </CharString>
        <CharString name="Uacute">
          0 callgsubr
          hstem
          92 103 264 67 vstem
          -106 callsubr
          -126 128 -92 callgsubr
          endchar
        </CharString>
        <CharString name="Ubreve">
          0 callgsubr
          45 70 hstem
          92 103 264 67 vstem
          -106 callsubr
          -125 156 -85 callgsubr
          endchar
        </CharString>
        <CharString name="Ucircumflex">
          0 callgsubr
          40 callsubr
          92 103 264 67 hintmask 11011100
          -106 callsubr
          -388 36 -83 callgsubr
          rlineto
          hintmask 11101100
          -23 callgsubr
        </CharString>
        <CharString name="Udieresis">
          0 callgsubr
          50 105 hstemhm
          92 103 -21 103 82 103 -3 67 hintmask 11110010
          -106 callsubr
          hintmask 11101100
          -309 103 -95 callsubr
          endchar
        </CharString>
        <CharString name="Ugrave">
          0 callgsubr
          74 -20 hstem
          92 103 264 67 vstem
          -106 callsubr
          -354 198 -48 callsubr
          endchar
        </CharString>
        <CharString name="Uhungarumlaut">
          0 callgsubr
          hstem
          92 103 264 67 vstem
          -106 callsubr
          -368 31 -48 callgsubr
        </CharString>
        <CharString name="Umacron">
          0 callgsubr
          70 60 hstemhm
          92 103 -6 87 103 68 12 67 hintmask 11110110
          379 568 rmoveto
          -43 vlineto
          hintmask 11110010
          63 -12 rlineto
          12 -2 5 -7 -13 vvcurveto
          -286 vlineto
          -105 -36 -63 -97 -85 -46 51 120 10 callsubr
          7 9 11 2 vhcurveto
          hintmask 11101010
          63 12 rlineto
          43 vlineto
          hintmask 11110010
          -241 -43 hlineto
          40 -11 rlineto
          11 -3 12 callsubr
          -275 vlineto
          -154 69 -71 148 135 82 63 155 vhcurveto
          -71 callsubr
          vlineto
          hintmask 11101110
          -397 70 19 callgsubr
          endchar
        </CharString>
        <CharString name="Uogonek">
          144 -188 56 124 45 488 43 hstem
          92 103 60 80 124 67 vstem
          255 -116 rmoveto
          -48 42 -24 58 callgsubr
          -16 39 rlineto
          -7 -15 -18 -3 -14 hhcurveto
          -29 -21 12 28 38 43 34 68 45 hvcurveto
          52 33 28 62 90 vvcurveto
          -71 callsubr
          -207 -43 vlineto
          63 -12 rlineto
          12 -2 5 -7 -13 vvcurveto
          -286 vlineto
          -105 -36 -63 -97 -85 -46 51 120 10 callsubr
          7 9 11 2 vhcurveto
          63 12 rlineto
          43 -241 -43 vlineto
          40 -11 rlineto
          11 -3 12 callsubr
          -275 vlineto
          -154 69 -71 148 14 13 1 1 13 vhcurveto
          -2 vlineto
          -43 -20 -51 -36 -52 vvcurveto
          endchar
        </CharString>
        <CharString name="Uring">
          0 callgsubr
          29 43 96 42 hstemhm
          92 103 18 59 92 59 36 67 hintmask 11011011
          -106 callsubr
          hintmask 11111111
          -163 120 -29 callgsubr
        </CharString>
        <CharString name="Utilde">
          0 callgsubr
          48 36 callgsubr
          92 103 264 67 hintmask 11010110
          -106 callsubr
          hintmask 11100110
          -108 144 -61 callgsubr
        </CharString>
        <CharString name="V">
          94 -2 93 -72 -21 513 -20 34 43 hstemhm
          -5 238 -238 573 -198 198 hintmask 01010100
          245 -2 rmoveto
          90 hlineto
          hintmask 10011010
          166 497 4 11 7 5 10 2 rlinecurve
          46 12 rlineto
          43 -198 -43 vlineto
          73 -14 -134 -420 rlineto
          hintmask 01111000
          -149 420 rlineto
          hintmask 01011000
          73 14 rlineto
          43 -238 -43 vlineto
          44 -12 10 -2 7 -5 4 -11 rlinecurve
          endchar
        </CharString>
        <CharString name="W">
          -73 callgsubr
          endchar
        </CharString>
        <CharString name="Wacute">
          -73 callgsubr
          142 334 -92 callgsubr
          endchar
        </CharString>
        <CharString name="Wcircumflex">
          -10 callgsubr
          68 -20 23 -20 5 callsubr
          hintmask 0101011110000000
          -70 callsubr
          hintmask 1011011110000000
          -1 callsubr
          hintmask 1001011110000000
          -54 callsubr
          hintmask 0111011110000000
          -120 420 rlineto
          hintmask 0101011110000000
          -69 callgsubr
          -120 242 -83 callgsubr
          rlineto
          hintmask 0101101110000000
          -23 callgsubr
        </CharString>
        <CharString name="Wdieresis">
          -10 callgsubr
          50 105 hstemhm
          -2 234 38 103 -58 228 -88 103 72 194 hintmask 0101111011000000
          -70 callsubr
          hintmask 1011110101000000
          -1 callsubr
          hintmask 1001110101000000
          -54 callsubr
          hintmask 0111111011000000
          -120 420 rlineto
          hintmask 0101111011000000
          -69 callgsubr
          -41 309 -95 callsubr
          endchar
        </CharString>
        <CharString name="Wgrave">
          -10 callgsubr
          74 -20 5 callsubr
          hintmask 01011111
          -70 callsubr
          hintmask 10111111
          -1 callsubr
          hintmask 10011111
          -54 callsubr
          hintmask 01111111
          -120 420 rlineto
          hintmask 01011111
          -69 callgsubr
          -86 404 -48 callsubr
          endchar
        </CharString>
        <CharString name="X">
          78 0 42 470 -20 33 43 hstemhm
          8 205 -194 238 50 239 -205 190 hintmask 10110100
          546 hmoveto
          42 vlineto
          -42 11 -10 2 -7 4 -6 9 rlinecurve
          -156 236 rlineto
          hintmask 10110010
          137 194 6 9 7 4 9 2 rlinecurve
          47 12 rlineto
          43 -190 -43 vlineto
          hintmask 11101010
          65 -13 -111 -169 -104 169 rlineto
          hintmask 10101010
          66 13 rlineto
          43 -238 -43 vlineto
          42 -12 10 -3 6 -4 6 -9 rlinecurve
          144 -221 rlineto
          hintmask 10110100
          -145 -208 -7 -9 -5 -4 -10 -2 rlinecurve
          -52 -11 rlineto
          -42 205 42 vlineto
          -73 12 118 181 114 -181 -65 -12 rlineto
          -42 vlineto
          endchar
        </CharString>
        <CharString name="Y">
          -70 callgsubr
          endchar
        </CharString>
        <CharString name="Yacute">
          -70 callgsubr
          282 696 -92 callgsubr
          endchar
        </CharString>
        <CharString name="Ycircumflex">
          9 callsubr
          40 callsubr
          -5 241 -14 102 18 192 hintmask 10101010
          -36 callsubr
          hintmask 10101101
          -67 callgsubr
          hintmask 11101100
          -123 226 rlineto
          hintmask 10101100
          -45 callgsubr
          hintmask 10101010
          -52 callgsubr
          20 604 -83 callgsubr
          rlineto
          hintmask 10110010
          -23 callgsubr
        </CharString>
        <CharString name="Ydieresis">
          9 callsubr
          50 105 hstemhm
          -5 241 -106 103 -11 102 -9 103 -76 192 hintmask 1011001000000000
          -36 callsubr
          hintmask 1011100010000000
          -67 callgsubr
          hintmask 1111100000000000
          -123 226 rlineto
          hintmask 1011100000000000
          -45 callgsubr
          hintmask 1011001000000000
          -52 callgsubr
          hintmask 1011010100000000
          99 671 -95 callsubr
          endchar
        </CharString>
        <CharString name="Ygrave">
          9 callsubr
          74 -20 hstemhm
          -5 241 -14 102 18 192 hintmask 10110100
          -36 callsubr
          hintmask 10111010
          -67 callgsubr
          hintmask 11111000
          -123 226 rlineto
          hintmask 10111000
          -45 callgsubr
          hintmask 10110100
          -52 callgsubr
          54 766 -48 callsubr
          endchar
        </CharString>
        <CharString name="Z">
          -64 callsubr
          endchar
        </CharString>
        <CharString name="Zacute">
          -64 callsubr
          365 696 -92 callgsubr
          endchar
        </CharString>
        <CharString name="Zcaron">
          30 0 50 348 171 -47 47 179 -21 hstemhm
          23 441 hintmask 10111000
          -74 callsubr
          hintmask 11011000
          -9 -54 -4 -62 3 -55 rrcurveto
          55 hlineto
          hintmask 10111000
          -49 callgsubr
          342 759 -79 callgsubr
        </CharString>
        <CharString name="Zdotaccent">
          30 0 50 348 171 -47 47 52 115 hstemhm
          206 122 hintmask 10101000
          -74 callsubr
          hintmask 11001000
          -9 -54 -4 -62 3 -55 rrcurveto
          55 hlineto
          hintmask 10111000
          -49 callgsubr
          284 678 -56 callsubr
        </CharString>
        <CharString name="__periodcentered.CAT">
          -391 216 114 hstem
          -21 121 vstem
          100 273 13 callgsubr
        </CharString>
        <CharString name="__periodcentered.CAT.case">
          -472 262 114 hstem
          -153 120 vstem
          -33 319 21 callgsubr
          endchar
        </CharString>
        <CharString name="a">
          -76 callgsubr
          32 callsubr
          hintmask 10111100
          -99 callgsubr
          hintmask 01111100
          -101 callsubr
          hintmask 10111100
          13 callsubr
          endchar
        </CharString>
        <CharString name="aacute">
          -76 callgsubr
          224 -20 32 callsubr
          hintmask 10111110
          -99 callgsubr
          hintmask 01111110
          -101 callsubr
          hintmask 10111110
          13 callsubr
          29 465 -91 callgsubr
        </CharString>
        <CharString name="abreve">
          -76 callgsubr
          49 69 32 callsubr
          hintmask 10111110
          -99 callgsubr
          hintmask 01111110
          -101 callsubr
          hintmask 10111110
          13 callsubr
          205 594 -87 callgsubr
        </CharString>
        <CharString name="acircumflex">
          -76 callgsubr
          212 -20 32 callsubr
          hintmask 10111110
          -99 callgsubr
          hintmask 01111110
          -101 callsubr
          hintmask 10111110
          13 callsubr
          -46 466 -80 callgsubr
        </CharString>
        <CharString name="acute">
          -111 647 -20 hstem
          120 196 vstem
          147 457 -91 callgsubr
        </CharString>
        <CharString name="acutecomb">
          647 -20 hstem
          -62 196 vstem
          -35 457 -91 callgsubr
        </CharString>
        <CharString name="acutecomb.case">
          607 155 hstem
          -84 226 vstem
          142 696 -92 callgsubr
          endchar
        </CharString>
        <CharString name="adieresis">
          -76 callgsubr
          59 105 hstemhm
          32 100 -53 103 64 102 -76 94 hintmask 1011110010000000
          -99 callgsubr
          hintmask 0111110010000000
          -101 callsubr
          hintmask 1011110010000000
          13 callsubr
          hintmask 1011101100000000
          32 542 -93 callgsubr
        </CharString>
        <CharString name="ae">
          11 callsubr
          45 callgsubr
          95 164 92 hintmask 1001011110000000
          -22 callgsubr
          hintmask 0111101110000000
          -34 callgsubr
          hintmask 1001011110000000
          -46 29 49 -27 71 hhcurveto
          79 66 37 63 -26 callgsubr
          32 31 45 hhcurveto
          hintmask 0111011110000000
          -6 callsubr
          endchar
        </CharString>
        <CharString name="agrave">
          -76 callgsubr
          224 -20 32 callsubr
          hintmask 10111110
          -99 callgsubr
          hintmask 01111110
          -101 callsubr
          hintmask 10111110
          13 callsubr
          8 655 -68 callsubr
        </CharString>
        <CharString name="amacron">
          -76 callgsubr
          71 61 hstemhm
          32 100 -44 251 -67 94 hintmask 10111101
          -99 callgsubr
          hintmask 01111101
          -101 callsubr
          hintmask 10111101
          13 callsubr
          hintmask 10111010
          -62 502 -8 callgsubr
        </CharString>
        <CharString name="ampersand">
          117 -10 47 -43 58 219 43 227 36 hstemhm
          37 89 -38 90 127 83 -22 191 hintmask 10110110
          178 455 rmoveto
          48 24 38 44 40 19 -34 -47 -52 -27 -46 -44 -35 vhcurveto
          -46 62 -10 34 32 vvcurveto
          63 -418 rmoveto
          hintmask 10111010
          -73 -42 45 65 48 24 28 27 23 hvcurveto
          38 -48 65 -80 57 -53 rrcurveto
          hintmask 10110110
          -20 -30 -34 -8 -32 hhcurveto
          hintmask 01111001
          316 234 rmoveto
          43 -191 -43 vlineto
          57 -12 rlineto
          13 -3 2 -10 -10 vvcurveto
          -34 -7 -43 -23 -34 vhcurveto
          -50 50 -59 68 -42 54 rrcurveto
          hintmask 01110110
          84 33 47 53 71 vvcurveto
          77 -53 46 -87 -100 -60 -61 -81 -51 24 -47 39 -56 vhcurveto
          hintmask 10111010
          -54 -20 -60 -40 -87 vvcurveto
          -100 80 -44 101 54 57 14 32 41 vhcurveto
          hintmask 01111001
          -31 39 31 -11 33 hhcurveto
          28 31 7 8 23 hvcurveto
          43 vlineto
          -56 -21 5 40 -42 hvcurveto
          42 40 17 48 9 52 2 13 2 5 12 4 rrcurveto
          endchar
        </CharString>
        <CharString name="aogonek">
          -31 -188 56 124 58 -33 -21 175.5 41.5 143 67 hstemhm
          32 100 94 80 -34 94 hintmask 11011001
          417 -161 rmoveto
          hintmask 11011010
          -15 34 callsubr
          -15 hhcurveto
          -28 -21 13 27 35 35 34 48 21 hvcurveto
          hintmask 11011101
          15 3 14 4 8 2 rrcurveto
          -101 callsubr
          13 callsubr
          hintmask 11011010
          51 46 20 33 30 hvcurveto
          hintmask 10111010
          8 -26 17 -16 23 -7 rrcurveto
          -50 65 callgsubr
          hintmask 11011001
          34 38 10 17 25 hvcurveto
          hintmask 11011101
          -230 211 rmoveto
          -38 -17 19 34 40 26 23 55 3 hvcurveto
          59 5 rlineto
          -94 vlineto
          -19 -22 -32 -11 -31 hhcurveto
          endchar
        </CharString>
        <CharString name="approxequal">
          3 87 71 -21 70 33 71 -21 70 hstemhm
          52 372 hintmask 10011000
          424 178 rmoveto
          -30 24 rlineto
          -25 -19 -26 -19 -29 hhcurveto
          hintmask 01011000
          -14 callsubr
          hintmask 10011000
          18 callgsubr
          hintmask 01101000
          153 vmoveto
          -30 24 rlineto
          -25 -19 -26 -19 -29 hhcurveto
          hintmask 01011000
          -14 callsubr
          hintmask 01101000
          18 callgsubr
          endchar
        </CharString>
        <CharString name="aring">
          -76 callgsubr
          42 41 93 42 hstemhm
          32 100 -20 58 88 58 -44 94 hintmask 1011111001000000
          -99 callgsubr
          hintmask 0111111001000000
          -101 callsubr
          hintmask 1011111001000000
          13 callsubr
          hintmask 1011110110000000
          166 561 -78 callsubr
        </CharString>
        <CharString name="asciicircum">
          -20 284 278 hstem
          34 388 vstem
          34 313 rmoveto
          38 -29 151 187 156 -187 43 29 -161 249 -77 -6 rlineto
          endchar
        </CharString>
        <CharString name="asciitilde">
          2 163 71 -21 70 hstemhm
          51 372 hintmask 10100000
          423 254 rmoveto
          -30 24 rlineto
          -25 -19 -26 -19 -29 hhcurveto
          hintmask 01100000
          -14 callsubr
          hintmask 10100000
          18 callgsubr
          endchar
        </CharString>
        <CharString name="asterisk">
          -35 422 -20 95 -20 175 30 callgsubr
          497 -38 callsubr
        </CharString>
        <CharString name="at">
          297 -189 54 118 76 -71 63 281 55 124 54 hstemhm
          37 67 97 81 174 71 145 59 hintmask 1101111110000000
          336 -189 rmoveto
          77 70 21 33 40 hvcurveto
          -17 34 rlineto
          -20 -29 -70 -14 -55 hhcurveto
          -138 -110 94 195 218 140 139 177 122 129 -66 -177 hvcurveto
          hintmask 1011111110000000
          -141 -83 -76 -39 -16 -7 11 39 74 29 142 10 51 vhcurveto
          -56 18 -19 -24 rlineto
          18 -33 -30 7 -28 hhcurveto
          -124 -75 -132 -116 hvcurveto
          hintmask 1101111110000000
          -94 50 -62 59 69 54 87 89 33 vhcurveto
          hintmask 1011111110000000
          -7 -40 -3 -30 -20 vvcurveto
          -48 18 -33 38 67 152 100 200 180 -120 97 -163 -221 -191 -178 -256 1 vhcurveto
          hintmask 1101111110000000
          -192 2 109 -128 188 hhcurveto
          117 422 rmoveto
          -98 -31 -51 -76 -41 hhcurveto
          -34 -14 54 53 83 35 83 70 26 34 -13 -24 23 hvcurveto
          -4 -19 -6 -21 -7 -22 rrcurveto
          endchar
        </CharString>
        <CharString name="atilde">
          -76 callgsubr
          47 69 -18 69 -21 -20 32 callsubr
          hintmask 1011001110000000
          -99 callgsubr
          hintmask 0111001110000000
          -101 callsubr
          hintmask 1011001110000000
          13 callsubr
          hintmask 1011101110000000
          218 577 -16 callgsubr
          hintmask 1011010110000000
          -62 callgsubr
          hintmask 1011101110000000
          -29 callsubr
        </CharString>
        <CharString name="b">
          1 -8 44 328 61 217 -20 32 -20 hstemhm
          64 95 177 102 hintmask 11011100
          64 20 rmoveto
          -11 27 62 -17 63 9 callgsubr
          -51 -40 -19 -29 -29 hvcurveto
          hintmask 11101100
          265 vlineto
          hintmask 11011100
          -13 12 -46 -1 -61 -8 -46 -12 rlinecurve
          -40 vlineto
          52 -8 rlineto
          12 -1 7 -8 -12 vvcurveto
          159 -528 rmoveto
          -27 -21 50 callsubr
          31 24 callgsubr
        </CharString>
        <CharString name="backslash">
          -115 633 -20 hstem
          23 312 vstem
          335 -105 rmoveto
          -232 738 rlineto
          -80 hlineto
          233 -738 rlineto
          endchar
        </CharString>
        <CharString name="bar">
          -243 -112 802 hstem
          79 75 vstem
          79 -112 rmoveto
          75 802 -75 hlineto
          endchar
        </CharString>
        <CharString name="braceleft">
          -150 254 24 callsubr
          54 8 69 56 vvcurveto
          63 -39 33 -68 14 vhcurveto
          68 15 39 29 63 56 -8 69 53 6 callgsubr
          -45 -77 -70 13 -62 -52 vvcurveto
          -45 -9 -34 -87 -7 vhcurveto
          -66 vlineto
          87 -8 9 -33 -45 -53 -13 -61 -72 30 callsubr
        </CharString>
        <CharString name="braceright">
          -150 254 29 callsubr
          71 -13 62 53 vvcurveto
          45 8 33 89 8 vhcurveto
          66 vlineto
          -89 7 -8 34 45 52 13 62 71 vvcurveto
          77 -41 44 -92 7 vhcurveto
          3 31 callgsubr
          -53 -8 -70 -56 vvcurveto
          -63 40 -32 67 -13 vhcurveto
          -67 -14 -40 -32 -63 -56 8 -69 -54 15 callsubr
        </CharString>
        <CharString name="bracketleft">
          10 callgsubr
          758 -77 callgsubr
          14 callsubr
          705 vlineto
          14 7 6 13 2 vhcurveto
          92 9 rlineto
          41 vlineto
          -57 8 -75 4 -52 -1 -13 -13 rcurveline
          -845 46 callsubr
        </CharString>
        <CharString name="bracketright">
          10 callgsubr
          758 -77 callgsubr
          63 callgsubr
          845 vlineto
          -13 13 -52 1 -75 -4 -57 -8 rlinecurve
          -41 vlineto
          91 -9 rlineto
          13 -2 8 -6 -14 vvcurveto
          -705 8 callgsubr
        </CharString>
        <CharString name="breve">
          -111 472 69 hstem
          41 282 vstem
          323 586 -87 callgsubr
        </CharString>
        <CharString name="brokenbar">
          -244 -112 802 hstem
          78 75 vstem
          78 345 rmoveto
          75 345 -75 hlineto
          -802 vmoveto
          75 344 -75 hlineto
          endchar
        </CharString>
        <CharString name="bullet">
          -148 142 178 hstem
          69 189 vstem
          258 231 16 callsubr
        </CharString>
        <CharString name="bulletoperator">
          -132 159 128 hstem
          107 130 vstem
          237 223 rmoveto
          38 -26 26 -39 -39 -26 -26 -38 -38 26 -26 39 39 26 26 38 vhcurveto
          endchar
        </CharString>
        <CharString name="c">
          35 callgsubr
          hstem
          37 104 vstem
          -96 callgsubr
          endchar
        </CharString>
        <CharString name="cacute">
          35 callgsubr
          222 -20 hstem
          37 104 vstem
          -96 callgsubr
          157 255 -91 callgsubr
        </CharString>
        <CharString name="caron">
          -111 648 48 callsubr
          44 285 hintmask 01100000
          297 649 rmoveto
          hintmask 10100000
          -59 callgsubr
          hintmask 01100000
          23 callsubr
        </CharString>
        <CharString name="ccaron">
          35 callgsubr
          223 48 callsubr
          37 104 hintmask 11011000
          -96 callgsubr
          307 447 rmoveto
          hintmask 11101000
          -59 callgsubr
          hintmask 11011000
          23 callsubr
        </CharString>
        <CharString name="ccedilla">
          -63 38 callsubr
          23 63 -39 -21 384 47 hstemhm
          37 104 74 81 hintmask 10011110
          37 202 rmoveto
          -109 49 -83 102 -16 vhcurveto
          hintmask 11011110
          -20 -60 rlineto
          -92 callsubr
          hintmask 10101110
          7 23 rlineto
          76 55 34 50 22 hvcurveto
          -24 20 rlineto
          -21 -21 -35 -20 -45 hhcurveto
          -74 -38 55 111 109 36 49 58 21 18 -6 -9 11 hvcurveto
          8 -7 3 -9 4 -15 17 -64 rcurveline
          48 hlineto
          7 40 4 47 -3 42 rrcurveto
          16 -31 -53 12 -48 hhcurveto
          hintmask 10011110
          -129 -75 -88 -135 hvcurveto
          endchar
        </CharString>
        <CharString name="ccircumflex">
          35 callgsubr
          210 -20 hstem
          37 104 vstem
          -96 callgsubr
          82 256 -80 callgsubr
        </CharString>
        <CharString name="cdotaccent">
          35 callgsubr
          54 114 hstem
          37 104 36 120 vstem
          -96 callgsubr
          260 334 -86 callgsubr
          endchar
        </CharString>
        <CharString name="cedilla">
          -111 -190 36 88 85 hstem
          183 81 vstem
          164 19 rmoveto
          -28 -85 rlineto
          -92 callsubr
          16 51 rlineto
          endchar
        </CharString>
        <CharString name="cent">
          -45 44 callsubr
          39 104 47 59 -25 59 hintmask 01011100
          39 -64 callgsubr
        </CharString>
        <CharString name="cent.tf">
          -30 44 callsubr
          45 104 47 59 -25 59 hintmask 01011100
          45 -64 callgsubr
        </CharString>
        <CharString name="circumflex">
          -111 635 -20 hstem
          40 285 vstem
          72 458 -80 callgsubr
        </CharString>
        <CharString name="colon">
          -241 -7 115 190 114 hstem
          57 120 vstem
          177 355 21 callgsubr
          -305 vmoveto
          35 -24 23 -36 -36 -24 -23 -35 -34 24 -23 36 36 5 callgsubr
        </CharString>
        <CharString name="comma">
          -252 -155 272 hstem
          99 76 vstem
          175 27 rmoveto
          59 -31 31 -38 -34 -23 -24 -33 -26 15 -16 14 -9 vhcurveto
          12 -8 9 -3 -19 vvcurveto
          -34 -24 -40 -39 -34 vhcurveto
          20 -26 rlineto
          65 36 54 68 78 vvcurveto
          endchar
        </CharString>
        <CharString name="copyright">
          254 -43 43 101 58 264 46 101 42 hstem
          38 50 113 85 355 49 vstem
          363 101 rmoveto
          67 48 31 41 20 hvcurveto
          -22 21 rlineto
          -21 -20 -35 -14 -35 hhcurveto
          -65 -35 48 88 83 30 45 52 18 17 -6 -8 11 hvcurveto
          10 -7 3 -8 2 -9 14 -55 rcurveline
          44 hlineto
          7 38 2 37 -3 35 rrcurveto
          15 -22 -46 14 -47 hhcurveto
          -104 -73 -67 -121 -108 60 -72 102 hvcurveto
          -275 184 rmoveto
          167 115 118 162 161 115 -118 -167 -166 -115 -119 -161 -162 -115 119 166 vhcurveto
          -50 hmoveto
          -188 139 -140 188 187 138 140 188 188 -138 139 -187 -188 -139 -139 -188 vhcurveto
          endchar
        </CharString>
        <CharString name="currency">
          37 117 68 193 68 hstem
          94 72 180 73 vstem
          94 277 rmoveto
          -36 11 -32 18 -26 vhcurveto
          -78 -79 42 -43 81 80 rlineto
          -15 25 30 -9 32 hhcurveto
          33 30 10 17 25 hvcurveto
          81 -81 43 42 -80 81 rlineto
          20 28 12 34 37 vvcurveto
          36 -11 32 -19 26 vhcurveto
          80 79 -44 44 -81 -81 rlineto
          16 -26 -30 9 -33 hhcurveto
          -33 -29 -10 -17 -25 hvcurveto
          -81 82 -42 -43 80 -80 rlineto
          -19 -29 -12 -35 -37 vvcurveto
          162 -92 rmoveto
          -49 -41 42 53 50 30 48 58 49 43 -43 -55 -52 -30 -43 -60 hvcurveto
          endchar
        </CharString>
        <CharString name="d">
          22 -80 callsubr
          endchar
        </CharString>
        <CharString name="dagger">
          -121 407 42.5 hstemhm
          126 103 -84.5 76.5 hintmask 10100000
          199 -91 rmoveto
          22 461 rlineto
          7 6 6 13 3 vhcurveto
          hintmask 11000000
          88 21 rlineto
          44 vlineto
          -104 -3 5 95 rlineto
          63 -103 -63 vlineto
          4 -95 -104 3 rlineto
          -44 vlineto
          hintmask 10100000
          89 -21 11 -2 5 -5 3 -8 rlinecurve
          21 -462 rlineto
          endchar
        </CharString>
        <CharString name="daggerdbl">
          -108 235 43 129 42.5 hstemhm
          132 103 -92.5 84.5 -71.5 63.5 hintmask 11001000
          205 -92 rmoveto
          14 286 rlineto
          9 6 6 13 3 vhcurveto
          97 23 rlineto
          45 vlineto
          hintmask 11010000
          -113 -4 5 94 rlineto
          7 6 6 13 3 vhcurveto
          hintmask 11100000
          89 21 rlineto
          44 vlineto
          -105 -3 5 95 rlineto
          63 -103 -63 vlineto
          5 -95 -105 3 rlineto
          -44 vlineto
          hintmask 11010000
          89 -21 11 -3 6 -4 2 -9 rlinecurve
          5 -94 -113 4 rlineto
          -45 vlineto
          hintmask 11001000
          97 -23 12 -3 6 -5 2 -10 rlinecurve
          13 -285 rlineto
          endchar
        </CharString>
        <CharString name="dcaron">
          35 -80 callsubr
          304 482 -31 callsubr
        </CharString>
        <CharString name="dcroat">
          22 -8 59 -58 55.5 318.5 47 64 46 117 42 callsubr
          38 102 178 95 hintmask 10110111
          187 478 rmoveto
          131 -71 hlineto
          4 -19 -24 3 -24 hhcurveto
          -131 -82 -74 -148 -141 72 -59 91 54 40 22 32 28 hvcurveto
          -32 11 23 -21 40 hhcurveto
          26 34 9 5 16 hvcurveto
          hintmask 01111011
          39 vlineto
          -40 5 rlineto
          -12 1 -8 5 17 vvcurveto
          404 53 46 -53 117 vlineto
          hintmask 10110111
          -13 13 -45 -1 -63 -7 -46 -14 rlinecurve
          -39 vlineto
          53 -7 52 callgsubr
          -7 -13 vvcurveto
          -40 -131 vlineto
          49 -473 rmoveto
          -55 -41 37 117 125 48 37 63 26 25 -7 -8 16 hvcurveto
          -274 vlineto
          -16 -22 -30 -11 -30 hhcurveto
          endchar
        </CharString>
        <CharString name="degree">
          -138 339 55 153 54 hstem
          36 59 146 60 vstem
          168 339 rmoveto
          74 59 56 75 72 -56 59 -77 -72 -60 -56 -75 -71 60 -60 72 hvcurveto
          55 vmoveto
          -40 -33 35 41 44 30 33 42 42 32 -35 -42 -44 -30 -32 -43 hvcurveto
          endchar
        </CharString>
        <CharString name="dieresis">
          -111 482 105 hstem
          47 103 64 102 vstem
          150 534 -93 callgsubr
        </CharString>
        <CharString name="divide">
          -43 43 99 52 62 51 100 hstem
          163 106 vstem
          384 194 rmoveto
          62 -336 -62 vlineto
          221 -102 rmoveto
          30 -21 20 -32 -32 -21 -20 -30 -29 21 -20 32 32 21 20 29 vhcurveto
          265 vmoveto
          30 -21 20 -32 -32 -21 -20 -30 -30 21 -20 32 32 21 20 30 vhcurveto
          endchar
        </CharString>
        <CharString name="dollar">
          -43 23 callgsubr
          48 90 37 59 -31 59 41 96 hintmask 10111101
          399 -74 callgsubr
        </CharString>
        <CharString name="dollar.tf">
          -30 23 callgsubr
          54 90 37 59 -31 59 41 96 hintmask 10111101
          405 -74 callgsubr
        </CharString>
        <CharString name="dotaccent">
          -111 479 114 hstem
          130 120 vstem
          250 536 -86 callgsubr
          endchar
        </CharString>
        <CharString name="dotlessi">
          -67 callsubr
          hstem
          95 96 vstem
          -102 callgsubr
          endchar
        </CharString>
        <CharString name="dotlessj">
          -225 -174 -21 618 -20 hstem
          87 95 vstem
          169 423 -85 callsubr
          endchar
        </CharString>
        <CharString name="e">
          -30 callsubr
          hstem
          37 100 164 91 vstem
          -107 callgsubr
          endchar
        </CharString>
        <CharString name="eacute">
          -30 callsubr
          222 -20 hstem
          37 100 164 91 vstem
          -107 callgsubr
          -35 77 -91 callgsubr
        </CharString>
        <CharString name="ebreve">
          -30 callsubr
          47 69 hstem
          37 100 164 91 vstem
          -107 callgsubr
          141 206 -87 callgsubr
        </CharString>
        <CharString name="ecaron">
          -30 callsubr
          223 48 callsubr
          37 100 164 91 hintmask 11101110
          -107 callgsubr
          115 269 rmoveto
          hintmask 11110110
          -59 callgsubr
          hintmask 11101110
          23 callsubr
        </CharString>
        <CharString name="ecircumflex">
          -30 callsubr
          210 -20 hstem
          37 100 164 91 vstem
          -107 callgsubr
          -110 78 -80 callgsubr
        </CharString>
        <CharString name="edieresis">
          -30 callsubr
          57 105 hstemhm
          37 100 -47 103 64 102 -58 91 hintmask 11111001
          -107 callgsubr
          hintmask 11110110
          -32 154 -93 callgsubr
        </CharString>
        <CharString name="edotaccent">
          -30 callsubr
          54 114 hstemhm
          37 100 36 120 8 91 hintmask 11101010
          -107 callgsubr
          hintmask 11111110
          68 156 -86 callgsubr
          endchar
        </CharString>
        <CharString name="egrave">
          -30 callsubr
          222 -20 hstem
          37 100 164 91 vstem
          -107 callgsubr
          -56 267 -68 callsubr
        </CharString>
        <CharString name="eight">
          -8 -10 47 429 45 hstemhm
          41 62 callgsubr
          41 -72 callsubr
        </CharString>
        <CharString name="eight.tf">
          -30 -10 47 429 45 hstemhm
          29 62 callgsubr
          29 -72 callsubr
        </CharString>
        <CharString name="ellipsis">
          174 -7 115 hstem
          48 121 95 121 96 120 vstem
          385 50 rmoveto
          35 -24 23 -36 -36 -25 -23 46 callgsubr
          36 24 23 34 vhcurveto
          216 hmoveto
          35 -23 23 -37 -36 -24 -23 60 callsubr
          -432 hmoveto
          -42 callsubr
        </CharString>
        <CharString name="emacron">
          -30 callsubr
          69 61 hstemhm
          37 100 -38 251 -49 91 hintmask 11111010
          -107 callgsubr
          hintmask 11110100
          -126 114 -8 callgsubr
        </CharString>
        <CharString name="emdash">
          337 184 65 hstem
          55 702 vstem
          55 184 rmoveto
          702 65 -702 hlineto
          endchar
        </CharString>
        <CharString name="endash">
          59 184 65 hstem
          55 425 vstem
          55 184 rmoveto
          425 65 -425 hlineto
          endchar
        </CharString>
        <CharString name="eng">
          42 -186 46 -25 -21 24 -21 183 -77 callgsubr
          315.5 62 hstemhm
          95 96 167 97 hintmask 01011110
          455 7 rmoveto
          258 vlineto
          102 -29 56 -98 -52 -50 -15 -42 -39 vhcurveto
          -6 44 -15 13 -42 -1 -52 -6 -43 -13 rlinecurve
          -93 callsubr
          -261 vlineto
          -12 -6 -8 -79 callsubr
          210 60 callgsubr
          -11 3 -7 7 12 vvcurveto
          261 vlineto
          19 27 33 10 31 hhcurveto
          58 18 -33 -77 hvcurveto
          -231 vlineto
          hintmask 10011110
          -70 -7 -37 -19 -21 vhcurveto
          -20 -21 -33 -6 -25 -5 rrcurveto
          hintmask 00111110
          3 -43 rlineto
          hintmask 01011110
          -2 16 18 -1 16 hhcurveto
          106 42 68 125 hvcurveto
          endchar
        </CharString>
        <CharString name="enspace">
          -50 endchar
        </CharString>
        <CharString name="eogonek">
          -45 -188 56 123 63 175 42 108 46 hstem
          37 100 41 80 43 91 vstem
          178 -116 rmoveto
          -49 43 -23 51 35 37 10 17 26 vhcurveto
          -16 34 callsubr
          -16 hhcurveto
          -27 -21 13 28 35 27 34 50 42 hvcurveto
          3 1 3 2 2 2 24 19 15 22 9 24 -28 18 rcurveline
          -34 -24 -42 -20 -45 hhcurveto
          -72 -43 45 124 hvcurveto
          6 250 vlineto
          3 16 2 22 16 vvcurveto
          89 -58 53 -98 -123 -76 -81 -141 -125 60 -87 128 12 11 1 1 10 vhcurveto
          -2 vlineto
          -34 -19 -46 -37 -51 vvcurveto
          47 495 rmoveto
          49 27 -37 -54 -7 -1 31 callsubr
          31 31 46 hhcurveto
          endchar
        </CharString>
        <CharString name="equal">
          -27 116 64 86 65 hstem
          55 335 vstem
          390 266 rmoveto
          65 -335 -65 vlineto
          335 -150 rmoveto
          64 -335 -64 vlineto
          endchar
        </CharString>
        <CharString name="estimated">
          40 -9 47 190 46 179 43 hstem
          43 117 205 110 vstem
          448 40 rmoveto
          -22 38 rlineto
          -23 -32 -45 -17 -54 hhcurveto
          -57 -51 20 31 -27 hvcurveto
          139 312 vlineto
          2 17 1 23 25 vvcurveto
          135 -2 -82 68 -117 hhcurveto
          -147 -84 -107 -143 -156 100 -99 146 61 58 18 31 40 hvcurveto
          -288 369 rmoveto
          26 23 40 18 48 hhcurveto
          39 37 -12 -20 18 hvcurveto
          -147 -205 vlineto
          endchar
        </CharString>
        <CharString name="eth">
          -6 -8 46 314 57 242 28 callgsubr
          38 104 181 101 hintmask 11011100
          424 236 rmoveto
          hintmask 11101100
          118 -47 116 -94 82 vhcurveto
          84 52 -32 47 rlineto
          hintmask 11011100
          -94 -67 -43 30 -50 23 -58 16 rlinecurve
          -18 -38 43 -21 37 -23 31 -25 rlinecurve
          -97 -62 31 -47 104 75 37 -39 27 -45 16 -52 rlinecurve
          23 -25 -35 10 -34 hhcurveto
          -76 -93 -55 -155 -132 67 -75 116 142 61 106 138 hvcurveto
          -192 -198 rmoveto
          -68 -22 69 91 116 36 38 55 32 29 -12 -22 21 hvcurveto
          6 -30 2 -32 -35 vvcurveto
          -124 -26 -59 -65 vhcurveto
          endchar
        </CharString>
        <CharString name="exclam">
          -229 -7 109 hstemhm
          65 116 -112 107 hintmask 10100000
          69 557 rmoveto
          26 -383 rlineto
          56 hlineto
          25 383 rlineto
          66 -107 vlineto
          hintmask 11000000
          112 -576 14 callgsubr
        </CharString>
        <CharString name="exclamdown">
          -241 317 108 hstemhm
          59 116 -111 107 hintmask 10100000
          171 -205 rmoveto
          66 vlineto
          -25 383 rlineto
          -58 hlineto
          -24 -383 rlineto
          -66 vlineto
          hintmask 11000000
          111 576 rmoveto
          33 -23 21 -35 -35 -23 -21 -33 -33 23 -21 35 35 23 21 33 vhcurveto
          endchar
        </CharString>
        <CharString name="f">
          -145 0 46 310 57 159 82 hstem
          96 96 vstem
          97 446 rmoveto
          -32 vlineto
          -69 -11 -82 callsubr
          253 42 vlineto
          -76 8 rlineto
          -13 1 -6 7 12 vvcurveto
          286 120 57 -121 69 vlineto
          71 27 19 58 vhcurveto
          20 1 34 -4 28 -6 17 58 rcurveline
          19 -29 -34 14 -35 hhcurveto
          -88 -92 -99 -109 hvcurveto
          endchar
        </CharString>
        <CharString name="f_b">
          320 -8 44 -36 46 310 57 -49 61 148 81 -12 -20 hstemhm
          96 94 194 95 177 101 hintmask 0110101110000000
          285 hmoveto
          42 vlineto
          -75 8 rlineto
          -13 -47 callgsubr
          125 57 -125 69 vlineto
          68 41 23 59 30 32 -4 -12 32 vhcurveto
          hintmask 1001011110000000
          -537 vlineto
          -11 27 62 -17 62 9 callgsubr
          -50 -40 -18 -30 -29 hvcurveto
          265 vlineto
          hintmask 0110101110000000
          -14 12 -23 -4 -28 -9 -28 -12 rlinecurve
          16 -29 -30 9 -28 hhcurveto
          -97 -105 -95 -109 hvcurveto
          -36 vlineto
          -69 -11 -82 callsubr
          vlineto
          hintmask 1001101110000000
          508 36 rmoveto
          -27 -20 50 callsubr
          30 hhcurveto
          62 38 -40 -118 -1 hvcurveto
          -119 -2 -39 -51 -73 hhcurveto
          endchar
        </CharString>
        <CharString name="f_f">
          149 0 46 310 57 139 81 -61 82 hstemhm
          96 94 203 94 hintmask 11011100
          274 hmoveto
          42 vlineto
          -64 8 rlineto
          -13 -47 callgsubr
          203 -286 -7 callsubr
          -41 -7 rlineto
          -42 250 42 vlineto
          -77 8 rlineto
          -12 -47 callgsubr
          120 57 -120 69 vlineto
          71 27 19 57 vhcurveto
          21 1 33 -4 28 -6 18 59 rcurveline
          18 -30 -34 14 -35 hhcurveto
          -87 -91 -99 -109 hvcurveto
          -33 -204 vlineto
          hintmask 11101100
          -91 callsubr
          endchar
        </CharString>
        <CharString name="f_f_b">
          617 -8 44 -36 46 310 57 -49 61 127 81 -60 81 -12 -20 hstemhm
          96 94 203 94 194 95 176 102 hintmask 0110010111100000
          274 hmoveto
          42 vlineto
          -64 8 rlineto
          -13 -47 callgsubr
          203 -286 vlineto
          -12 -66 callsubr
          251 42 vlineto
          -76 8 rlineto
          -12 -47 callgsubr
          124 57 -124 69 vlineto
          68 43 23 56 30 33 -4 -12 32 vhcurveto
          hintmask 1001001111100000
          -537 vlineto
          -11 27 62 -17 62 9 callgsubr
          -51 -39 -18 -29 -29 hvcurveto
          264 vlineto
          hintmask 0110010111100000
          -15 12 -22 -4 -29 -9 -27 -12 rlinecurve
          16 -29 -31 9 -28 hhcurveto
          -94 -107 -95 -109 hvcurveto
          -37 -204 vlineto
          hintmask 0110100111100000
          -91 callsubr
          hintmask 1001010111100000
          805 36 rmoveto
          -27 -20 7 9 -16 hvcurveto
          286 vlineto
          17 22 26 9 30 24 callgsubr
        </CharString>
        <CharString name="f_f_h">
          653 -28 callsubr
          -52 62 129 4 callsubr
          168 96 hintmask 1100101111000000
          -77 callsubr
          -485 vlineto
          -13 -6 48 callgsubr
          -42 -7 rlineto
          -42 208 18 callsubr
          -7 6 13 vvcurveto
          hintmask 1010011111000000
          260 vlineto
          21 28 33 9 33 -76 callsubr
          211 42 vlineto
          -44 7 68 callgsubr
          7 13 vvcurveto
          194 vlineto
          100 -29 58 -97 -52 -48 -15 -39 -38 vhcurveto
          272 vlineto
          hintmask 1100101111000000
          -37 callgsubr
          hintmask 1101001111000000
          -91 callsubr
          endchar
        </CharString>
        <CharString name="f_f_k">
          628 -28 callsubr
          -39 39 139 4 callsubr
          84 204 hintmask 1100101110000000
          -77 callsubr
          -485 -83 callsubr
          -42 -7 rlineto
          -42 216 42 vlineto
          -43 -61 callsubr
          61 vlineto
          63 64 2 callsubr
          -8 13 rlinecurve
          -69 122 -15 27 -12 19 -15 19 rlinecurve
          hintmask 1010101111000000
          85 87 10 10 7 2 16 3 rlinecurve
          43 11 rlineto
          hintmask 1100101111000000
          39 -204 vlineto
          hintmask 1010011111000000
          -39 vlineto
          71 -12 -155 -167 rlineto
          446 vlineto
          hintmask 1100101110000000
          -37 callgsubr
          hintmask 1101001110000000
          -91 callsubr
          endchar
        </CharString>
        <CharString name="f_f_l">
          396 -28 callsubr
          139 4 callsubr
          hintmask 11010111
          -77 callsubr
          -486 vlineto
          -12 -6 48 callgsubr
          -42 -7 rlineto
          -42 223 42 vlineto
          -50 -61 callsubr
          hintmask 11001111
          570 vlineto
          hintmask 11010111
          -37 callgsubr
          hintmask 11100111
          -91 callsubr
          endchar
        </CharString>
        <CharString name="f_h">
          356 -28 callsubr
          -52 62 150 81 -13 -20 hstemhm
          96 94 204 94 167 96 hintmask 11010111
          -46 callgsubr
          -485 vlineto
          -13 26 callgsubr
          -42 -7 rlineto
          -42 208 -3 callsubr
          hintmask 10101111
          261 vlineto
          20 28 33 9 32 -76 callsubr
          211 42 vlineto
          -43 -61 callsubr
          194 vlineto
          100 -29 58 -96 -51 -49 -15 -38 -38 vhcurveto
          271 vlineto
          hintmask 11010111
          -65 callsubr
        </CharString>
        <CharString name="f_k">
          331 -28 callsubr
          -39 39 160 81 -13 -20 hstemhm
          96 94 204 94 83 205 hintmask 11010110
          -46 callgsubr
          -485 vlineto
          -12 -7 -8 -12 -2 vhcurveto
          -42 -7 rlineto
          -42 216 42 vlineto
          -43 7 68 callgsubr
          7 13 vvcurveto
          62 vlineto
          62 63 2 callsubr
          -7 13 rlinecurve
          -70 122 -15 27 -12 19 -15 19 rlinecurve
          hintmask 10110111
          85 87 10 10 7 2 17 3 rlinecurve
          43 11 rlineto
          hintmask 11010111
          39 -205 vlineto
          hintmask 10101111
          -39 vlineto
          71 -12 -154 -166 rlineto
          445 vlineto
          hintmask 11010110
          -65 callsubr
        </CharString>
        <CharString name="f_l">
          100 -28 callsubr
          160 81 -13 -20 hstemhm
          96 94 204 94 hintmask 11101100
          -46 callgsubr
          -486 -7 callsubr
          -42 -7 rlineto
          -42 224 42 vlineto
          -50 -61 callsubr
          hintmask 11011100
          570 vlineto
          hintmask 11101100
          -65 callsubr
        </CharString>
        <CharString name="five">
          -46 -10 61 212 61 104 73 hstem
          74.5 60.5 149 106 vstem
          57 -51 callgsubr
        </CharString>
        <CharString name="five.tf">
          -30 -10 61 212 61 104 73 hstem
          82.5 60.5 149 106 vstem
          65 -51 callgsubr
        </CharString>
        <CharString name="four">
          -26 0 147 -53 53 337 22 hstemhm
          261 85 hintmask 01110000
          37 -34 callsubr
        </CharString>
        <CharString name="four.dnom">
          -96 0 111 -44 44 230 14 hstemhm
          210 69 hintmask 01110000
          51 67 rmoveto
          159 hlineto
          hintmask 10110000
          -67 69 vlineto
          hintmask 01110000
          -45 callsubr
        </CharString>
        <CharString name="four.numr">
          -96 295 44 230 -20 20 14 hstemhm
          214 69 hintmask 11010000
          55 -31 callgsubr
        </CharString>
        <CharString name="four.tf">
          -30 0 147 -53 53 337 22 hstemhm
          259 85 hintmask 01110000
          35 -34 callsubr
        </CharString>
        <CharString name="foursuperior">
          -104 295 44 230 -20 20 14 hstemhm
          209 69 hintmask 11010000
          50 -31 callgsubr
        </CharString>
        <CharString name="fraction">
          -4 callsubr
        </CharString>
        <CharString name="g">
          -32 callsubr
          20 callgsubr
          157 96 -44 96 hintmask 1110100010100000
          -69 callsubr
          hintmask 1111000101000000
          -28 callgsubr
          hintmask 1110010101000000
          69 vlineto
          hintmask 1111000101000000
          -16 callsubr
          hintmask 1110100101000000
          -33 callsubr
          hintmask 1110100011000000
          -17 callsubr
          hintmask 1110101001000000
          -19 callgsubr
          hintmask 1110100010100000
          -9 callgsubr
          hintmask 1110101000100000
          -55 callsubr
          hintmask 1110100010100000
          -63 -48 -31 -74 vhcurveto
          hintmask 1110100101000000
          -47 callsubr
          endchar
        </CharString>
        <CharString name="gbreve">
          -32 callsubr
          73 69 -90 callsubr
          221 303 -87 callgsubr
        </CharString>
        <CharString name="gcircumflex">
          -32 callsubr
          236 -20 -90 callsubr
          -30 175 -80 callgsubr
        </CharString>
        <CharString name="gcommaaccent">
          -32 callsubr
          255 -20 20 callgsubr
          29 70 58 96 -44 96 hintmask 1110101001001000
          -69 callsubr
          hintmask 1111001010010000
          -28 callgsubr
          hintmask 1110011010010000
          69 vlineto
          hintmask 1111001010010000
          -16 callsubr
          hintmask 1110101010010000
          -33 callsubr
          hintmask 1110101001010000
          -17 callsubr
          hintmask 1110101100010000
          -19 callgsubr
          hintmask 1110101001001000
          -9 callgsubr
          hintmask 1110101100001000
          -55 callsubr
          hintmask 1110101001001000
          -63 -48 -31 -74 vhcurveto
          hintmask 1110101010010000
          -47 callsubr
          hintmask 1110101010110000
          26 264 -24 callgsubr
        </CharString>
        <CharString name="gdotaccent">
          -32 callsubr
          80 114 20 callgsubr
          31 120 6 96 -44 96 hintmask 1110100001001000
          -69 callsubr
          hintmask 1111000010010000
          -28 callgsubr
          hintmask 1110010010010000
          69 vlineto
          hintmask 1111000010010000
          -16 callsubr
          hintmask 1110100010010000
          -33 callsubr
          hintmask 1110100001010000
          -17 callsubr
          hintmask 1110100100010000
          -19 callgsubr
          hintmask 1110100001001000
          -9 callgsubr
          hintmask 1110100100001000
          -55 callsubr
          hintmask 1110100001001000
          -63 -48 -31 -74 vhcurveto
          hintmask 1110100010010000
          -47 callsubr
          hintmask 1110101010100000
          148 253 -86 callgsubr
          endchar
        </CharString>
        <CharString name="germandbls">
          96 -10 43 -33 -77 callgsubr
          368.5 -20 195 65 hstemhm
          95 96 81 91 12 98 -18 93 hintmask 10111101
          548 118 rmoveto
          63 -41 32 -62 35 vhcurveto
          -50 27 -32 18 35 vvcurveto
          37 35 27 57 13 vhcurveto
          hintmask 01111010
          11 29 7 36 31 vvcurveto
          95 -1 -71 58 -88 hhcurveto
          -115 -103 -97 -118 hvcurveto
          -25 vlineto
          -67 -11 rlineto
          -40 vlineto
          67 -9 rlineto
          -284 vlineto
          -12 -6 -7 -79 callsubr
          157 465 vlineto
          91 34 33 56 63 31 -44 -62 -18 -2 -23 -7 -21 vhcurveto
          hintmask 10111101
          -49 -22 -45 -38 -60 vvcurveto
          -60 43 -30 50 -28 vhcurveto
          52 -29 38 -21 -43 vvcurveto
          -35 -28 -22 -38 -26 -20 10 8 -11 vhcurveto
          -10 8 -3 6 -5 17 -14 53 rcurveline
          -49 hlineto
          -3 -20 -2 -22 -23 vvcurveto
          -15 1 -17 2 -17 vhcurveto
          -15 31 49 -16 55 hhcurveto
          93 71 44 84 hvcurveto
          endchar
        </CharString>
        <CharString name="grave">
          -111 647 -20 hstem
          67 192 vstem
          126 647 -68 callsubr
        </CharString>
        <CharString name="gravecomb">
          647 -20 hstem
          -115 192 vstem
          -56 647 -68 callsubr
        </CharString>
        <CharString name="gravecomb.case">
          642 -20 hstem
          -135 221 vstem
          -86 766 -48 callsubr
          endchar
        </CharString>
        <CharString name="greater">
          -60 42 362 hstem
          47 335 vstem
          382 197 rmoveto
          53 vlineto
          -306 154 -29 -63 254 -118 -254 -118 29 -63 rlineto
          endchar
        </CharString>
        <CharString name="greaterequal">
          -41 0 63 hstem
          53 335 vstem
          388 258 rmoveto
          52 vlineto
          -307 145 -27 -64 255 -107 -255 -107 27 -63 rlineto
          300 62 callsubr
        </CharString>
        <CharString name="guillemotleft">
          49 415 -20 hstem
          35 455 vstem
          251 196 -22 callsubr
          -216 -53 -22 callsubr
          endchar
        </CharString>
        <CharString name="guillemotright">
          44 415 -20 hstem
          35 449 vstem
          484 196 -14 callgsubr
          -3 162 -14 callgsubr
          endchar
        </CharString>
        <CharString name="guilsinglleft">
          -166 415 -20 hstem
          35 239 vstem
          35 196 -22 callsubr
          endchar
        </CharString>
        <CharString name="guilsinglright">
          -166 415 -20 hstem
          35 239 vstem
          274 196 -14 callgsubr
          endchar
        </CharString>
        <CharString name="h">
          -75 callgsubr
          endchar
        </CharString>
        <CharString name="hbar">
          49 0 -77 callgsubr
          306.5 61 63 46 118 -20 34 -20 hstemhm
          85 96 167 96 hintmask 11101110
          22 476 rmoveto
          63 -405 hlineto
          -13 -66 callsubr
          211 -3 callsubr
          251 vlineto
          20 28 33 10 54 callsubr
          -35 -76 hvcurveto
          -170 vlineto
          -13 -7 -6 -12 -3 vhcurveto
          -34 -7 rlineto
          -42 210 42 vlineto
          -42 -61 callsubr
          184 vlineto
          101 -29 57 -97 -51 -48 -15 -37 -38 vhcurveto
          115 122 46 -122 vlineto
          hintmask 11110110
          118 vlineto
          hintmask 11101110
          -14 14 rlineto
          -45 -62 7 callsubr
          -39 vlineto
          51 -8 rlineto
          12 -1 7 -8 -12 vvcurveto
          -44 -63 vlineto
          endchar
        </CharString>
        <CharString name="hcircumflex">
          -75 callgsubr
          12 679 -83 callgsubr
          -23 callgsubr
        </CharString>
        <CharString name="hungarumlaut">
          -111 653 28 callgsubr
          71 309 hintmask 01100000
          102 467 -35 callgsubr
          hintmask 10100000
          -13 callgsubr
        </CharString>
        <CharString name="hyphen">
          -89 185 64 hstem
          55 276 vstem
          55 185 rmoveto
          276 64 -276 hlineto
          endchar
        </CharString>
        <CharString name="i">
          -67 callsubr
          76 114 hstemhm
          75 120 -100 96 hintmask 11101000
          -102 callgsubr
          hintmask 11110000
          4 464 -86 callgsubr
          endchar
        </CharString>
        <CharString name="iacute">
          -67 callsubr
          244 -20 hstem
          95 96 vstem
          -102 callgsubr
          -99 385 -91 callgsubr
        </CharString>
        <CharString name="iacute_j.NLD">
          51 17 callgsubr
          244 -20 hstemhm
          95 96 172 95 hintmask 11011110
          191 410 rmoveto
          -13 13 rlineto
          -46 -18 callgsubr
          hintmask 11101110
          -93 callsubr
          -261 -73 callsubr
          34 callgsubr
          219 42 vlineto
          -15 callsubr
          8 13 vvcurveto
          -99 385 rmoveto
          65 39 71 56 33 42 -60 53 rcurveline
          -136 -159 rlineto
          380 -65 -85 callsubr
          -105 47 -91 callgsubr
        </CharString>
        <CharString name="ibreve">
          -67 callsubr
          69 68 hstem
          95 96 vstem
          -102 callgsubr
          70 514 -10 callsubr
        </CharString>
        <CharString name="icircumflex">
          -67 callsubr
          230 -20 hstem
          95 96 vstem
          -102 callgsubr
          -162 387 -9 callsubr
        </CharString>
        <CharString name="idieresis">
          -67 callsubr
          79 105 hstemhm
          -8 103 0 96 -32 102 hintmask 11101000
          -102 callgsubr
          hintmask 11110100
          -96 462 -93 callgsubr
        </CharString>
        <CharString name="igrave">
          -67 callsubr
          244 -20 hstem
          95 96 vstem
          -102 callgsubr
          -120 575 -68 callsubr
        </CharString>
        <CharString name="ij">
          41 17 callgsubr
          76 114 hstemhm
          75 120 -100 96 134 120 -93 95 hintmask 1101101010000000
          191 410 rmoveto
          -13 13 rlineto
          -46 -18 callgsubr
          hintmask 1110101010000000
          -93 callsubr
          -261 -73 callsubr
          34 callgsubr
          219 42 vlineto
          -15 callsubr
          8 13 vvcurveto
          hintmask 1101110010000000
          4 464 -86 callgsubr
          239 -113 rmoveto
          -45 -18 callgsubr
          hintmask 1110101010000000
          -93 callsubr
          -293 vlineto
          -100 -22 -41 -87 -51 vhcurveto
          20 -42 46 15 46 17 34 28 rlinecurve
          42 35 16 42 99 vvcurveto
          369 vlineto
          hintmask 1101101100000000
          -2 126 -86 callgsubr
          endchar
        </CharString>
        <CharString name="imacron">
          -67 callsubr
          91 61 hstemhm
          12 230 -147 96 hintmask 11101000
          -102 callgsubr
          hintmask 11110000
          -179 422 rmoveto
          230 61 -230 hlineto
          endchar
        </CharString>
        <CharString name="infinity">
          228 64 56 -53 65 170 65 -54 57 hstemhm
          43 67 482 68 hintmask 10011100
          660 228 rmoveto
          hintmask 10101100
          81 -54 58 -78 -67 -53 -42 -59 -38 vhcurveto
          hintmask 01011100
          71 -58 -41 33 -64 hhcurveto
          -96 -68 -73 -91 -81 54 -58 77 66 54 42 58 38 hvcurveto
          hintmask 10011100
          -71 59 41 -32 64 hhcurveto
          96 68 72 92 hvcurveto
          hintmask 01011100
          -459 -96 rmoveto
          -52 -39 45 56 47 28 33 36 44 38 -51 -67 54 hvcurveto
          -42 -38 -36 -21 -35 hhcurveto
          hintmask 10101100
          327 -12 rmoveto
          -44 -38 52 67 -54 hvcurveto
          42 38 36 21 36 hhcurveto
          52 38 -45 -56 -47 -27 -34 -37 hvcurveto
          endchar
        </CharString>
        <CharString name="integral">
          -140 -195 59 738 58 hstemhm
          76 99 -13 99 hintmask 11010000
          261 -14 rmoveto
          hintmask 11100000
          138 -86 245 129 vvcurveto
          77 31 27 42 21 21 -6 -12 21 vhcurveto
          22 37 rlineto
          25 -24 -40 14 -40 hhcurveto
          -80 -73 -57 -124 hvcurveto
          hintmask 11010000
          -139 86 -243 -130 vvcurveto
          -76 -32 -27 -44 -20 -21 6 11 -21 vhcurveto
          -22 -36 rlineto
          -25 23 40 -15 41 hhcurveto
          82 73 59 122 hvcurveto
          endchar
        </CharString>
        <CharString name="iogonek">
          20 callsubr
          76 114 hstemhm
          41 81 -47 120 -100 96 hintmask 11110010
          234 -161 rmoveto
          hintmask 11111000
          16 callgsubr
          hintmask 11110010
          -24 callsubr
          hintmask 11111000
          17 callsubr
          hintmask 11110010
          35 38 10 17 25 hvcurveto
          hintmask 11110100
          -39 697 -86 callgsubr
          endchar
        </CharString>
        <CharString name="itilde">
          -67 callsubr
          67 2 callgsubr
          95 96 hintmask 11001100
          -102 callgsubr
          hintmask 11101100
          82 497 67 callgsubr
          hintmask 11010100
          12 callgsubr
          hintmask 11101100
          31 27 -51 47 hhcurveto
          53 34 50 49 13 hvcurveto
          endchar
        </CharString>
        <CharString name="j">
          44 callgsubr
          76 114 hstemhm
          60 120 -93 95 hintmask 11101000
          169 423 -85 callsubr
          hintmask 11110000
          -2 126 -86 callgsubr
          endchar
        </CharString>
        <CharString name="jacute">
          44 callgsubr
          244 -20 hstem
          87 95 vstem
          169 423 -85 callsubr
          -105 47 -91 callgsubr
        </CharString>
        <CharString name="jcircumflex">
          44 callgsubr
          230 -20 hstem
          87 95 vstem
          169 423 -85 callsubr
          -168 49 -9 callsubr
        </CharString>
        <CharString name="k">
          24 0 -77 callgsubr
          328.5 39 229 -20 32 -20 hstemhm
          85 95 84 204 hintmask 11011100
          -57 callgsubr
          hintmask 11101100
          447 vlineto
          hintmask 11011100
          -12 callsubr
          endchar
        </CharString>
        <CharString name="kcommaaccent">
          24 19 callsubr
          -77 callgsubr
          328.5 39 229 -20 32 -20 hstemhm
          85 95 80 70 -66 204 hintmask 11101101
          -57 callgsubr
          hintmask 11110101
          447 vlineto
          hintmask 11101110
          -12 callsubr
          307 -109 -104 callgsubr
        </CharString>
        <CharString name="l">
          -206 0 -77 callgsubr
          595.5 42 callsubr
          87 96 hintmask 11010000
          183 641 rmoveto
          hintmask 10110000
          -88 callsubr
          endchar
        </CharString>
        <CharString name="lacute">
          -206 0 -77 callgsubr
          595.5 42 callsubr
          87 96 hintmask 11010000
          183 641 rmoveto
          hintmask 10110000
          -88 callsubr
          83 705 -92 callgsubr
          endchar
        </CharString>
        <CharString name="lcaron">
          -192 0 -77 callgsubr
          595.5 42 callsubr
          87 96 hintmask 11010000
          183 641 rmoveto
          hintmask 10110000
          -88 callsubr
          92 403 -31 callsubr
        </CharString>
        <CharString name="lcommaaccent">
          -206 19 callsubr
          -77 callgsubr
          595.5 42 callsubr
          87 96 -64 70 hintmask 11101000
          183 641 rmoveto
          hintmask 11011000
          -88 callsubr
          hintmask 11010100
          6 -180 -104 callgsubr
        </CharString>
        <CharString name="ldot">
          -122 0 -77 callgsubr
          170.5 114 311 42 callsubr
          87 96 65 121 hintmask 11101000
          183 641 rmoveto
          hintmask 11011100
          -88 callsubr
          186 202 13 callgsubr
        </CharString>
        <CharString name="less">
          -60 42 362 hstem
          33 335 vstem
          368 105 rmoveto
          -254 119 254 117 -29 63 -306 -154 rlineto
          -53 vlineto
          306 -155 rlineto
          endchar
        </CharString>
        <CharString name="lessequal">
          -41 0 63 hstem
          46 336 vstem
          380 177 rmoveto
          -253 108 253 107 -27 63 -307 -145 rlineto
          -52 vlineto
          307 -144 rlineto
          29 62 callsubr
        </CharString>
        <CharString name="logicalnot">
          -5 191 65 hstem
          343 69 vstem
          56 191 rmoveto
          287 -153 69 218 -356 hlineto
          endchar
        </CharString>
        <CharString name="lslash">
          -190 0 -77 callgsubr
          367.5 -20 248 42 callsubr
          97 95 hintmask 11011000
          16 240 rmoveto
          81 39 rlineto
          -209 -7 callsubr
          -50 -7 rlineto
          -42 233 42 vlineto
          -49 7 rlineto
          -13 53 callsubr
          245 vlineto
          81 38 rlineto
          59 vlineto
          -81 -41 rlineto
          hintmask 11101000
          269 vlineto
          hintmask 11011000
          -13 13 -45 -1 -63 -7 -45 -14 rlinecurve
          -39 vlineto
          52 -7 52 callgsubr
          -7 -13 vvcurveto
          -230 vlineto
          -81 -38 rlineto
          endchar
        </CharString>
        <CharString name="m">
          305 -46 callsubr
          hstem
          95 96 159 95 159 95 vstem
          761 hmoveto
          42 vlineto
          -43 -61 callsubr
          190 vlineto
          105 -28 57 -100 -50 -52 -15 -43 -40 vhcurveto
          37 -17 -33 21 -58 hhcurveto
          -50 -49 -16 -39 -35 hvcurveto
          -6 42 -15 13 -42 -1 -52 -6 -43 -13 rlinecurve
          -93 callsubr
          -261 vlineto
          -12 -6 -8 -79 callsubr
          210 -3 callsubr
          263 vlineto
          18 27 33 9 28 hhcurveto
          57 14 -34 -76 hvcurveto
          -180 vlineto
          -13 -8 -6 -11 -3 vhcurveto
          -34 -7 rlineto
          -42 200 42 vlineto
          -33 7 rlineto
          -12 3 -7 6 13 vvcurveto
          194 vlineto
          25 -2 23 -4 20 vhcurveto
          20 29 31 8 28 hhcurveto
          58 19 -34 -78 hvcurveto
          -178 vlineto
          -13 -7 -6 -12 -3 vhcurveto
          -34 -7 rlineto
          -42 vlineto
          endchar
        </CharString>
        <CharString name="macron">
          -111 494 61 hstem
          56 251 vstem
          56 494 -8 callgsubr
        </CharString>
        <CharString name="minus">
          -36 191 65 hstem
          56 327 vstem
          56 191 rmoveto
          327 65 -327 hlineto
          endchar
        </CharString>
        <CharString name="minute">
          -278 411 241 hstem
          44 127 vstem
          44 411 rmoveto
          25 callgsubr
          endchar
        </CharString>
        <CharString name="multiply">
          -70 66 317 hstem
          47 311 vstem
          95 66 rmoveto
          107 116 108 -116 48 50 -112 108 112 108 -49 51 -107 -115 -106 115 -49 -51 111 -108 -111 -108 rlineto
          endchar
        </CharString>
        <CharString name="n">
          59 -46 callsubr
          hstem
          95 96 167 96 vstem
          516 -105 callgsubr
          endchar
        </CharString>
        <CharString name="nacute">
          59 -46 callsubr
          224 -20 hstem
          95 96 167 96 vstem
          516 -105 callgsubr
          -71 457 -91 callgsubr
        </CharString>
        <CharString name="napostrophe">
          71 -46 callsubr
          224 -20 hstemhm
          22 77 8 96 167 96 hintmask 11101100
          528 -105 callgsubr
          hintmask 11111100
          -218 -20 callsubr
        </CharString>
        <CharString name="ncaron">
          59 -46 callsubr
          225 48 callsubr
          95 96 167 96 hintmask 11011100
          516 -105 callgsubr
          79 649 rmoveto
          hintmask 11101100
          -59 callgsubr
          hintmask 11011100
          23 callsubr
        </CharString>
        <CharString name="ncommaaccent">
          59 19 callsubr
          -77 callgsubr
          315.5 62 hstemhm
          95 96 72 70 25 96 hintmask 11110100
          516 -105 callgsubr
          hintmask 11111100
          28 -109 -104 callgsubr
        </CharString>
        <CharString name="nine">
          -13 -10 57 129 59 228 48 hstem
          37 98 180 103 vstem
          226 -56 callgsubr
        </CharString>
        <CharString name="nine.tf">
          -30 -10 57 129 59 228 48 hstem
          28 98 180 103 vstem
          217 -56 callgsubr
        </CharString>
        <CharString name="notequal">
          -58 116 64 86 65 -65 160 hstemhm
          41 335 hintmask 11010000
          376 116 rmoveto
          64 -160 vlineto
          36 86 rlineto
          124 65 -96 hlineto
          hintmask 10110000
          40 95 rlineto
          -53 hlineto
          hintmask 11010000
          -40 -95 rlineto
          -186 -65 158 hlineto
          -36 -86 rlineto
          -122 -64 95 hlineto
          -39 -92 rlineto
          53 hlineto
          39 92 rlineto
          endchar
        </CharString>
        <CharString name="ntilde">
          59 -46 callsubr
          47 2 callgsubr
          95 96 167 96 hintmask 11001110
          516 -105 callgsubr
          hintmask 11101110
          118 49 callgsubr
          hintmask 11010110
          -62 callgsubr
          hintmask 11101110
          -29 callsubr
        </CharString>
        <CharString name="numbersign">
          59 0 182 -52 52 142 52 -52 175 hstemhm
          52 153.5 -93.5 47 callgsubr
          -33.5 74 77 47 callgsubr
          -34.5 47 callgsubr
          hintmask 1001010100000000
          105 hmoveto
          74 hlineto
          hintmask 0101010100000000
          13 130 rlineto
          117 hlineto
          hintmask 1001010100000000
          -12 -130 rlineto
          73 hlineto
          hintmask 0101010100000000
          13 130 rlineto
          hintmask 0101010010000000
          96 hlineto
          hintmask 1001010010000000
          52 -90 vlineto
          13 142 rlineto
          93 hlineto
          hintmask 1010010010000000
          52 -86 vlineto
          hintmask 1001010010000000
          13 123 rlineto
          -74 hlineto
          hintmask 1010001010000000
          -12 -123 rlineto
          -116 hlineto
          hintmask 1001001100000000
          12 123 rlineto
          -74 hlineto
          hintmask 1010001100000000
          -12 -123 rlineto
          hintmask 1010100100000000
          -94 hlineto
          hintmask 1001100100000000
          -52 vlineto
          hintmask 1001010100000000
          88 hlineto
          -15 -142 rlineto
          -85 hlineto
          hintmask 0101010100000000
          1 -52 rlineto
          78 hlineto
          hintmask 1001100100000000
          80 52 rmoveto
          13 142 rlineto
          117 hlineto
          -15 -142 rlineto
          endchar
        </CharString>
        <CharString name="o">
          1 callsubr
          hstem
          37 105 188 104 vstem
          -100 callgsubr
          endchar
        </CharString>
        <CharString name="oacute">
          1 callsubr
          222 -20 hstem
          37 105 188 104 vstem
          -100 callgsubr
          164 252 -91 callgsubr
        </CharString>
        <CharString name="obreve">
          1 callsubr
          47 69 hstem
          37 105 188 104 vstem
          -100 callgsubr
          340 381 -87 callgsubr
        </CharString>
        <CharString name="ocircumflex">
          1 callsubr
          210 -20 hstem
          37 105 188 104 vstem
          -100 callgsubr
          89 253 -80 callgsubr
        </CharString>
        <CharString name="odieresis">
          1 callsubr
          57 105 hstemhm
          37 105 -41 103 64 102 -40 104 hintmask 11010010
          -100 callgsubr
          hintmask 11101100
          167 329 -93 callgsubr
        </CharString>
        <CharString name="oe">
          248 -9 48 -48 63 175 42 107 47 hstemhm
          37 105 187 102 163 92 hintmask 10111110
          142 210 rmoveto
          121 29 47 62 73 23 -61 -111 -121 -29 -46 -62 -74 -22 62 109 vhcurveto
          hintmask 01111110
          542 -119 58 callsubr
          -72 -43 45 124 hvcurveto
          6 250 59 callsubr
          -96 -63 -50 -22 -41 -34 vhcurveto
          41 -29 -48 22 -67 hhcurveto
          -112 -91 -64 -156 hvcurveto
          hintmask 10111110
          -135 64 -79 126 63 54 20 45 35 vhcurveto
          hintmask 01111110
          -41 30 46 -24 66 hhcurveto
          79 64 38 62 -26 callgsubr
          31 31 46 hhcurveto
          endchar
        </CharString>
        <CharString name="ogonek">
          -111 -188 56 158 -21 hstem
          86 79 vstem
          278 -26 callsubr
        </CharString>
        <CharString name="ograve">
          1 callsubr
          222 -20 hstem
          37 105 188 104 vstem
          -100 callgsubr
          143 442 -68 callsubr
        </CharString>
        <CharString name="ohungarumlaut">
          1 callsubr
          228 28 callgsubr
          37 105 188 104 hintmask 11011100
          -100 callgsubr
          119 262 -35 callgsubr
          hintmask 11101100
          -13 callgsubr
        </CharString>
        <CharString name="omacron">
          1 callsubr
          69 61 hstemhm
          37 105 -32 251 -31 104 hintmask 11110100
          -100 callgsubr
          hintmask 11101000
          73 289 -8 callgsubr
        </CharString>
        <CharString name="one">
          -126 0 42 460 -20 30 -20 hstemhm
          149 93 hintmask 11010000
          242 -39 callgsubr
        </CharString>
        <CharString name="one.dnom">
          -96 0 45 hstem
          174 74 vstem
          248 349 -84 callgsubr
          endchar
        </CharString>
        <CharString name="one.numr">
          -96 228 45 304 -20 hstem
          170 74 vstem
          244 577 -84 callgsubr
          endchar
        </CharString>
        <CharString name="one.tf">
          -30 0 42 460 -20 30 -20 hstemhm
          195 93 hintmask 11010000
          288 -39 callgsubr
        </CharString>
        <CharString name="onehalf">
          386 0 51 177 45 31 54 210 -20 29 -20 hstemhm
          141 74 510 82 hintmask 11101110
          215 577 -84 callgsubr
          69 -296 rmoveto
          hintmask 11110110
          -18 callsubr
          344 -37 callsubr
        </CharString>
        <CharString name="onequarter">
          391 0 111 -44 44 117 45 68 14 213 -20 29 -20 hstemhm
          143 74 492 69 hintmask 01110111
          217 577 -84 callgsubr
          hintmask 10111011
          69 -296 rmoveto
          -18 callsubr
          hintmask 01110111
          334 67 rmoveto
          159 hlineto
          hintmask 10110111
          -67 69 vlineto
          hintmask 01110111
          -45 callsubr
        </CharString>
        <CharString name="onesuperior">
          -135 228 45 304 -20 hstem
          150 74 vstem
          224 577 -84 callgsubr
          endchar
        </CharString>
        <CharString name="ordfeminine">
          -75 247 49 -48 -77 callgsubr
          89 36.5 98 58 hstemhm
          42 90 101 85 hintmask 10111100
          172 296 rmoveto
          -28 -12 13 25 27 17 18 42 2 hvcurveto
          42 3 rlineto
          -69 vlineto
          -12 -16 -22 -7 -23 hhcurveto
          -35 -49 rmoveto
          42 36 14 25 23 hvcurveto
          hintmask 01111100
          -28 10 22 -10 31 hhcurveto
          21 29 7 3 13 hvcurveto
          34 vlineto
          -30 3 rlineto
          -11 1 -5 4 12 vvcurveto
          143 vlineto
          80 -39 40 -88 -71 -50 -27 -47 -18 vhcurveto
          20 -17 rlineto
          22 27 31 11 36 hhcurveto
          45 22 -16 -49 hvcurveto
          -33 vlineto
          -62 -4 rlineto
          hintmask 10111100
          -65 -4 -64 -26 -61 vvcurveto
          -48 38 -29 57 vhcurveto
          endchar
        </CharString>
        <CharString name="ordmasculine">
          -72 244 39 252 39 hstem
          39 95 135 95 vstem
          269 405 rmoveto
          -90 -22 -32 -44 -53 -16 41 89 90 22 32 44 53 16 -40 -90 vhcurveto
          -230 1 rmoveto
          -107 55 -55 102 95 73 46 122 107 -55 55 -102 -94 -74 -46 -122 vhcurveto
          endchar
        </CharString>
        <CharString name="oslash">
          -3 -9 45 -16 -21 381 45 -9 -20 hstemhm
          37 99 200 98 hintmask 01101100
          434 211 rmoveto
          hintmask 01011100
          86 -26 64 -53 35 vhcurveto
          32 63 -44 23 -33 -66 rlineto
          hintmask 01101100
          6 -20 -23 3 -25 hhcurveto
          -114 -91 -63 -157 -87 27 -65 55 -34 hvcurveto
          -34 -68 44 -23 36 71 rlineto
          -5 19 22 -3 23 hhcurveto
          115 90 63 157 hvcurveto
          -298 2 rmoveto
          120 32 47 65 23 18 -5 -11 14 vhcurveto
          -131 -280 rlineto
          -15 30 -6 43 56 vvcurveto
          hintmask 10101100
          103 -177 rmoveto
          -22 -17 5 9 -14 hvcurveto
          130 279 rlineto
          14 -29 6 -43 -54 vvcurveto
          -120 -33 -47 -64 vhcurveto
          endchar
        </CharString>
        <CharString name="otilde">
          1 callsubr
          45 2 callgsubr
          37 105 188 104 hintmask 11001110
          -100 callgsubr
          hintmask 11101110
          353 364 -16 callgsubr
          hintmask 11010110
          -62 callgsubr
          hintmask 11101110
          -29 callsubr
        </CharString>
        <CharString name="p">
          23 56 callgsubr
          hstemhm
          87 96 176 103 hintmask 11011100
          246 36 rmoveto
          -24 -23 5 10 -16 hvcurveto
          286 vlineto
          15 18 27 12 34 hhcurveto
          68 31 -50 -106 -2 hvcurveto
          -128 -45 -44 -68 vhcurveto
          216 191 rmoveto
          138 -69 60 -91 -56 -39 -23 -32 -28 vhcurveto
          -6 40 -15 13 rlineto
          -44 -50 -8 -12 -43 hvcurveto
          -42 vlineto
          49 -7 rlineto
          11 -2 6 -9 -12 vvcurveto
          -441 -66 callgsubr
          -1 vhcurveto
          -44 64 callgsubr
          -12 1 -7 8 12 vvcurveto
          hintmask 10111100
          109 vlineto
          hintmask 11011100
          -5 21 22 -2 19 hhcurveto
          134 83 86 149 hvcurveto
          endchar
        </CharString>
        <CharString name="paragraph">
          68 0 42 478 57 -52 43 hstemhm
          192 78 82 79 hintmask 11011000
          105 -132 rmoveto
          126 37 39 47 131 vvcurveto
          437 vlineto
          27 33 -2 -2 22 hvcurveto
          -516 155 42 vlineto
          -58 11 rlineto
          -11 2 -7 8 11 vvcurveto
          hintmask 10111000
          419 vlineto
          11 6 7 12 2 vhcurveto
          54 12 rlineto
          43 -81 vlineto
          -82 -68 9 -55 hhcurveto
          hintmask 11011000
          -132 -59 -69 -90 -112 86 -52 80 -7 hvcurveto
          -131 vlineto
          -111 -17 -46 -89 -48 vhcurveto
          endchar
        </CharString>
        <CharString name="parenleft">
          -211 -167 907 66 callgsubr
          49 -90 139 3 248 1 221 80 130 38 54 -32 33 rcurveline
          -39 -33 -140 -159 -258 vvcurveto
          -285 147 -144 32 -28 vhcurveto
          endchar
        </CharString>
        <CharString name="parenright">
          -211 -167 907 hstem
          136 91 vstem
          227 283 rmoveto
          285 -147 144 -31 28 vhcurveto
          -33 -33 32 -49 90 -138 -2 -248 rlinecurve
          -2 -222 -80 -130 -38 -54 33 -33 rcurveline
          38 33 140 159 258 vvcurveto
          endchar
        </CharString>
        <CharString name="partialdiff">
          14 -9 61 270 50 207 64 hstem
          37 103 214 98 vstem
          37 162 rmoveto
          -104 62 -67 106 167 80 168 183 179 -78 122 -150 -68 -53 -24 -40 -33 vhcurveto
          20 -31 rlineto
          19 27 32 12 37 hhcurveto
          113 45 -115 -119 9 hvcurveto
          19 -33 -39 8 -37 hhcurveto
          -115 -92 -82 -128 hvcurveto
          192 -110 rmoveto
          -57 -32 54 71 81 40 64 75 32 38 -10 -24 29 hvcurveto
          -117 -3 -37 -119 -85 hhcurveto
          endchar
        </CharString>
        <CharString name="percent">
          245 4 callgsubr
          hintmask 0110111110000000
          -43 callgsubr
          hintmask 1001111110000000
          -30 callgsubr
          endchar
        </CharString>
        <CharString name="period">
          -258 -7 115 hstem
          48 121 vstem
          169 50 rmoveto
          -42 callsubr
        </CharString>
        <CharString name="periodcentered">
          -247 185 115 hstem
          54 121 vstem
          175 242 rmoveto
          -42 callsubr
        </CharString>
        <CharString name="perthousand">
          581 4 callgsubr
          50 79 126 82 hintmask 0110111000000000
          -43 callgsubr
          hintmask 1001000111100000
          -30 callgsubr
          545 1 rmoveto
          89 -53 61 -88 -76 -70 -55 -108 -89 52 -62 88 75 72 57 107 vhcurveto
          -208 -1 rmoveto
          70 21 38 38 44 23 -46 -73 -69 -20 -38 -39 -42 -25 44 74 vhcurveto
          endchar
        </CharString>
        <CharString name="pi">
          62 -9 73 266 83 -11 11 hstemhm
          304 85.5 hintmask 11010000
          237 233 rmoveto
          19 97 rlineto
          73 hlineto
          -20 -191 rlineto
          -3 -20 -2 -27 -15 vvcurveto
          -56 24 -30 46 42 49 24 32 31 vhcurveto
          -17 37 rlineto
          -12 -23 -27 -8 -17 hhcurveto
          -20 -9 15 43 2 hvcurveto
          9 208 rlineto
          101 hlineto
          hintmask 10110000
          22 72 rlineto
          hintmask 11010000
          -14 13 -323 -2 rlineto
          -84 -43 -32 -90 -23 hvcurveto
          37 -19 rlineto
          39 25 28 19 42 hhcurveto
          41 hlineto
          -13 -49 -35 -120 -58 -71 -61 -30 rlinecurve
          -1 -18 57 -55 72 49 47 70 26 127 rlinecurve
          endchar
        </CharString>
        <CharString name="plus">
          -65 192 63 hstem
          171 68 vstem
          239 53 rmoveto
          82 vlineto
          -3 59 60 -2 rlineto
          76 63 -76 hlineto
          -60 -3 3 60 rlineto
          82 -68 -82 vlineto
          3 -60 -60 3 rlineto
          -77 -63 77 hlineto
          60 2 -3 -59 rlineto
          -82 vlineto
          endchar
        </CharString>
        <CharString name="plusminus">
          -41 0 62 173 62 -62 190 hstemhm
          183 68 hintmask 11010000
          251 110 rmoveto
          69 vlineto
          -2 58 59 -2 rlineto
          77 62 -77 hlineto
          -59 -2 rlineto
          hintmask 10110000
          2 59 rlineto
          71 -68 vlineto
          hintmask 11010000
          -71 vlineto
          3 -59 -59 2 rlineto
          -78 -62 78 hlineto
          59 2 -3 -58 rlineto
          -69 vlineto
          198 -110 rmoveto
          62 -328 -62 vlineto
          endchar
        </CharString>
        <CharString name="product">
          145 -82 42 559 49 hstem
          109 100 204 99 vstem
          512 493 rmoveto
          12 6 7 12 3 vhcurveto
          58 10 rlineto
          43 -555 -43 vlineto
          57 -12 52 callgsubr
          -7 -12 vvcurveto
          -499 vlineto
          -12 -7 -8 -12 -2 vhcurveto
          -57 -11 rlineto
          -42 236 42 vlineto
          -43 10 rlineto
          -12 3 -5 7 12 vvcurveto
          527 204 -527 vlineto
          -12 -7 -7 -11 -3 vhcurveto
          -40 -10 rlineto
          -42 233 42 vlineto
          -58 -44 callgsubr
          endchar
        </CharString>
        <CharString name="q">
          6 -180 45 127 59 327 47 -3 -20 hstemhm
          37 102 178 95 hintmask 11101100
          203 -8 rmoveto
          49 38 20 29 27 hvcurveto
          -151 vlineto
          -13 -7 -7 -12 -1 vhcurveto
          -62 -8 rlineto
          -41 228 41 vlineto
          -33 7 rlineto
          -11 2 -8 8 12 vvcurveto
          hintmask 11011100
          519 vlineto
          -16 13 rlineto
          hintmask 11101100
          -45 -20 rlineto
          14 -29 -38 9 -37 hhcurveto
          -127 -83 -83 -146 -144 72 -60 94 hvcurveto
          33 59 rmoveto
          -55 -42 38 123 123 48 43 64 26 23 -6 -14 17 hvcurveto
          -279 vlineto
          -17 -22 -28 -11 -31 hhcurveto
          endchar
        </CharString>
        <CharString name="question">
          -75 -7 109 484 51 hstemhm
          118 116 -111 80.5 69.5 101 hintmask 11011000
          200 174 rmoveto
          7 59 5 36 6 5 40 31 rlinecurve
          64 49 52 45 74 vvcurveto
          88 -72 76 -115 -65 -58 -25 -30 -36 vhcurveto
          2 -45 8 -49 13 -41 rrcurveto
          57 hlineto
          9 77 2 16 3 10 10 11 rlinecurve
          12 12 23 13 29 hhcurveto
          49 28 -38 -50 -51 -27 -33 -56 -52 hvcurveto
          -40 -37 -27 -20 -42 vvcurveto
          -27 13 -36 10 -26 vhcurveto
          hintmask 11101000
          88 -127 14 callgsubr
        </CharString>
        <CharString name="questiondown">
          -81 -219 51 485 108 hstemhm
          24 101 39 116 -85.5 81.5 hintmask 11101000
          198 245 rmoveto
          -7 -59 -5 -37 -6 -4 -40 -32 rlinecurve
          -64 -48 -52 -46 -74 vvcurveto
          -88 72 -76 114 66 58 25 30 36 vhcurveto
          -2 45 -8 49 -13 41 rrcurveto
          -58 hlineto
          -8 -77 -2 -16 -3 -10 -10 -11 rlinecurve
          -12 -12 -24 -13 -28 hhcurveto
          -49 -28 38 50 51 26 33 58 53 hvcurveto
          39 36 28 20 42 vvcurveto
          28 -14 36 -10 26 vhcurveto
          hintmask 11110000
          -88 126 rmoveto
          -32 23 -22 35 35 23 21 33 33 -23 21 -35 -35 -23 -22 -32 vhcurveto
          endchar
        </CharString>
        <CharString name="quotedbl">
          -86 51 callsubr
          124.5 74.5 vstem
          265 330 32 callgsubr
          -183 -291 32 callgsubr
          endchar
        </CharString>
        <CharString name="quotedblbase">
          -85 -107 256 hstem
          100 76 85 76 vstem
          176 61 -55 callgsubr
        </CharString>
        <CharString name="quotedblleft">
          -107 434 255 hstem
          35 76 85 76 vstem
          196 522 rmoveto
          -50 callgsubr
          -161 hmoveto
          -50 callgsubr
          endchar
        </CharString>
        <CharString name="quotedblright">
          -106 426 256 hstem
          101 76 85 76 vstem
          177 594 -55 callgsubr
        </CharString>
        <CharString name="quoteleft">
          -268 434 255 hstem
          35 76 vstem
          35 522 rmoveto
          -50 callgsubr
          endchar
        </CharString>
        <CharString name="quoteright">
          -267 426 256 hstem
          101 76 vstem
          177 594 rmoveto
          -15 callgsubr
        </CharString>
        <CharString name="quotesinglbase">
          -246 -107 256 hstem
          100 76 vstem
          176 61 rmoveto
          -15 callgsubr
        </CharString>
        <CharString name="quotesingle">
          -285 51 callsubr
          vstem
          66 330 32 callgsubr
          endchar
        </CharString>
        <CharString name="r">
          -25 callgsubr
          hstemhm
          95 96 hintmask 10001010
          -81 callsubr
          hintmask 10100010
          -21 callgsubr
          hintmask 11000010
          11 -52 rlineto
          44 hlineto
          hintmask 10010010
          33 callgsubr
          hintmask 10000110
          -5 callgsubr
          endchar
        </CharString>
        <CharString name="racute">
          -25 callgsubr
          242 -20 hstemhm
          95 96 hintmask 10001011
          -81 callsubr
          hintmask 10100011
          -21 callgsubr
          hintmask 11000011
          11 -52 rlineto
          44 hlineto
          hintmask 10010011
          33 callgsubr
          hintmask 10000111
          -5 callgsubr
          -4 116 -91 callgsubr
        </CharString>
        <CharString name="radical">
          79 -139 819 hstem
          -7 563 vstem
          10 158 rmoveto
          61 15 13 4 10 -2 5 -13 rlinecurve
          123 -301 80 10 254 809 rlineto
          -70 hlineto
          -212 -717 -109 301 -20 10 -45 -13 -68 -35 -39 -30 rlinecurve
          endchar
        </CharString>
        <CharString name="rcaron">
          -25 callgsubr
          243 48 callsubr
          95 96 hintmask 1000100110000000
          -81 callsubr
          hintmask 1010000110000000
          -21 callgsubr
          hintmask 1100000110000000
          11 -52 rlineto
          44 hlineto
          hintmask 1001000110000000
          33 callgsubr
          hintmask 1000010110000000
          -5 callgsubr
          146 308 rmoveto
          hintmask 1000011010000000
          -59 callgsubr
          hintmask 1000010110000000
          23 callsubr
        </CharString>
        <CharString name="rcommaaccent">
          -78 19 callsubr
          -77 callgsubr
          222.5 157 -83 83 -11 -20 29 28 callgsubr
          95 96 -51 70 hintmask 1100010100000000
          -81 callsubr
          hintmask 1101000100000000
          -21 callgsubr
          hintmask 1110000100000000
          11 -52 rlineto
          44 hlineto
          hintmask 1100100100000000
          33 callgsubr
          hintmask 1100001100000000
          -5 callgsubr
          hintmask 1100001010000000
          23 -450 -104 callgsubr
        </CharString>
        <CharString name="registered">
          166 115 40 90 30.5 92.5 35 116 33 87 39 hstem
          40 45 131 64 97 69 110 45 vstem
          85 397 rmoveto
          142 98 100 138 138 97 -100 -142 -142 -98 -100 -137 -138 -98 100 142 vhcurveto
          -45 hmoveto
          -162 120 -120 161 161 119 120 162 162 -119 119 -161 -161 -120 -119 -162 vhcurveto
          283 6 rmoveto
          -14 -13 0 1 -16 hvcurveto
          112 vlineto
          2 13 10 1 11 hhcurveto
          44 19 -15 -40 -41 -22 -20 -32 hvcurveto
          -5 -130 rmoveto
          -26 5 rlineto
          -8 1 -4 5 9 vvcurveto
          75 49 vlineto
          8 -9 7 -13 6 -15 22 -53 rcurveline
          -21 9 7 -12 16 hhcurveto
          67 31 hlineto
          -24 7 -6 3 -7 13 -24 48 rcurveline
          -8 17 -10 10 -16 7 rrcurveto
          48 11 22 32 43 vvcurveto
          60 -38 26 -81 vhcurveto
          -22 -28 -1 -30 hhcurveto
          -66 -31 hlineto
          22 -5 rlineto
          8 -2 5 -5 -8 vvcurveto
          -207 vlineto
          -8 -4 -5 -8 -2 vhcurveto
          -23 -6 rlineto
          -28 137 vlineto
          endchar
        </CharString>
        <CharString name="ring">
          -111 465 41 93 42 hstem
          80 58 88 58 vstem
          284 553 -78 callsubr
        </CharString>
        <CharString name="s">
          51 callgsubr
          22 callsubr
          hintmask 11101000
          -43 callsubr
          hintmask 11011000
          -97 callgsubr
          hintmask 11101000
          -60 callsubr
          endchar
        </CharString>
        <CharString name="sacute">
          51 callgsubr
          222 -20 22 callsubr
          hintmask 11110100
          -43 callsubr
          hintmask 11101100
          -97 callgsubr
          hintmask 11110100
          -60 callsubr
          116 435 rmoveto
          hintmask 11101100
          65 39 71 56 33 42 -60 53 rcurveline
          -136 -159 rlineto
          endchar
        </CharString>
        <CharString name="scaron">
          51 callgsubr
          223 -20 21 -20 22 callsubr
          hintmask 11011010
          -43 callsubr
          hintmask 11010110
          -97 callgsubr
          hintmask 11011010
          -60 callsubr
          hintmask 11010110
          266 627 rmoveto
          hintmask 11100110
          -59 callgsubr
          hintmask 11010110
          23 callsubr
        </CharString>
        <CharString name="scedilla">
          -80 38 callsubr
          24 41 350 42 hstemhm
          41 55 -50 89 53 81 -2 93 hintmask 10111010
          44 22 rmoveto
          29 -12 41 -14 46 -4 rrcurveto
          hintmask 11110110
          -19 -58 rlineto
          -92 callsubr
          7 22 rlineto
          hintmask 10110101
          95 2 67 44 78 vvcurveto
          77 -63 31 -68 27 vhcurveto
          -97 callgsubr
          hintmask 10111001
          -31 -25 11 8 -12 hvcurveto
          -10 6 -3 7 -5 16 -14 55 rcurveline
          -50 hlineto
          hintmask 10111010
          -5 -34 -2 -41 5 -39 rrcurveto
          endchar
        </CharString>
        <CharString name="scircumflex">
          51 callgsubr
          210 -20 22 callsubr
          hintmask 11110100
          -43 callsubr
          hintmask 11101100
          -97 callgsubr
          hintmask 11110100
          -60 callsubr
          41 436 rmoveto
          105 99 115 -98 33 31 rlineto
          hintmask 11101100
          -114 145 -68 -6 -103 -142 rlineto
          endchar
        </CharString>
        <CharString name="scommaaccent">
          -80 -171 -21 182 43 350 42 hstemhm
          41 55 -50 89 40 70 22 93 hintmask 11110010
          -43 callsubr
          hintmask 11101010
          -97 callgsubr
          hintmask 11110010
          -60 callsubr
          hintmask 11101110
          201 -131 -104 callgsubr
        </CharString>
        <CharString name="second">
          -104 411 241 hstem
          44 302 vstem
          44 411 rmoveto
          25 callgsubr
          113 hmoveto
          25 callgsubr
          endchar
        </CharString>
        <CharString name="section">
          -11 -104 45 615 45 hstemhm
          41 73 -50 84 176 84 -57 73 hintmask 11100100
          59 -62 rmoveto
          -17 28 66 -25 77 hhcurveto
          hintmask 11101000
          124 54 60 70 44 -18 28 -37 24 hvcurveto
          hintmask 11010100
          40 22 31 42 57 vvcurveto
          72 -54 37 -84 38 vhcurveto
          -88 41 -50 19 46 vvcurveto
          35 27 25 53 30 30 -8 -11 16 vhcurveto
          11 -8 4 -8 1 -9 13 -66 rcurveline
          56 hlineto
          7 39 2 41 -2 40 rrcurveto
          15 -26 -64 20 -68 hhcurveto
          -123 -51 -60 -67 -43 18 -28 33 -25 hvcurveto
          hintmask 11101000
          -40 -21 -34 -44 -58 vvcurveto
          -72 53 -38 86 -38 vhcurveto
          95 -42 49 -17 -45 vvcurveto
          -37 -31 -25 -54 -36 -33 10 15 -19 vhcurveto
          -11 8 -4 9 -1 8 -13 67 rcurveline
          -56 hlineto
          hintmask 11100100
          -7 -40 -2 -41 2 -39 rrcurveto
          200 232 rmoveto
          -97 43 -48 25 50 vvcurveto
          24 13 27 18 19 vhcurveto
          18 -10 21 -10 23 -11 rrcurveto
          97 -44 47 -24 -49 vvcurveto
          -24 -12 -26 -18 -19 vhcurveto
          -18 9 -21 10 -23 10 rrcurveto
          endchar
        </CharString>
        <CharString name="semicolon">
          -229 299 114 hstemhm
          62 120 -70 77 hintmask 10100000
          189 27 rmoveto
          59 -31 31 -39 -33 -24 -24 -33 -26 15 -16 14 -9 vhcurveto
          13 -8 8 -3 -19 vvcurveto
          -34 -24 -40 -38 -34 vhcurveto
          20 -26 rlineto
          64 36 55 68 78 vvcurveto
          hintmask 11000000
          -7 329 rmoveto
          35 -23 22 -37 -36 -24 -22 60 callsubr
          endchar
        </CharString>
        <CharString name="seven">
          -60 57 callgsubr
          35 364 hintmask 10101000
          334 -41 callsubr
        </CharString>
        <CharString name="seven.tf">
          -30 57 callgsubr
          50 364 hintmask 10101000
          349 -41 callsubr
        </CharString>
        <CharString name="six">
          -13 -10 48 229 58 129 57 hstem
          43 104 180 98 vstem
          237 -50 callsubr
        </CharString>
        <CharString name="six.tf">
          -30 -10 48 229 58 129 57 hstem
          34 104 180 98 vstem
          228 -50 callsubr
        </CharString>
        <CharString name="slash">
          -115 633 -20 hstem
          25 311 vstem
          104 -105 rmoveto
          232 738 rlineto
          -79 hlineto
          -232 -738 rlineto
          endchar
        </CharString>
        <CharString name="space">
          -268 endchar
        </CharString>
        <CharString name="sterling">
          17 37 callsubr
          116 99 172 69 hintmask 10011110
          456 15 callgsubr
          -18 -19 -37 hhcurveto
          hintmask 01111100
          -38 -46 19 -49 hhcurveto
          17 22 17 43 62 vvcurveto
          23 119 47 -119 72 vlineto
          95 32 21 28 16 15 -3 -9 12 vhcurveto
          11 -7 3 -9 2 55 callsubr
          -3 42 rrcurveto
          15 -34 -40 11 -42 hhcurveto
          -109 -69 -76 -123 hvcurveto
          -35 -72 -47 72 -37 vlineto
          -88 -44 -34 -40 -26 vhcurveto
          27 -51 29 9 34 17 28 25 rlinecurve
          hintmask 10011100
          69 56 -56 77 hhcurveto
          hintmask 10011110
          58 46 31 74 hvcurveto
          endchar
        </CharString>
        <CharString name="sterling.tf">
          -30 37 callsubr
          95 98 160 69 hintmask 10011110
          422 15 callgsubr
          -17 -19 -38 hhcurveto
          hintmask 01111100
          -34 -42 19 -45 hhcurveto
          17 22 17 43 62 vvcurveto
          23 117 47 -117 72 vlineto
          95 29 21 25 14 14 -3 -9 11 vhcurveto
          10 -8 4 -8 1 55 callsubr
          -2 42 rrcurveto
          15 -33 -39 11 -41 hhcurveto
          -105 -65 -76 -123 hvcurveto
          -35 -73 -47 73 -37 vlineto
          -88 -43 -34 -38 -26 vhcurveto
          27 -51 27 9 33 17 27 25 rlinecurve
          hintmask 10011100
          65 53 -56 73 hhcurveto
          hintmask 10011110
          57 46 31 74 hvcurveto
          endchar
        </CharString>
        <CharString name="summation">
          37 -82 65 422 163 -46 46 hstemhm
          396 49 hintmask 10110000
          456 -82 rmoveto
          9 63 5 67 1 55 -48 9 rcurveline
          -29 -97 -4 -12 -5 -7 -11 -5 rlinecurve
          -5 -14 -27 -3 -34 hhcurveto
          -174 hlineto
          202 287 -172 252 rlineto
          126 hlineto
          31 25 -3 -5 15 hvcurveto
          hintmask 11010000
          11 -5 6 -6 4 -14 23 -84 rcurveline
          49 hlineto
          hintmask 10110000
          5 63 -2 53 -5 47 rrcurveto
          -393 hlineto
          -20 -36 203 -292 -207 -288 18 -34 rlineto
          endchar
        </CharString>
        <CharString name="t">
          -138 -7 67 298 56 -54 47 hstemhm
          82 96 hintmask 11010000
          -51 callsubr
          hintmask 10110000
          -36 callgsubr
          endchar
        </CharString>
        <CharString name="tbar">
          -136 -7 67 158 50 88 58 -56 49 hstemhm
          83 96 hintmask 11101000
          25 218 rmoveto
          58 -108 hlineto
          -92 49 -25 65 60 50 24 48 23 vhcurveto
          -23 23 rlineto
          -19 -20 -25 -9 -27 hhcurveto
          -36 -20 16 60 hvcurveto
          82 124 50 -124 88 128 58 -129 vlineto
          -2 127 rlineto
          -54 hlineto
          hintmask 11011000
          -31 -110 -4 -12 -6 -6 -13 -2 rlinecurve
          -46 -8 rlineto
          -41 vlineto
          61 -8 rlineto
          -86 -58 vlineto
          endchar
        </CharString>
        <CharString name="tcaron">
          -138 -7 67 298 56 -54 47 hstemhm
          82 96 hintmask 11010000
          -51 callsubr
          hintmask 10110000
          -36 callgsubr
          187 119 -31 callsubr
        </CharString>
        <CharString name="thorn">
          4 56 callgsubr
          217 -20 32 -20 hstemhm
          67 96 177 101 hintmask 11010111
          226 36 rmoveto
          -25 -22 5 9 -16 hvcurveto
          289 vlineto
          14 18 27 11 33 hhcurveto
          66 34 -46 -110 -1 hvcurveto
          -127 -2 -43 -45 -69 hhcurveto
          215 191 rmoveto
          139 -68 59 -92 -52 -37 -19 -29 -29 vhcurveto
          hintmask 11011011
          265 vlineto
          hintmask 10110111
          -14 12 -45 -1 -62 -8 -46 -12 rlinecurve
          -40 vlineto
          52 -8 rlineto
          12 -1 7 -8 -12 vvcurveto
          -674 -73 callsubr
          -13 -1 vhcurveto
          -43 64 callgsubr
          -13 1 -6 8 12 vvcurveto
          109 vlineto
          hintmask 11010111
          -5 20 22 -2 20 hhcurveto
          134 82 85 150 hvcurveto
          endchar
        </CharString>
        <CharString name="three">
          -50 -10 61 189 28 178 65 hstemhm
          256 101 -78 106 hintmask 11101000
          385 -63 callgsubr
        </CharString>
        <CharString name="three.dnom">
          -96 -6 50 110 41 111 52 hstemhm
          226 77 -58 82 hintmask 11101000
          48 43 -2 callsubr
          55 -49 31 -58 hvcurveto
          hintmask 11110000
          -52 callsubr
          -35 -30 -24 -59 hvcurveto
          -12 -41 hlineto
          hintmask 11101000
          -23 callsubr
          endchar
        </CharString>
        <CharString name="three.numr">
          -96 45 callsubr
          229 77 -58 82 hintmask 10110100
          51 -53 callsubr
        </CharString>
        <CharString name="three.tf">
          -30 -10 61 189 28 178 65 hstemhm
          266 101 -78 106 hintmask 11101000
          395 -63 callgsubr
        </CharString>
        <CharString name="threequarters">
          390 0 111 -44 44 111 50 69 14 27 31 -31 41 111 52 -18 -20 hstemhm
          210 77 -58 82 398 69 hintmask 0110010101100000
          32 271 -2 callsubr
          hvcurveto
          hintmask 0110100101100000
          55 -49 31 -58 vhcurveto
          hintmask 0110101010100000
          -52 callsubr
          hvcurveto
          hintmask 0110010110100000
          -35 -30 -24 -59 vhcurveto
          -12 -41 hlineto
          hintmask 1010010101100000
          -23 callsubr
          233 -302 rmoveto
          -18 callsubr
          hintmask 0110010101100000
          335 67 rmoveto
          159 hlineto
          hintmask 1010010101100000
          -67 69 vlineto
          hintmask 0111010101100000
          -45 callsubr
        </CharString>
        <CharString name="threesuperior">
          -121 45 callsubr
          216 77 -58 82 hintmask 10110100
          38 -53 callsubr
        </CharString>
        <CharString name="tilde">
          -111 470 2 callgsubr
          28 308 hintmask 10110000
          336 49 callgsubr
          hintmask 01010000
          -62 callgsubr
          hintmask 10110000
          -29 callsubr
        </CharString>
        <CharString name="tildecomb">
          470 2 callgsubr
          -154 308 hintmask 10110000
          154 49 callgsubr
          hintmask 01010000
          -62 callgsubr
          hintmask 10110000
          -29 callsubr
        </CharString>
        <CharString name="tildecomb.case">
          616 36 callgsubr
          -160 320 hintmask 10010000
          160 712 -17 callgsubr
          hintmask 01110000
          -62 callsubr
          hintmask 10010000
          37 33 -50 55 hhcurveto
          53 38 48 48 13 hvcurveto
          endchar
        </CharString>
        <CharString name="trademark">
          357 276 32 225 35 hstem
          149 72 120 122 176 146 vstem
          276 276 rmoveto
          29 vlineto
          -39 6 rlineto
          -11 2 -5 6 10 vvcurveto
          204 41 vlineto
          11 6 -5 -10 2 hvcurveto
          13 -57 rlineto
          31 hlineto
          3 38 -1 36 -4 33 rrcurveto
          -275 hlineto
          -6 -33 -1 -35 3 -39 rrcurveto
          31 hlineto
          15 57 rlineto
          10 2 7 5 10 hhcurveto
          40 -205 hlineto
          -10 -6 -5 -10 -2 vhcurveto
          -36 -7 rlineto
          -28 vlineto
          366 hmoveto
          29 vlineto
          -40 7 25 206 81 -244 rlineto
          48 hlineto
          74 239 26 -201 -38 -7 rlineto
          -29 146 29 vlineto
          -24 6 -9 3 -6 5 -2 9 rlinecurve
          -25 186 -1 10 6 6 10 2 rlinecurve
          26 5 rlineto
          31 -132 vlineto
          -61 -200 -62 200 rlineto
          -140 -31 hlineto
          27 -5 11 -2 6 -5 -1 -11 rlinecurve
          -25 -186 -2 -11 -5 -4 -9 -2 rlinecurve
          -26 -6 rlineto
          -29 vlineto
          endchar
        </CharString>
        <CharString name="two">
          -32 0 65 370 76 hstem
          271 105 vstem
          386 -53 callgsubr
        </CharString>
        <CharString name="two.dnom">
          -96 0 51 253 54 hstem
          224 82 vstem
          57 -37 callsubr
        </CharString>
        <CharString name="two.numr">
          -96 228 51 229 -20 44 54 hstemhm
          226 82 hintmask 11010000
          59 -44 callsubr
        </CharString>
        <CharString name="two.tf">
          -30 0 65 370 76 hstem
          272 105 vstem
          387 -53 callgsubr
        </CharString>
        <CharString name="twosuperior">
          -102 228 51 229 -20 44 54 hstemhm
          222 82 hintmask 11010000
          55 -44 callsubr
        </CharString>
        <CharString name="u">
          -75 callsubr
          11 callgsubr
          hintmask 10111000
          491 7 rmoveto
          hintmask 01111000
          -98 callsubr
          hintmask 10111000
          -105 callsubr
          endchar
        </CharString>
        <CharString name="uacute">
          -75 callsubr
          244 -20 11 callgsubr
          hintmask 10111100
          491 7 rmoveto
          hintmask 01111100
          -98 callsubr
          hintmask 10111100
          -105 callsubr
          -282 450 -91 callgsubr
        </CharString>
        <CharString name="ubreve">
          -75 callsubr
          69 69 11 callgsubr
          hintmask 10111100
          491 7 rmoveto
          hintmask 01111100
          -98 callsubr
          hintmask 10111100
          -105 callsubr
          -106 579 -87 callgsubr
        </CharString>
        <CharString name="ucircumflex">
          -75 callsubr
          232 -20 11 callgsubr
          hintmask 10111100
          491 7 rmoveto
          hintmask 01111100
          -98 callsubr
          hintmask 10111100
          -105 callsubr
          -357 451 -80 callgsubr
        </CharString>
        <CharString name="udieresis">
          -75 callsubr
          79 105 hstemhm
          81 96 -68 103 64 102 -43 95 hintmask 10111001
          491 7 rmoveto
          hintmask 01111001
          -98 callsubr
          hintmask 10111001
          -105 callsubr
          hintmask 10110110
          -279 527 -93 callgsubr
        </CharString>
        <CharString name="ugrave">
          -75 callsubr
          244 -20 11 callgsubr
          hintmask 10111100
          491 7 rmoveto
          hintmask 01111100
          -98 callsubr
          hintmask 10111100
          -105 callsubr
          -303 640 -68 callsubr
        </CharString>
        <CharString name="uhungarumlaut">
          -75 callsubr
          250 -20 22 -20 11 callgsubr
          hintmask 10101110
          491 7 rmoveto
          hintmask 01101110
          -98 callsubr
          hintmask 10101110
          -105 callsubr
          -327 460 -35 callgsubr
          hintmask 10110110
          -13 callgsubr
        </CharString>
        <CharString name="umacron">
          -75 callsubr
          91 61 11 callgsubr
          hintmask 10111100
          491 7 rmoveto
          hintmask 01111100
          -98 callsubr
          hintmask 10111100
          -105 callsubr
          -373 487 -8 callgsubr
        </CharString>
        <CharString name="underscore">
          162 -141 50 hstem
          0 637 vstem
          -91 vmoveto
          -50 637 50 vlineto
          endchar
        </CharString>
        <CharString name="uni000D">
          endchar
        </CharString>
        <CharString name="uni00A0">
          -268 endchar
        </CharString>
        <CharString name="uni00AD">
          -78 185 64 hstem
          55 287 vstem
          55 185 rmoveto
          287 64 -287 hlineto
          endchar
        </CharString>
        <CharString name="uni00B5">
          63 27 callgsubr
          79 36 callsubr
          167 -68 callgsubr
        </CharString>
        <CharString name="uni0162">
          87 38 callsubr
          32 42 341 6 callsubr
          -49 81 118 51 hintmask 1010101010000000
          -60 callgsubr
          hintmask 1011001010000000
          37 callgsubr
          hintmask 1010111010000000
          -8 callsubr
          hintmask 1011011010000000
          -1 callgsubr
          hintmask 1010101010000000
          -58 callsubr
          hintmask 1110100110000000
          130 hlineto
          -22 -66 rlineto
          -92 callsubr
          10 32 rlineto
          endchar
        </CharString>
        <CharString name="uni0163">
          -138 38 callsubr
          25 67 -41 -21 360 56 -54 47 hstemhm
          82 96 1 81 hintmask 10011010
          82 110 rmoveto
          -70 28 -31 43 -11 vhcurveto
          hintmask 11011001
          -21 -64 rlineto
          -92 callsubr
          hintmask 10101001
          8 25 rlineto
          2 3 0 2 hhcurveto
          59 50 24 48 23 hvcurveto
          -23 23 rlineto
          hintmask 10101010
          -19 -19 -26 -9 -27 hhcurveto
          -36 -20 16 60 hvcurveto
          222 128 56 -129 vlineto
          -2 127 rlineto
          -54 hlineto
          hintmask 10010110
          -36 callgsubr
          endchar
        </CharString>
        <CharString name="uni018F">
          80 -10 48 192 49 252 47 hstem
          39 107 258 110 vstem
          258 -10 rmoveto
          153 103 104 191 195 -107 98 -164 -69 -66 -17 -30 -47 hvcurveto
          -1 -39 6 -57 10 -42 rrcurveto
          58 hlineto
          17 87 1 10 4 8 10 8 rlinecurve
          14 16 28 11 36 hhcurveto
          98 57 -92 -160 3 hvcurveto
          -359 hlineto
          -3 -13 -3 -27 -28 vvcurveto
          -151 93 -70 126 vhcurveto
          7 48 rmoveto
          -79 -40 60 88 18 1 15 2 11 hvcurveto
          254 hlineto
          -121 -7 -45 -71 -86 hhcurveto
          endchar
        </CharString>
        <CharString name="uni0192">
          -66 -174 -21 422 57 163 35 callsubr
          97.5 95.5 -83 95 hintmask 11101000
          135 -114 rmoveto
          24 32 18 49 10 127 12 133 rcurveline
          116 57 hlineto
          hintmask 11100100
          -113 hlineto
          6 61 rlineto
          77 7 26 25 40 hhcurveto
          9 12 -3 -6 7 hvcurveto
          6 -6 1 -8 1 -10 6 -52 rcurveline
          50 hlineto
          hintmask 11011000
          10 42 9 44 2 42 rrcurveto
          hintmask 11100100
          15 -22 -33 6 -25 hhcurveto
          -93 -98 -88 -115 -12 hvcurveto
          -2 -23 rlineto
          hintmask 11101000
          -72 -11 rlineto
          -40 vlineto
          66 -10 -11 -129 -11 -140 -13 -50 -84 -59 rlinecurve
          25 -41 53 17 46 28 27 36 rlinecurve
          endchar
        </CharString>
        <CharString name="uni01FC">
          -81 callgsubr
          351 440 -92 callgsubr
          endchar
        </CharString>
        <CharString name="uni01FD">
          11 callsubr
          222 -20 45 callgsubr
          95 164 92 hintmask 1001011111000000
          -22 callgsubr
          hintmask 0111101111000000
          -34 callgsubr
          hintmask 1001011111000000
          -46 29 49 -27 71 hhcurveto
          79 66 37 63 -26 callgsubr
          32 31 45 hhcurveto
          hintmask 0111011111000000
          -6 callsubr
          124 407 -91 callgsubr
        </CharString>
        <CharString name="uni021A">
          87 19 callsubr
          42 341 6 callsubr
          -62 70 142 51 hintmask 11010101
          -60 callgsubr
          hintmask 11100101
          37 callgsubr
          hintmask 11011101
          -8 callsubr
          hintmask 11101101
          -1 callgsubr
          hintmask 11010101
          -58 callsubr
          hintmask 11010011
          212 -109 -104 callgsubr
        </CharString>
        <CharString name="uni021B">
          -138 -171 -21 185 67 298 56 -54 47 hstemhm
          82 96 -12 70 hintmask 11101000
          -51 callsubr
          hintmask 11011000
          -36 callgsubr
          hintmask 11100100
          154 -465 -104 callgsubr
        </CharString>
        <CharString name="uni0259">
          -47 -9 46 134 42 149 63 hstem
          36 91 164 100 vstem
          391 211 rmoveto
          138 -72 76 -117 -69 -58 -27 -51 -30 vhcurveto
          25 -23 rlineto
          23 25 34 15 42 hhcurveto
          69 44 -41 -108 6 hvcurveto
          -249 hlineto
          -3 -16 -2 -25 -19 vvcurveto
          -107 62 -55 98 116 79 76 144 vhcurveto
          -187 -174 rmoveto
          -49 -28 35 67 13 1 11 2 8 hvcurveto
          161 hlineto
          -104 -4 -35 -30 -48 hhcurveto
          endchar
        </CharString>
        <CharString name="uni02BC">
          -190 647 -20 hstem
          119 77 vstem
          196 -20 callsubr
        </CharString>
        <CharString name="uni02C9">
          -111 498 61 hstem
          56 251 vstem
          56 498 -8 callgsubr
        </CharString>
        <CharString name="uni0302">
          635 -20 hstem
          -142 285 vstem
          -110 458 -80 callgsubr
        </CharString>
        <CharString name="uni0302.case">
          636 -4 callgsubr
          -148 296 hintmask 01100000
          -120 604 -83 callgsubr
          rlineto
          hintmask 10100000
          -23 callgsubr
        </CharString>
        <CharString name="uni0304">
          494 61 hstem
          -126 251 vstem
          -126 494 -8 callgsubr
        </CharString>
        <CharString name="uni0304.case">
          638 60 hstem
          -129 258 vstem
          -129 638 19 callgsubr
          endchar
        </CharString>
        <CharString name="uni0306">
          472 69 hstem
          -141 282 vstem
          141 586 -87 callgsubr
        </CharString>
        <CharString name="uni0306.case">
          613 70 hstem
          -143 286 vstem
          143 724 -85 callgsubr
          endchar
        </CharString>
        <CharString name="uni0307">
          479 114 hstem
          -52 120 vstem
          68 536 -86 callgsubr
          endchar
        </CharString>
        <CharString name="uni0307.case">
          621 115 hstem
          -61 122 vstem
          61 678 -56 callsubr
        </CharString>
        <CharString name="uni0308">
          482 105 hstem
          -135 103 64 102 vstem
          -32 534 -93 callgsubr
        </CharString>
        <CharString name="uni0308.case">
          618 105 hstem
          -144 103 82 103 vstem
          -41 671 -95 callsubr
          endchar
        </CharString>
        <CharString name="uni030A">
          465 41 93 42 hstem
          -102 58 88 58 vstem
          102 553 -78 callsubr
        </CharString>
        <CharString name="uni030A.case">
          597 43 96 42 hstem
          -105 59 92 59 vstem
          105 688 -29 callgsubr
        </CharString>
        <CharString name="uni030B">
          653 28 callgsubr
          -111 309 hintmask 01100000
          -80 467 -35 callgsubr
          hintmask 10100000
          -13 callgsubr
        </CharString>
        <CharString name="uni030B.case">
          599 168 hstem
          -130 341 vstem
          -100 599 -48 callgsubr
        </CharString>
        <CharString name="uni030C">
          648 48 callsubr
          -138 285 hintmask 01100000
          115 649 rmoveto
          hintmask 10100000
          -59 callgsubr
          hintmask 01100000
          23 callsubr
        </CharString>
        <CharString name="uni030C.case">
          748 -21 hstem
          -148 296 vstem
          119 759 -79 callgsubr
        </CharString>
        <CharString name="uni0326">
          -171 -21 hstem
          -12 70 vstem
          58 -109 -104 callgsubr
        </CharString>
        <CharString name="uni0327">
          -190 36 88 85 hstem
          1 81 vstem
          -18 19 rmoveto
          -28 -85 rlineto
          -92 callsubr
          16 51 rlineto
          endchar
        </CharString>
        <CharString name="uni0328">
          -188 56 158 -21 hstem
          -96 79 vstem
          96 -26 callsubr
        </CharString>
        <CharString name="uni0394">
          62 0 67 423 80 0 -20 hstemhm
          26 488 hintmask 10110000
          495 -11 callsubr
        </CharString>
        <CharString name="uni03A9">
          234 42 callgsubr
          96 109 303 110 vstem
          296 -72 callgsubr
        </CharString>
        <CharString name="uni03BC">
          40 27 callgsubr
          70 36 callsubr
          158 -68 callgsubr
        </CharString>
        <CharString name="uni1E9E">
          146 -10 47 -37 42 -42 167 365 46 hstemhm
          97 98 292 99 hintmask 10011100
          586 158 rmoveto
          105 -80 56 -88 28 vhcurveto
          112 167 -5 24 rlineto
          23 -61 -76 17 -65 hhcurveto
          -151 -75 -89 -160 hvcurveto
          hintmask 01011100
          -254 vlineto
          -11 -5 -9 -13 -25 callsubr
          174 353 vlineto
          110 38 69 79 41 44 -19 -23 31 vhcurveto
          -106 -184 9 -18 rlineto
          hintmask 10011100
          80 -21 76 -42 -94 vvcurveto
          -59 -31 -35 -48 -25 -24 10 10 -11 vhcurveto
          hintmask 00111100
          -9 7 -2 7 -2 10 -13 86 rcurveline
          -57 hlineto
          hintmask 10011100
          -8 -47 -4 -54 3 -44 rrcurveto
          -16 33 58 -16 54 hhcurveto
          117 68 71 97 hvcurveto
          endchar
        </CharString>
        <CharString name="uni2003">
          228 endchar
        </CharString>
        <CharString name="uni2009">
          -348 endchar
        </CharString>
        <CharString name="uni20B9">
          -5 57 callsubr
          50 53 callgsubr
          405 -65 callgsubr
        </CharString>
        <CharString name="uni20B9.tf">
          -30 57 callsubr
          34 53 callgsubr
          389 -65 callgsubr
        </CharString>
        <CharString name="uni20BA">
          26 0 56 445 -20 hstem
          127 95 153 92 vstem
          199 hmoveto
          179 89 79 130 12 -1 11 -1 8 hvcurveto
          -90 -11 rlineto
          -119 -50 -54 -103 vhcurveto
          169 vlineto
          130 56 rlineto
          48 vlineto
          -130 -56 rlineto
          59 vlineto
          131 57 rlineto
          49 vlineto
          -131 -57 rlineto
          120 -95 -162 vlineto
          -85 -37 rlineto
          -48 vlineto
          85 37 rlineto
          -59 vlineto
          -87 -38 rlineto
          -48 vlineto
          87 38 rlineto
          -184 vlineto
          endchar
        </CharString>
        <CharString name="uni20BA.tf">
          -30 0 56 445 -20 hstem
          93 95 138 92 vstem
          165 hmoveto
          169 84 77 127 12 -1 10 -1 9 hvcurveto
          -90 -12 rlineto
          -115 -46 -52 -92 vhcurveto
          169 vlineto
          122 52 rlineto
          49 vlineto
          -122 -53 rlineto
          60 vlineto
          124 53 rlineto
          48 vlineto
          -124 -53 rlineto
          120 -95 -161 vlineto
          -78 -34 rlineto
          -48 vlineto
          78 34 rlineto
          -60 vlineto
          -80 -34 rlineto
          -48 vlineto
          80 34 rlineto
          -184 vlineto
          endchar
        </CharString>
        <CharString name="uni20BD">
          43 41 callgsubr
          140 91 155 101 hintmask 10110110
          231 457 rmoveto
          1 14 21 4 24 hhcurveto
          62 34 -23 -66 -75 -43 -29 -73 hvcurveto
          -39 hlineto
          hintmask 01110110
          -176 -143 rmoveto
          85 29 callgsubr
          272 vlineto
          hintmask 01110110
          42 vlineto
          -87 12 rlineto
          -9 1 -9 8 10 vvcurveto
          53 163 vlineto
          hintmask 10101110
          43 -163 57 57 vlineto
          121 78 51 101 98 -73 29 -108 1 hvcurveto
          hintmask 10110110
          -46 -40 -5 -34 hhcurveto
          -122 -44 hlineto
          60 -12 rlineto
          9 -2 7 -8 -10 vvcurveto
          -156 -85 -43 85 -57 -85 vlineto
          endchar
        </CharString>
        <CharString name="uni20BD.tf">
          -30 41 callgsubr
          110 90 134 101 hintmask 10110110
          200 457 rmoveto
          1 12 16 4 22 hhcurveto
          54 30 -23 -66 -75 -39 -29 -66 hvcurveto
          -29 hlineto
          hintmask 01110110
          -168 -143 rmoveto
          78 29 callgsubr
          271 vlineto
          hintmask 01110110
          42 vlineto
          -88 12 rlineto
          -8 1 -9 8 10 vvcurveto
          53 150 vlineto
          hintmask 10101110
          43 -150 57 47 vlineto
          113 75 51 101 98 -70 29 -99 1 hvcurveto
          hintmask 10110110
          -43 -37 -5 -32 hhcurveto
          -120 -44 hlineto
          60 -12 rlineto
          10 -2 6 -8 -10 vvcurveto
          -156 -78 -43 78 -57 -78 vlineto
          endchar
        </CharString>
        <CharString name="uni2113">
          -59 -9 70 495 51 hstem
          88 84 134 88 vstem
          333 128 rmoveto
          -38 -20 -28 -29 -34 hhcurveto
          -29 -20 23 37 -13 hvcurveto
          139 116 66 139 108 vvcurveto
          83 -39 40 -54 -110 -103 -167 -217 -42 4 -36 7 -31 vhcurveto
          -23 -18 -26 -16 -27 -16 22 -40 rcurveline
          25 13 23 14 23 15 rrcurveto
          -49 23 37 -26 48 hhcurveto
          70 50 54 63 21 hvcurveto
          -193 142 rmoveto
          154 49 152 50 19 16 -23 -60 -103 -43 -101 -87 -89 vhcurveto
          -3 21 -1 24 25 vvcurveto
          endchar
        </CharString>
        <CharString name="uni2126">
          229 42 callgsubr
          92 109 303 110 vstem
          292 -72 callgsubr
        </CharString>
        <CharString name="uni2190">
          88 59 callgsubr
          39 479 vstem
          518 249 rmoveto
          67 -311 vlineto
          21 callsubr
          -144 143 50 -5 rlineto
          endchar
        </CharString>
        <CharString name="uni2191">
          88 50 479 hstem
          248 68 vstem
          248 50 rmoveto
          68 311 hlineto
          -5 48 142 -142 46 45 -217 217 rlineto
          -1 vlineto
          -1 1 -216 -217 45 -45 144 144 -6 -50 rlineto
          endchar
        </CharString>
        <CharString name="uni2192">
          85 59 callgsubr
          43 479 vstem
          305 65 rmoveto
          217 217 -217 217 -45 -45 143 -143 -49 5 rlineto
          -311 -67 311 hlineto
          50 5 -144 -143 rlineto
          endchar
        </CharString>
        <CharString name="uni2193">
          88 53 479 hstem
          248 68 vstem
          248 532 rmoveto
          -311 vlineto
          6 -50 -144 144 -45 -45 216 -217 1 1 rlineto
          -1 vlineto
          217 217 -46 45 -142 -142 5 48 rlineto
          311 vlineto
          endchar
        </CharString>
        <CharString name="uni2194">
          453 59 callgsubr
          39 873 vstem
          912 282 rmoveto
          -217 217 -46 -45 143 -143 -49 5 rlineto
          -536 hlineto
          21 callsubr
          -143 143 49 -5 rlineto
          536 hlineto
          49 5 -143 -143 46 -46 rlineto
          endchar
        </CharString>
        <CharString name="uni2195">
          88 501 -20 hstem
          247 69 vstem
          282 718 rmoveto
          -217 -217 46 -45 142 143 -6 -49 rlineto
          -536 vlineto
          6 -50 -142 144 -46 -46 217 -217 216 217 -45 46 -142 -144 5 50 rlineto
          536 vlineto
          -5 49 142 -143 45 45 rlineto
          endchar
        </CharString>
        <CharString name="uni2206">
          62 0 67 423 80 0 -20 hstemhm
          25 488 hintmask 10110000
          494 -11 callsubr
        </CharString>
        <CharString name="uni2215">
          -4 callsubr
        </CharString>
        <CharString name="uni25CA">
          -24 15 -21 hstem
          25 401 vstem
          226 112 rmoveto
          -106 155 -8 14 106 148 9 12 105 -149 9 -12 -106 -156 rlineto
          -9 -130 rmoveto
          51 72 149 214 -50 71 -150 206 -51 -69 -150 -208 50 -73 rlineto
          endchar
        </CharString>
        <CharString name="uogonek">
          39 -188 56 124 58 -33 -21 427 -20 hstemhm
          81 96 114 79 -35 95 hintmask 11011010
          482 -161 rmoveto
          hintmask 11011100
          -15 39 rlineto
          -7 -16 -16 -3 -15 hhcurveto
          -28 -22 13 27 34 34 35 49 21 hvcurveto
          hintmask 11011010
          15 3 14 3 9 3 rrcurveto
          -98 callsubr
          -254 vlineto
          -19 -26 -29 -10 -30 hhcurveto
          -55 -18 30 76 hvcurveto
          254 3 callgsubr
          -44 -56 -6 -12 -44 hvcurveto
          -42 vlineto
          43 -8 rlineto
          13 -3 5 -8 -12 vvcurveto
          -191 vlineto
          -101 40 -48 90 vhcurveto
          hintmask 11011100
          58 40 20 33 32 hvcurveto
          hintmask 10111100
          8 -25 15 -17 25 -7 rrcurveto
          -49 65 callgsubr
          hintmask 11011010
          34 38 10 17 25 hvcurveto
          endchar
        </CharString>
        <CharString name="uring">
          -75 callsubr
          62 41 93 42 hstemhm
          81 96 -35 58 88 58 -11 95 hintmask 1011110010000000
          491 7 rmoveto
          hintmask 0111110010000000
          -98 callsubr
          hintmask 1011110010000000
          -105 callsubr
          hintmask 1011101100000000
          -145 546 -78 callsubr
        </CharString>
        <CharString name="utilde">
          -75 callsubr
          67 69 -18 69 -21 -20 11 callgsubr
          hintmask 10100111
          491 7 rmoveto
          hintmask 01100111
          -98 callsubr
          hintmask 10100111
          -105 callsubr
          hintmask 10110111
          -93 562 -16 callgsubr
          hintmask 10101011
          -62 callgsubr
          hintmask 10110111
          -29 callsubr
        </CharString>
        <CharString name="v">
          -16 -6 87 -66 -21 367 53 -41 41 hstemhm
          5 210 75 160 hintmask 01011100
          191 -6 rmoveto
          84 hlineto
          126 353 4 10 7 5 11 3 rlinecurve
          27 8 rlineto
          41 -160 -42 vlineto
          hintmask 10101100
          59 -11 -95 -280 -99 280 rlineto
          hintmask 01011100
          60 11 rlineto
          42 -210 -41 vlineto
          27 -8 11 -3 6 -6 4 -10 rlinecurve
          endchar
        </CharString>
        <CharString name="w">
          -13 callsubr
          hstemhm
          8 192 304 155 hintmask 01011100
          167 -6 rmoveto
          80 hlineto
          87 311 93 -311 rlineto
          79 hlineto
          107 352 3 11 7 5 11 3 rlinecurve
          25 8 rlineto
          41 -155 -42 vlineto
          hintmask 10101100
          55 -11 -75 -271 rlineto
          hintmask 10011100
          -89 324 rlineto
          -83 hlineto
          -89 -325 rlineto
          hintmask 01101100
          -77 272 rlineto
          hintmask 01011100
          54 11 rlineto
          42 -192 -41 vlineto
          25 -8 10 -3 6 -4 4 -11 rlinecurve
          endchar
        </CharString>
        <CharString name="wacute">
          -13 callsubr
          233 -87 callsubr
          258 110 -91 callgsubr
        </CharString>
        <CharString name="wcircumflex">
          -13 callsubr
          221 -87 callsubr
          183 111 -80 callgsubr
        </CharString>
        <CharString name="wdieresis">
          -13 callsubr
          68 105 hstemhm
          8 192 11 103 64 102 24 155 hintmask 0101101010000000
          167 -6 rmoveto
          80 hlineto
          87 311 93 -311 rlineto
          79 hlineto
          107 352 3 11 7 5 11 3 rlinecurve
          25 8 rlineto
          41 -155 -42 vlineto
          hintmask 1010101010000000
          55 -11 -75 -271 rlineto
          hintmask 1001111010000000
          -89 324 rlineto
          -83 hlineto
          -89 -325 rlineto
          hintmask 0110111010000000
          -77 272 rlineto
          hintmask 0101111010000000
          54 11 rlineto
          42 -192 -41 vlineto
          25 -8 10 -3 6 -4 4 -11 rlinecurve
          hintmask 0101101110000000
          261 187 -93 callgsubr
        </CharString>
        <CharString name="wgrave">
          -13 callsubr
          233 -87 callsubr
          237 300 -68 callsubr
        </CharString>
        <CharString name="x">
          -4 0 46 324.5 43.5 -40 40 hstemhm
          17 177 -170 205 21 206 -171 162 hintmask 10110010
          194 hmoveto
          42 vlineto
          -58 8 rlineto
          hintmask 10110100
          83 114 78 -114 -47 -8 rlineto
          -42 206 42 vlineto
          -30 5 -10 2 -7 3 -6 9 rlinecurve
          -118 157 rlineto
          hintmask 11010010
          107 135 6 8 7 4 9 2 rlinecurve
          hintmask 10101010
          33 7 rlineto
          40 -162 -40 vlineto
          50 -11 -81 -108 -75 108 50 11 rlineto
          40 -205 -40 vlineto
          29 -7 9 -2 7 -4 6 -8 rlinecurve
          112 -151 rlineto
          hintmask 10110010
          -111 -141 -6 -8 -7 -4 -10 -2 rlinecurve
          -36 -5 rlineto
          -42 vlineto
          endchar
        </CharString>
        <CharString name="y">
          -33 callgsubr
          hstemhm
          8 213 74 160 hintmask 01101110
          17 -129 rmoveto
          -51 vlineto
          hintmask 10101110
          -5 29 32 -3 29 hhcurveto
          85 48 55 120 42 hvcurveto
          122 357 4 12 7 5 11 3 rlinecurve
          29 9 rlineto
          41 -160 -42 vlineto
          hintmask 01110110
          56 -11 -90 -283 -100 283 rlineto
          hintmask 01101110
          60 11 rlineto
          41 vlineto
          -213 1 rlineto
          -41 vlineto
          30 -9 11 -3 7 -6 4 -10 rlinecurve
          131 -345 rlineto
          43 hlineto
          -44 -98 -59 -19 -114 -12 rrcurveto
          endchar
        </CharString>
</ttFont>
